<svg width="126" height="126" viewBox="0 0 126 126" fill="none" xmlns="http://www.w3.org/2000/svg">
<path d="M102.488 95.8608C102.488 95.8608 100.245 91.3752 100.119 88.5276C99.9934 85.68 98.0026 70.4844 96.3898 65.3688C94.777 60.2532 88.3258 53.2728 82.2274 49.0896C80.8918 48.1824 74.7683 44.73 74.7683 44.73L73.7603 62.748C73.7603 62.748 82.5803 73.1808 83.0843 77.6664C83.5883 82.152 80.9675 90.09 82.6811 93.0636C85.7051 98.3808 83.9158 95.7096 87.5194 100.951L102.488 95.8608Z" fill="white"/>
<path d="M87.5447 101.178C87.4691 101.178 87.4187 101.153 87.3935 101.102L86.6879 100.069C84.8987 97.4736 84.8987 97.4736 84.2687 96.2892C83.9663 95.7096 83.4875 94.8276 82.5551 93.1896C81.5471 91.4004 82.0007 88.0488 82.4795 84.5208C82.8071 82.1016 83.1599 79.5816 82.9331 77.7168C82.4543 73.3572 73.7351 63.0252 73.6595 62.8992C73.6343 62.8488 73.6091 62.7984 73.6091 62.748L74.6171 44.7552C74.6171 44.6796 74.6675 44.6292 74.7179 44.604C74.7683 44.5788 74.8439 44.5788 74.9195 44.604C75.1715 44.7552 81.0683 48.0564 82.3787 48.9636C87.9983 52.8192 94.8779 59.8752 96.6167 65.3436C98.2547 70.4844 100.22 85.5792 100.346 88.5528C100.472 91.3248 102.665 95.76 102.69 95.8104C102.715 95.8608 102.715 95.9112 102.69 95.9616C102.665 96.012 102.614 96.0624 102.564 96.0624L87.6203 101.178C87.5951 101.178 87.5699 101.178 87.5447 101.178ZM73.9871 62.6976C74.7683 63.63 82.8071 73.3068 83.3111 77.6664C83.5127 79.5816 83.1851 82.1016 82.8323 84.5712C82.3787 87.8976 81.9251 91.3248 82.8575 93.0132C83.7899 94.6512 84.2687 95.5332 84.5711 96.1128C85.2011 97.272 85.2011 97.272 86.9651 99.8676L87.5951 100.775L102.186 95.76C101.732 94.8528 100.019 91.098 99.9179 88.5528C99.7919 85.68 97.7759 70.4592 96.1883 65.4696C94.6763 60.732 88.6283 53.7768 82.1015 49.2912C80.9675 48.51 76.1543 45.7884 74.9447 45.108L73.9871 62.6976Z" fill="#231F20"/>
<path d="M23.5117 95.8608C23.5117 95.8608 25.7545 91.3752 25.8805 88.5276C26.0065 85.68 27.9973 70.4844 29.6101 65.3688C31.2229 60.2532 37.6741 53.2728 43.7725 49.0896C45.1081 48.1824 51.2317 44.73 51.2317 44.73L52.2145 62.748C52.2145 62.748 43.3945 73.1808 42.8905 77.6664C42.3865 82.152 45.0073 90.09 43.2937 93.0636C40.2697 98.3808 42.0589 95.7096 38.4553 100.951L23.5117 95.8608Z" fill="white"/>
<path d="M38.4551 101.178C38.4299 101.178 38.4047 101.178 38.4047 101.178L23.4611 96.0372C23.4107 96.012 23.3603 95.9868 23.3351 95.9364C23.3099 95.886 23.3099 95.8356 23.3351 95.7852C23.3603 95.7348 25.5527 91.3248 25.6787 88.5276C25.8047 85.554 27.7955 70.4592 29.4083 65.3184C31.1471 59.85 38.0267 52.794 43.6463 48.9384C44.9567 48.0312 50.8535 44.73 51.1055 44.5788C51.1559 44.5536 51.2315 44.5536 51.3071 44.5788C51.3575 44.604 51.4079 44.6796 51.4079 44.73L52.4159 62.7228C52.4159 62.7732 52.3907 62.8236 52.3655 62.874C52.2899 62.9748 43.5707 73.3068 43.0919 77.6664C42.8903 79.5312 43.2179 82.026 43.5455 84.4704C44.0243 88.0236 44.4779 91.35 43.4699 93.1392C42.5375 94.7772 42.0587 95.6592 41.7563 96.2388C41.1263 97.4232 41.1263 97.4232 39.3371 100.019L38.6315 101.052C38.5811 101.128 38.5307 101.178 38.4551 101.178ZM23.7887 95.7348L38.3795 100.75L39.0095 99.8424C40.7735 97.272 40.7735 97.272 41.4287 96.0876C41.7311 95.508 42.2099 94.626 43.1423 92.988C44.0999 91.3248 43.6211 87.8724 43.1675 84.546C42.8399 82.1016 42.4871 79.5564 42.6887 77.6412C43.1675 73.2816 51.2063 63.63 52.0127 62.6724L51.0299 45.0576C49.8203 45.738 45.0071 48.4596 43.8731 49.2408C37.3463 53.7264 31.2983 60.6816 29.7863 65.4192C28.1987 70.4088 26.1827 85.6548 26.0567 88.5024C25.9559 91.098 24.2423 94.8276 23.7887 95.7348Z" fill="#231F20"/>
<path d="M42.059 107.276C42.2606 106.394 42.3866 105.487 42.4118 104.58C42.4118 103.446 41.2274 101.783 41.2274 101.783L41.9582 98.1036C41.9582 98.1036 23.411 90.8712 22.655 91.854C21.899 92.8368 20.4122 98.1288 20.4122 98.1288C20.4122 98.1288 18.0434 99.54 17.3126 101.002C16.8842 101.833 16.1282 104.882 15.5486 107.302L42.059 107.276Z" fill="black"/>
<path d="M39.3118 103.421C39.2866 103.421 39.2614 103.421 39.2614 103.421L22.3774 98.3052C22.2766 98.28 22.201 98.1792 22.2514 98.0532C22.2766 97.9524 22.4026 97.8768 22.5034 97.9272L39.3874 103.043C39.4882 103.068 39.5386 103.194 39.5134 103.295C39.463 103.37 39.4126 103.421 39.3118 103.421Z" fill="#231F20"/>
<path d="M83.9412 107.276H110.452C109.897 104.857 109.116 101.808 108.688 100.976C107.932 99.5148 105.588 98.1036 105.588 98.1036C105.588 98.1036 104.101 92.862 103.345 91.854C102.589 90.846 84.042 98.1036 84.042 98.1036L84.7728 101.783C84.7728 101.783 83.6136 103.421 83.5884 104.58C83.6388 105.512 83.7396 106.394 83.9412 107.276Z" fill="black"/>
<path d="M102.488 98.6328L87.2676 103.244Z" fill="white"/>
<path d="M87.2424 103.421C87.1416 103.421 87.0408 103.32 87.0408 103.219C87.0408 103.144 87.0912 103.068 87.1668 103.043L102.388 98.4312C102.488 98.406 102.614 98.4564 102.64 98.5572C102.665 98.658 102.614 98.784 102.514 98.8092L87.2928 103.421C87.2928 103.421 87.2676 103.421 87.2424 103.421Z" fill="#231F20"/>
<path d="M48.762 18.8999H77.238C78.3972 18.8999 79.3296 19.8323 79.3296 20.9915V81.8747C79.3296 83.0339 78.3972 83.9663 77.238 83.9663H48.762C47.6028 83.9663 46.6704 83.0339 46.6704 81.8747V20.9915C46.6704 19.8323 47.6028 18.8999 48.762 18.8999Z" fill="white"/>
<path d="M77.2379 84.1679H48.7619C47.5019 84.1679 46.4939 83.1599 46.4939 81.8999V20.9915C46.4939 19.7315 47.5019 18.7235 48.7619 18.7235H77.2379C78.4979 18.7235 79.5059 19.7315 79.5059 20.9915V81.8747C79.5059 83.1347 78.4979 84.1679 77.2379 84.1679ZM48.7619 19.1015C47.7287 19.1015 46.8719 19.9331 46.8719 20.9915V81.8747C46.8719 82.9079 47.7035 83.7647 48.7619 83.7647H77.2379C78.2711 83.7647 79.1279 82.9079 79.1279 81.8747V20.9915C79.1279 19.9583 78.2963 19.1015 77.2379 19.1015H48.7619Z" fill="#231F20"/>
<path d="M77.616 24.7968H48.4092V74.8692H77.616V24.7968Z" fill="white"/>
<path d="M77.6159 75.0708H48.4091C48.3083 75.0708 48.2075 74.9952 48.2075 74.8692V24.7968C48.2075 24.696 48.2831 24.5952 48.4091 24.5952H77.6159C77.7167 24.5952 77.8175 24.6708 77.8175 24.7968V74.8692C77.8175 74.97 77.7167 75.0708 77.6159 75.0708ZM48.6107 74.6676H77.4143V24.9984H48.5855L48.6107 74.6676Z" fill="#231F20"/>
<path d="M60.2281 77.2885H65.7721C66.4777 77.2885 67.0573 77.868 67.0573 78.5736V80.6905C67.0573 81.3961 66.4777 81.9756 65.7721 81.9756H60.2281C59.5225 81.9756 58.9429 81.3961 58.9429 80.6905V78.5736C58.9429 77.868 59.5225 77.2885 60.2281 77.2885Z" fill="white"/>
<path d="M65.772 82.1772H60.228C59.4216 82.1772 58.7412 81.522 58.7412 80.6904V78.5736C58.7412 77.7672 59.3964 77.0868 60.228 77.0868H65.772C66.5784 77.0868 67.2588 77.742 67.2588 78.5736V80.6904C67.2588 81.522 66.5784 82.1772 65.772 82.1772ZM60.228 77.49C59.6232 77.49 59.1444 77.9688 59.1444 78.5736V80.6904C59.1444 81.2952 59.6232 81.774 60.228 81.774H65.772C66.3768 81.774 66.8556 81.2952 66.8556 80.6904V78.5736C66.8556 77.9688 66.3768 77.49 65.772 77.49H60.228Z" fill="#D1D3D4"/>
<path d="M65.9483 21.924H57.6323C57.5315 21.924 57.4307 21.8232 57.4307 21.7224C57.4307 21.6216 57.5063 21.5208 57.6323 21.5208H65.9483C66.0491 21.5208 66.1499 21.5964 66.1499 21.7224C66.1499 21.8232 66.0491 21.924 65.9483 21.924Z" fill="#D1D3D4"/>
<path d="M68.2415 21.924H67.1327C67.0319 21.924 66.9312 21.8232 66.9312 21.7224C66.9312 21.6216 67.0067 21.5208 67.1327 21.5208H68.2415C68.3423 21.5208 68.4432 21.6216 68.4432 21.7224C68.418 21.8484 68.3423 21.924 68.2415 21.924Z" fill="#D1D3D4"/>
<path d="M77.6159 27.8208H48.4091C48.3083 27.8208 48.2075 27.7452 48.2075 27.6192C48.2075 27.5184 48.2831 27.4176 48.4091 27.4176H77.6159C77.7167 27.4176 77.8175 27.4932 77.8175 27.6192C77.8175 27.72 77.7167 27.8208 77.6159 27.8208Z" fill="#231F20"/>
<path d="M76.3308 29.8368H74.718H74.6424H62.9496C62.5212 29.8368 62.1936 30.1644 62.1936 30.5928V33.5412C62.1936 33.9696 62.5212 34.2972 62.9496 34.2972H74.6424C75.0708 34.2972 75.3984 33.9696 75.3984 33.5412V30.7692L76.3308 29.8368Z" fill="#D1D3D4"/>
<path d="M51.3071 44.478H52.9199H52.9955H64.6883C65.1167 44.478 65.4443 44.8056 65.4443 45.234V49.8204C65.4443 50.2488 65.1167 50.5764 64.6883 50.5764H52.9955C52.5671 50.5764 52.2395 50.2488 52.2395 49.8204V45.3852L51.3071 44.478Z" fill="#D1D3D4"/>
<path d="M51.3071 59.2955H52.9199C52.9451 59.2955 52.9703 59.2955 52.9955 59.2955H66.7799C67.2083 59.2955 67.5359 59.6231 67.5359 60.0515V66.4271C67.5359 66.8555 67.2083 67.1831 66.7799 67.1831H52.9955C52.5671 67.1831 52.2395 66.8555 52.2395 66.4271V60.2279L51.3071 59.2955Z" fill="#D1D3D4"/>
<path d="M76.3308 52.4664H74.718H74.6424H62.9496C62.5212 52.4664 62.1936 52.794 62.1936 53.2224V56.1708C62.1936 56.5992 62.5212 56.9268 62.9496 56.9268H74.6424C75.0708 56.9268 75.3984 56.5992 75.3984 56.1708V53.3988L76.3308 52.4664Z" fill="#D1D3D4"/>
<path d="M59.976 35.3304H74.34C74.9196 35.3304 75.3732 35.784 75.3732 36.3636V41.2272C75.3732 41.8068 74.9196 42.2604 74.34 42.2604H59.976C59.3964 42.2604 58.9428 41.8068 58.9428 41.2272V36.3636C58.9176 35.8092 59.3964 35.3304 59.976 35.3304Z" fill="#D1D3D4"/>
<path d="M51.6851 69.7284H74.3399C75.2471 69.7284 75.9779 70.4592 75.9779 71.3664C75.9779 72.2736 75.2471 73.0044 74.3399 73.0044H51.6851C50.7779 73.0044 50.0471 72.2736 50.0471 71.3664C50.0471 70.4592 50.7779 69.7284 51.6851 69.7284Z" fill="white"/>
<path d="M74.3148 73.2061H51.66C50.652 73.1809 49.8456 72.3241 49.896 71.2909C49.9212 70.3333 50.7024 69.5521 51.66 69.5269H74.3148C75.3228 69.5521 76.1292 70.4089 76.0788 71.4421C76.0536 72.3997 75.2724 73.1557 74.3148 73.2061ZM51.6852 69.9301C50.8788 69.9301 50.2488 70.5853 50.2488 71.3665C50.2488 72.1477 50.904 72.8029 51.6852 72.8029H74.34C75.1464 72.8029 75.7764 72.1477 75.7764 71.3665C75.7764 70.5853 75.1212 69.9301 74.34 69.9301H51.6852Z" fill="#D1D3D4"/>
<path d="M40.4207 98.1288C40.4207 98.1288 46.8719 92.8116 47.3759 86.7384C47.8799 80.6652 46.8719 74.34 47.6279 72.9792C48.3839 71.6184 53.5751 64.1592 54.7091 62.1684C56.1959 59.5476 53.9531 57.204 52.3403 58.1868C50.7275 59.1696 44.3771 62.7732 41.0255 67.6368C41.0255 67.6368 39.0347 69.7536 37.2959 73.4832" fill="white"/>
<path d="M40.4209 98.3052C40.3201 98.3052 40.2193 98.2044 40.2193 98.1036C40.2193 98.0532 40.2445 98.0028 40.2949 97.9524C40.3705 97.902 46.6957 92.61 47.1745 86.688C47.4265 83.7396 47.3005 80.6904 47.1997 78.246C47.0989 75.5496 47.0233 73.6092 47.4265 72.8532C47.7793 72.198 49.1905 70.1064 50.6521 67.914C52.2649 65.52 53.9029 63.0756 54.5077 62.0424C55.3141 60.6312 54.9613 59.3208 54.2557 58.6152C53.7013 58.086 52.9957 57.96 52.4161 58.3128L51.9877 58.5648C49.8709 59.85 44.2513 63.2268 41.1769 67.6872C41.1265 67.7376 39.1609 69.8544 37.4725 73.5084C37.4221 73.6092 37.3213 73.6344 37.2205 73.6092C37.1197 73.5588 37.0945 73.458 37.1197 73.3572C38.8585 69.6528 40.8745 67.4856 40.8745 67.4604C43.9993 62.9496 49.6693 59.5476 51.7861 58.2372L52.2145 57.9852C52.9453 57.5316 53.8525 57.6828 54.5329 58.338C55.3393 59.1192 55.7677 60.6312 54.8605 62.2188C54.2557 63.252 52.6177 65.7216 51.0049 68.1156C49.5433 70.308 48.1321 72.3744 47.7793 73.0296C47.4265 73.6848 47.5021 75.6756 47.6029 78.2208C47.7037 80.6652 47.8045 83.7396 47.5777 86.7132C47.0737 92.8116 40.6225 98.2044 40.5469 98.2548C40.5217 98.3052 40.4713 98.3304 40.4209 98.3052Z" fill="#231F20"/>
<path d="M85.5792 98.1288C85.5792 98.1288 79.128 92.8116 78.624 86.7384C78.12 80.6652 79.128 74.34 78.372 72.9792C77.616 71.6184 72.4248 64.1592 71.2908 62.1684C69.804 59.5476 72.0468 57.204 73.6596 58.1868C75.2724 59.1696 81.6228 62.7732 84.9744 67.6368C84.9744 67.6368 86.9652 69.7536 88.704 73.4832" fill="white"/>
<path d="M85.5792 98.3052C85.5288 98.3052 85.4784 98.28 85.4532 98.2548C85.3776 98.2044 78.9264 92.8116 78.4224 86.7132C78.1704 83.7396 78.2964 80.6652 78.3972 78.2208C78.498 75.6756 78.5736 73.6848 78.2208 73.0296C77.868 72.3744 76.482 70.308 74.9952 68.1156C73.3824 65.7216 71.7192 63.252 71.1396 62.2188C70.2324 60.6312 70.6356 59.1192 71.4672 58.338C72.1476 57.6828 73.0548 57.5316 73.7856 57.9852L74.214 58.2372C76.356 59.5224 82.026 62.9496 85.1508 67.4856C85.1508 67.4856 87.1668 69.6276 88.9056 73.3572C88.956 73.458 88.9056 73.5588 88.8048 73.6092C88.704 73.6596 88.6032 73.6092 88.5528 73.5084C86.8392 69.8544 84.8736 67.7376 84.8736 67.7124C81.774 63.2268 76.1544 59.85 74.0376 58.5648L73.6092 58.3128C73.0296 57.96 72.324 58.0608 71.7696 58.6152C71.064 59.2956 70.7112 60.6312 71.5176 62.0424C72.0972 63.0756 73.7604 65.52 75.3732 67.914C76.86 70.1064 78.246 72.1728 78.5988 72.8532C79.002 73.6092 78.9264 75.5496 78.8256 78.246C78.7248 80.6904 78.624 83.7396 78.8508 86.688C79.3296 92.61 85.6548 97.902 85.7304 97.9524C85.806 98.028 85.8312 98.154 85.7556 98.2296C85.7052 98.28 85.6548 98.3052 85.5792 98.3052Z" fill="#231F20"/>
<path d="M24.7715 29.0051H50.8031C52.4411 29.0051 53.7515 30.3407 53.7515 31.9535V43.8479C53.7515 45.4859 52.4159 46.7963 50.8031 46.7963H24.7715C23.1335 46.7963 21.8231 45.4607 21.8231 43.8479V31.9535C21.7979 30.3155 23.1335 29.0051 24.7715 29.0051Z" fill="black"/>
<path d="M30.0636 42.7644C33.1394 42.7644 35.6328 40.271 35.6328 37.1952C35.6328 34.1194 33.1394 31.626 30.0636 31.626C26.9878 31.626 24.4944 34.1194 24.4944 37.1952C24.4944 40.271 26.9878 42.7644 30.0636 42.7644Z" fill="white"/>
<path d="M27.7702 34.2216C27.6946 34.9776 27.7954 35.7588 28.0474 36.4896C28.0978 36.6912 28.2238 36.8928 28.375 37.0692C28.5766 37.2204 28.8034 37.3212 29.0554 37.3716C29.4586 37.4472 29.8618 37.4976 30.265 37.4976C30.6934 37.548 31.1218 37.422 31.4746 37.17C31.8778 36.8424 31.8274 36.414 32.0038 35.9856C32.1298 35.658 32.5078 35.532 32.6338 35.1792C32.6842 34.9776 32.7094 34.776 32.6842 34.5996C32.6338 34.0704 32.407 33.5664 32.0542 33.1632C31.6006 32.6844 30.895 32.5332 30.265 32.508C29.635 32.4828 28.9798 32.3568 28.9294 33.1128C28.7026 33.0624 28.4758 33.0876 28.2742 33.2388C27.9718 33.4656 27.7954 33.8436 27.7702 34.2216Z" fill="white"/>
<path d="M30.2902 37.6741H30.2398C29.8114 37.6741 29.383 37.6237 28.9798 37.5481C28.7026 37.5229 28.4254 37.3969 28.1986 37.1953C28.0222 37.0189 27.8962 36.7921 27.8206 36.5401C27.5686 35.7841 27.4678 34.9777 27.5182 34.1713C27.5434 33.7429 27.745 33.3145 28.0726 33.0373C28.249 32.9113 28.4506 32.8357 28.6774 32.8357C28.8538 32.2057 29.4586 32.2309 29.9374 32.2561H30.1894C31.021 32.2561 31.7014 32.5081 32.1298 32.9617C32.5078 33.3901 32.7598 33.9445 32.8102 34.5241C32.8354 34.7509 32.8354 34.9777 32.7598 35.2045C32.6842 35.4061 32.533 35.5825 32.3818 35.7085C32.281 35.7841 32.1802 35.8849 32.1298 36.0109C32.0794 36.1369 32.0542 36.2629 32.0038 36.4141C31.9534 36.7669 31.777 37.0693 31.525 37.2961C31.1974 37.5733 30.7438 37.6993 30.2902 37.6741ZM27.9718 34.2469C27.8962 34.9777 27.997 35.7085 28.249 36.4141C28.2994 36.5905 28.375 36.7669 28.501 36.8929C28.6522 37.0441 28.8538 37.1197 29.0806 37.1449C29.4586 37.2205 29.8618 37.2457 30.265 37.2709C30.643 37.2961 31.021 37.1953 31.3234 36.9937C31.4998 36.8173 31.6258 36.5905 31.651 36.3385C31.6762 36.1873 31.7266 36.0361 31.777 35.8849C31.8526 35.7085 31.9786 35.5573 32.1298 35.4313C32.2558 35.3305 32.3566 35.2297 32.407 35.0785C32.4574 34.9273 32.4574 34.7509 32.4322 34.5745C32.3818 34.0957 32.2054 33.6169 31.8778 33.2389C31.4242 32.7349 30.643 32.6593 30.2398 32.6593C30.1642 32.6593 30.0634 32.6593 29.9878 32.6593C29.383 32.6341 29.1562 32.6593 29.1058 33.0877C29.1058 33.1885 29.005 33.2893 28.879 33.2641H28.8538C28.7026 33.2137 28.5262 33.2641 28.4002 33.3649C28.1482 33.6169 27.997 33.9445 27.9718 34.2469Z" fill="#231F20"/>
<path d="M29.6605 44.2513L28.8793 38.4553L31.6513 38.8333L32.6089 44.2513L34.9777 44.0497C34.9021 41.2525 33.8941 38.8837 33.1633 38.3545C32.2813 37.6993 28.9297 37.8253 28.9297 37.8253C28.9297 37.8253 26.2585 38.9593 25.5781 40.2445C25.2757 40.7989 25.0993 42.3613 25.1749 44.3017L29.6605 44.2513Z" fill="black"/>
<path d="M31.6512 37.1952L31.9284 38.7072C31.9284 38.7072 31.5756 39.69 30.5676 39.564C29.9628 39.4884 29.4336 39.1356 29.1312 38.6064L28.854 35.8596C28.854 35.8596 29.5344 35.406 29.1564 33.8436C29.988 34.0956 30.87 34.1208 31.7268 33.9192C31.7268 33.9192 32.3568 35.5824 32.3064 36.3384C32.3064 36.7416 32.0292 37.1196 31.6512 37.1952Z" fill="white"/>
<path d="M30.7188 39.7656C30.6432 39.7656 30.5928 39.7656 30.5172 39.7656C29.862 39.6648 29.2572 39.2868 28.9296 38.7072C28.9296 38.682 28.9044 38.6568 28.9044 38.6316L28.6272 35.8848C28.6272 35.8092 28.6524 35.7336 28.7028 35.6832C28.728 35.658 29.2572 35.2548 28.9296 33.894C28.9044 33.8184 28.9296 33.7428 28.98 33.6924C29.0304 33.642 29.106 33.6168 29.1816 33.642C29.988 33.894 30.8196 33.9192 31.6512 33.7176C31.752 33.6924 31.8528 33.7428 31.878 33.8436C31.9032 33.9192 32.508 35.5572 32.4828 36.3636C32.4828 36.792 32.256 37.17 31.8528 37.3464L32.1048 38.682C32.1048 38.7072 32.1048 38.7576 32.1048 38.7828C31.9032 39.3876 31.3488 39.7656 30.7188 39.7656ZM29.3076 38.5308C29.5848 38.9844 30.0384 39.2616 30.5676 39.3372C31.0464 39.3876 31.5 39.1104 31.6764 38.6568L31.4244 37.2204C31.4244 37.17 31.4244 37.1196 31.4496 37.0692C31.4748 37.0188 31.5252 36.9936 31.5756 36.9936C31.878 36.918 32.0796 36.6408 32.0544 36.3384C32.0796 35.7588 31.7016 34.5996 31.5504 34.1712C30.8196 34.3224 30.0888 34.2972 29.3832 34.146C29.5596 35.2296 29.2068 35.7588 29.0304 35.9604L29.3076 38.5308Z" fill="#231F20"/>
<path d="M30.5424 34.9775C30.5424 34.9775 31.0968 35.7839 30.9708 35.9351C30.8448 36.0863 30.4668 35.9855 30.4668 35.9855" fill="white"/>
<path d="M30.6938 36.2124C30.593 36.2124 30.4922 36.1872 30.4166 36.1872C30.3158 36.162 30.2402 36.0612 30.2654 35.9604C30.2906 35.8596 30.3914 35.784 30.4922 35.8092C30.5678 35.8344 30.6686 35.8344 30.7442 35.8344C30.6434 35.5824 30.5174 35.3304 30.341 35.1036C30.2906 35.0028 30.3158 34.902 30.3914 34.8264C30.4922 34.776 30.593 34.8012 30.6686 34.8768C31.2986 35.8092 31.1474 35.9856 31.0718 36.0612C30.9962 36.162 30.845 36.2124 30.6938 36.2124Z" fill="#231F20"/>
<path d="M30.019 35.0522C30.0746 35.0505 30.1166 34.9476 30.1128 34.8224C30.1089 34.6972 30.0607 34.5971 30.005 34.5988C29.9494 34.6005 29.9074 34.7034 29.9113 34.8286C29.9151 34.9538 29.9633 35.0539 30.019 35.0522Z" fill="#231F20"/>
<path d="M31.279 34.9769C31.3346 34.9752 31.3766 34.8723 31.3728 34.7471C31.3689 34.6219 31.3207 34.5218 31.2651 34.5235C31.2094 34.5252 31.1674 34.6281 31.1713 34.7533C31.1751 34.8785 31.2233 34.9786 31.279 34.9769Z" fill="#231F20"/>
<path d="M29.4085 35.3807C29.3077 35.2295 29.1817 35.1287 29.0305 35.0279C28.9549 34.9775 28.8793 34.9523 28.7785 34.9523C28.7029 34.9523 28.6273 34.9775 28.5769 35.0279C28.4005 35.1539 28.2745 35.3807 28.2493 35.5823C28.2493 35.6831 28.2493 35.7839 28.2997 35.8847C28.3753 36.0359 28.5013 36.1619 28.6273 36.2123C28.7785 36.2879 28.9297 36.3383 29.0809 36.3635" fill="white"/>
<path d="M29.0809 36.5904H29.0305C28.8541 36.5652 28.6777 36.4896 28.5265 36.414C28.3249 36.3132 28.1737 36.162 28.0981 35.9604C28.0477 35.8344 28.0225 35.6832 28.0477 35.5572C28.0729 35.28 28.2241 35.0028 28.4509 34.8516C28.5517 34.776 28.6525 34.7256 28.7533 34.7256C28.8793 34.7256 29.0305 34.7508 29.1313 34.8516C29.3077 34.9524 29.4589 35.1036 29.5597 35.2548C29.6353 35.3556 29.6101 35.4564 29.5093 35.532C29.4085 35.6076 29.2825 35.5824 29.2321 35.4816C29.1565 35.3556 29.0305 35.2548 28.9297 35.1792C28.8793 35.154 28.8289 35.1288 28.7785 35.1288C28.7281 35.1288 28.7029 35.154 28.6777 35.1792C28.5265 35.28 28.4509 35.4312 28.4257 35.6076C28.4257 35.6832 28.4257 35.7588 28.4509 35.8092C28.5013 35.91 28.6021 35.9856 28.7029 36.036C28.8289 36.0864 28.9801 36.1368 29.1313 36.162C29.2321 36.1872 29.3077 36.288 29.2825 36.3888C29.2825 36.3888 29.2825 36.3888 29.2825 36.414C29.2573 36.54 29.1817 36.5904 29.0809 36.5904Z" fill="#231F20"/>
<path d="M31.4496 36.4139L30.114 36.5399C30.24 36.7415 30.492 36.8927 30.744 36.8927C31.122 36.8927 31.4496 36.4139 31.4496 36.4139Z" fill="#231F20"/>
<path d="M50.6266 34.7003H37.6738C37.573 34.7003 37.4722 34.6247 37.447 34.5239C37.447 34.4231 37.5226 34.3223 37.6234 34.2971C37.6486 34.2971 37.6486 34.2971 37.6738 34.2971H50.6266C50.7274 34.2971 50.803 34.3979 50.803 34.5239C50.7778 34.5995 50.7022 34.6751 50.6266 34.7003Z" fill="white"/>
<path d="M50.6268 38.1024H37.674C37.5732 38.1024 37.4724 38.0268 37.4724 37.9008C37.4724 37.8 37.548 37.6992 37.674 37.6992H50.6268C50.7276 37.6992 50.8284 37.7748 50.8284 37.9008C50.8032 38.0268 50.7276 38.1024 50.6268 38.1024Z" fill="white"/>
<path d="M47.5272 41.5295H37.674C37.5732 41.5295 37.4724 41.4539 37.4724 41.3279C37.4724 41.2271 37.548 41.1263 37.674 41.1263H47.5272C47.628 41.1263 47.7288 41.2271 47.7288 41.3279C47.7036 41.4287 47.628 41.5295 47.5272 41.5295Z" fill="white"/>
<path d="M50.8035 46.8216C50.8035 46.8216 56.9019 46.9224 56.8011 46.8216C56.7003 46.7208 51.9879 42.462 51.9879 42.462L50.8035 46.8216Z" fill="black"/>
<path d="M100.75 39.2364H74.7179C73.0799 39.2364 71.7695 37.9008 71.7695 36.288V24.3684C71.7695 22.7304 73.1051 21.42 74.7179 21.42H100.75C102.388 21.42 103.698 22.7556 103.698 24.3684V36.2628C103.698 37.9008 102.388 39.2364 100.75 39.2364Z" fill="black"/>
<path d="M80.287 35.1792C83.3628 35.1792 85.8562 32.6858 85.8562 29.61C85.8562 26.5342 83.3628 24.0408 80.287 24.0408C77.2112 24.0408 74.7178 26.5342 74.7178 29.61C74.7178 32.6858 77.2112 35.1792 80.287 35.1792Z" fill="white"/>
<path d="M100.825 27.09H87.8724C87.7716 27.09 87.696 26.9892 87.696 26.8632C87.696 26.7624 87.7716 26.6868 87.8724 26.6868H100.825C100.926 26.6868 101.002 26.7876 101.002 26.9136C101.002 27.0144 100.926 27.09 100.825 27.09Z" fill="white"/>
<path d="M100.825 30.5172H87.8724C87.7716 30.5172 87.696 30.4164 87.696 30.2904C87.696 30.1896 87.7716 30.114 87.8724 30.114H100.825C100.926 30.114 101.002 30.2148 101.002 30.3408C101.002 30.4164 100.926 30.492 100.825 30.5172Z" fill="white"/>
<path d="M97.7255 33.9193H87.8723C87.7715 33.9193 87.6707 33.8437 87.6707 33.7177C87.6707 33.6169 87.7463 33.5161 87.8723 33.5161H97.7255C97.8263 33.5161 97.9271 33.5917 97.9271 33.7177C97.9271 33.8437 97.8263 33.9193 97.7255 33.9193Z" fill="white"/>
<path d="M74.7181 39.2364C74.7181 39.2364 68.6197 39.3372 68.7205 39.2364C68.8213 39.1356 73.5337 34.8768 73.5337 34.8768L74.7181 39.2364Z" fill="black"/>
<path d="M79.2035 24.9984H79.3547C79.5815 25.0488 79.8083 25.1244 80.0351 25.2252C80.3879 24.9732 80.8667 25.0236 81.2951 25.1748C82.6055 25.6536 84.8735 28.5012 83.5883 29.8872C83.2859 30.1644 82.9079 30.3156 82.5047 30.3408C81.3959 30.5172 80.2871 30.5928 79.1783 30.5172C78.7751 30.5172 78.3719 30.4416 78.0191 30.2652C76.9355 29.6604 77.5655 27.3168 77.9939 26.4096C78.1703 25.9812 78.4223 25.6032 78.6995 25.2252C78.8003 25.0992 79.0019 25.0236 79.2035 24.9984Z" fill="white"/>
<path d="M80.0604 30.7188C79.758 30.7188 79.4556 30.7188 79.1532 30.6936C78.7248 30.6936 78.2964 30.5928 77.8932 30.4164C76.6836 29.7612 77.2884 27.3924 77.7924 26.334C77.9688 25.8804 78.2208 25.4772 78.5484 25.0992C78.7248 24.948 78.9516 24.8472 79.1784 24.822C79.2288 24.822 79.3044 24.822 79.3548 24.822C79.5816 24.8724 79.8084 24.9228 80.0352 25.0236C80.4636 24.8472 80.9424 24.822 81.3456 24.9984C82.3032 25.3512 83.7144 26.838 84.0672 28.2492C84.2436 28.9548 84.1176 29.5848 83.7144 30.0132C83.3868 30.3156 82.9836 30.492 82.53 30.5172C81.6984 30.6684 80.892 30.7188 80.0604 30.7188ZM79.2288 25.1748C79.0776 25.1748 78.9264 25.2504 78.8004 25.3512C78.5232 25.6788 78.2964 26.0568 78.12 26.46C77.6412 27.468 77.1624 29.5848 78.0696 30.0888C78.4224 30.24 78.7752 30.3408 79.1784 30.3408C80.2872 30.4164 81.3708 30.3408 82.4796 30.1644C82.8324 30.1392 83.1852 29.988 83.4624 29.7612C83.79 29.4084 83.8656 28.9296 83.7144 28.3248C83.3868 27.0396 82.1016 25.6536 81.2196 25.326C81.018 25.2504 80.4888 25.0992 80.136 25.3512C80.0604 25.4016 79.9848 25.4016 79.9092 25.3512C79.7328 25.2756 79.5312 25.2252 79.3296 25.1748H79.2288Z" fill="#231F20"/>
<path d="M78.372 35.5068C78.5232 33.768 78.6492 31.5504 78.6492 31.5252L81.0936 31.626L80.9172 35.5068L85.6296 34.65C85.2516 33.7932 84.7728 32.9868 84.1932 32.2308C83.0844 30.744 80.6904 30.744 80.6148 30.744C80.6652 30.744 81.774 30.744 78.6492 30.5676C75.2724 30.366 74.2644 34.398 74.2644 34.398L74.7432 34.65L78.372 35.5068Z" fill="black"/>
<path d="M79.0019 30.1391L78.7247 31.6511C78.7247 31.6511 78.6995 32.5331 79.6823 32.4575C80.2619 32.4071 80.7911 32.1047 81.1439 31.6259L81.4463 29.7611C81.5975 29.0555 81.7235 28.3499 81.7991 27.6443C81.0683 27.8711 80.1611 26.9639 79.9343 26.3591C79.8083 26.7371 79.9091 27.1403 80.1611 27.4427C79.7579 27.2915 79.4303 26.9639 79.3043 26.5355C79.0775 26.7119 78.8759 26.8883 78.6995 27.0899C78.5483 27.3167 78.4223 27.5687 78.3215 27.8459C78.1703 28.3247 78.0695 29.0303 78.2963 29.4839C78.4223 29.7611 78.6743 30.0131 79.0019 30.1391Z" fill="white"/>
<path d="M79.5817 32.634C79.3045 32.6592 79.0525 32.5584 78.8509 32.382C78.6493 32.1804 78.5485 31.9284 78.5485 31.6512C78.5485 31.626 78.7249 30.618 78.8005 30.24C78.4981 30.0636 78.2713 29.8116 78.1201 29.5092C77.8177 28.9296 78.0193 28.0728 78.1453 27.7452C78.2209 27.468 78.3721 27.1908 78.5485 26.9388C78.5485 26.9388 79.1281 26.2836 79.3297 26.3088C79.4053 26.334 79.4557 26.3592 79.4809 26.4348C79.5313 26.6112 79.6069 26.7624 79.7329 26.8884C79.6825 26.6868 79.7077 26.46 79.7581 26.2584C79.7833 26.1576 79.9093 26.1072 79.9849 26.1576C80.0353 26.1828 80.0857 26.208 80.0857 26.2584C80.2873 26.7876 81.1189 27.6444 81.7237 27.4428C81.7741 27.4176 81.8497 27.4428 81.9001 27.468C81.9505 27.4932 81.9757 27.5688 81.9757 27.6192C81.9253 28.1232 81.8749 28.602 81.7489 29.106C81.6985 29.3328 81.6733 29.5596 81.6229 29.7612L81.3205 31.626C81.3205 31.6512 81.3205 31.6764 81.2953 31.7016C80.9425 32.2308 80.3377 32.5836 79.7077 32.634H79.5817ZM78.9013 31.6764C78.9265 31.8528 78.9769 32.004 79.1029 32.13C79.2541 32.256 79.4809 32.3064 79.6825 32.2812C80.2117 32.2308 80.6653 31.9788 80.9677 31.5504L81.2701 29.7108C81.2953 29.484 81.3457 29.2572 81.3961 29.0304C81.4717 28.6272 81.5473 28.224 81.5977 27.8208C81.0433 27.846 80.4637 27.4176 80.1109 26.964C80.1613 27.09 80.2117 27.1908 80.2873 27.2916C80.3629 27.3672 80.3377 27.468 80.2873 27.5436C80.2369 27.594 80.1613 27.594 80.1109 27.5688C79.7329 27.4428 79.4053 27.1656 79.2289 26.7876C79.0777 26.9136 78.8761 27.1152 78.8509 27.1404C78.6997 27.342 78.5989 27.594 78.5233 27.8208C78.3217 28.4508 78.3217 29.0052 78.4729 29.3076C78.5989 29.5848 78.8005 29.8116 79.0777 29.9124C79.1785 29.9376 79.2289 30.0384 79.2037 30.114C79.1785 30.1896 78.9013 31.626 78.9013 31.6764Z" fill="#231F20"/>
<path d="M81.3708 28.6523C81.4212 28.5515 81.4968 28.4507 81.5976 28.4003C81.6984 28.3499 81.7992 28.3247 81.9 28.2995C81.9504 28.2743 82.026 28.2743 82.0764 28.2995C82.1268 28.2995 82.152 28.3247 82.1772 28.3499C82.2528 28.4003 82.3284 28.5011 82.3284 28.5767C82.3284 28.6523 82.3284 28.7279 82.3032 28.8035C82.278 28.8791 82.2528 28.9547 82.2024 29.0303C82.1016 29.1815 81.9504 29.2823 81.7992 29.3327C81.6228 29.3831 81.4464 29.3327 81.2952 29.2319" fill="white"/>
<path d="M81.6733 29.5343C81.5221 29.5343 81.3709 29.4839 81.2197 29.4083C81.1441 29.3579 81.1189 29.2571 81.1693 29.1815C81.2197 29.1059 81.3205 29.0807 81.3709 29.1311C81.4717 29.2067 81.6229 29.2319 81.7489 29.2067C81.8749 29.1815 82.0009 29.1059 82.0765 28.9799C82.1269 28.9295 82.1521 28.8539 82.1521 28.7783C82.1773 28.7279 82.1773 28.6775 82.1773 28.6271C82.1521 28.5767 82.1269 28.5263 82.0765 28.4759C82.0513 28.4507 82.0513 28.4507 82.0261 28.4507C82.0009 28.4507 81.9505 28.4507 81.9253 28.4507C81.8497 28.4759 81.7489 28.5011 81.6733 28.5263C81.5977 28.5767 81.5473 28.6271 81.5221 28.7027C81.4969 28.7783 81.3961 28.8287 81.3205 28.8035C81.2449 28.7783 81.1945 28.6775 81.2197 28.6019V28.5767C81.2701 28.4255 81.3709 28.3247 81.5221 28.2491C81.6229 28.1987 81.7489 28.1483 81.8749 28.1231C81.9505 28.0979 82.0513 28.0979 82.1269 28.1231C82.1773 28.1483 82.2277 28.1735 82.2781 28.1987C82.3789 28.2743 82.4797 28.4003 82.5049 28.5263C82.5301 28.6271 82.5049 28.7279 82.4797 28.8287C82.4545 28.9295 82.4041 29.0303 82.3537 29.1059C82.2277 29.2823 82.0513 29.4083 81.8497 29.4587C81.8245 29.5343 81.7489 29.5343 81.6733 29.5343Z" fill="#231F20"/>
<path d="M79.4555 27.8712C79.4555 27.8712 78.8255 28.5012 78.9011 28.6524C78.9767 28.8036 79.3295 28.7784 79.3295 28.7784" fill="white"/>
<path d="M79.2792 28.9547C79.0776 28.9799 78.876 28.9043 78.75 28.7531C78.6996 28.6775 78.5988 28.4759 79.3296 27.7703C79.4052 27.6947 79.506 27.6947 79.5816 27.7703C79.6572 27.8459 79.6572 27.9467 79.5816 28.0223C79.4052 28.1987 79.2288 28.3751 79.1028 28.6019C79.1784 28.6271 79.254 28.6271 79.3548 28.6271C79.4556 28.6271 79.5312 28.7027 79.5312 28.8035C79.5312 28.9043 79.4556 28.9799 79.38 28.9799H79.2792V28.9547Z" fill="#231F20"/>
<path d="M80.3806 28.1251C80.4215 28.0367 80.4034 27.9413 80.3403 27.9121C80.2771 27.883 80.1928 27.931 80.1519 28.0194C80.111 28.1079 80.1291 28.2032 80.1923 28.2324C80.2554 28.2616 80.3398 28.2136 80.3806 28.1251Z" fill="#231F20"/>
<path d="M79.0498 27.8843C79.0907 27.7959 79.0726 27.7005 79.0095 27.6713C78.9463 27.6421 78.8619 27.6901 78.8211 27.7786C78.7802 27.867 78.7983 27.9624 78.8615 27.9916C78.9246 28.0208 79.009 27.9727 79.0498 27.8843Z" fill="#231F20"/>
<path d="M78.7751 29.0557L79.8587 29.1061C79.8587 29.3833 79.6319 29.5849 79.3799 29.5849C79.3547 29.5849 79.3043 29.5849 79.2791 29.5849C79.0019 29.5849 78.8003 29.3581 78.7751 29.0557Z" fill="#231F20"/>
</svg>
