<svg width="181" height="136" viewBox="0 0 181 136" fill="none" xmlns="http://www.w3.org/2000/svg">
<path d="M38.3267 98.5093C38.3267 98.5093 44.345 86.88 46.2002 84.5723C48.0555 82.2645 57.3317 56.6983 57.4222 56.4268C57.5127 56.1553 41.1775 57.92 39.2317 59.5038C37.286 61.0875 35.4307 75.6128 33.8017 77.1965C32.1727 78.7803 26.1997 86.2013 26.1997 86.2013L38.3267 98.5093Z" fill="white"/>
<path d="M38.3268 98.7355C38.2816 98.7355 38.1911 98.6902 38.1458 98.6902L26.0188 86.3822C25.9283 86.2917 25.9283 86.156 26.0188 86.0655C26.2451 85.7487 32.0823 78.6445 33.6661 77.0607C34.3901 76.3367 35.2046 72.6715 36.0191 69.0967C37.0598 64.5265 38.0101 60.2277 39.0961 59.3227C40.1821 58.4177 45.0691 57.6032 48.9606 57.0602C50.2276 56.8792 57.2866 55.9742 57.6033 56.2457C57.6938 56.3362 57.6938 56.4267 57.6486 56.5172C57.6033 56.5625 57.3771 57.2865 57.0151 58.2367C54.7978 64.3002 47.9651 82.717 46.3813 84.708C44.5713 87.0157 38.5983 98.5092 38.5531 98.5997C38.5078 98.6902 38.4626 98.7355 38.3268 98.7355ZM26.5166 86.2012L38.2816 98.1472C39.2318 96.3372 44.3451 86.6085 46.0193 84.4365C47.0601 83.1242 50.5896 74.2552 56.5626 58.101C56.8341 57.3317 57.0151 56.8792 57.1056 56.653C54.9336 56.6982 41.0871 58.282 39.3676 59.6847C38.3721 60.4992 37.3313 65.1147 36.4263 69.1872C35.5213 73.1692 34.7521 76.563 33.9828 77.3775C32.5348 78.8255 27.3763 85.1152 26.5166 86.2012Z" fill="#231F20"/>
<path d="M35.2949 108.781L42.7612 93.2603L28.0097 81.1333L15.1587 97.2875L35.2949 108.781Z" fill="#231F20"/>
<path d="M35.295 108.962C35.2498 108.962 35.2045 108.962 35.2045 108.917L15.0683 97.4685C15.023 97.4232 14.9778 97.378 14.9778 97.3327C14.9778 97.2875 14.9778 97.197 15.023 97.1517L27.8288 80.9975C27.874 80.9522 27.9193 80.907 27.9645 80.907C28.0098 80.907 28.1003 80.907 28.1455 80.9522L42.897 93.0792C42.9875 93.1245 42.9875 93.2602 42.9423 93.3507L35.476 108.871C35.4308 108.917 35.3855 108.962 35.3403 109.007C35.3403 108.962 35.295 108.962 35.295 108.962ZM15.5208 97.197L35.2045 108.419L42.4898 93.3055L28.055 81.45L15.5208 97.197Z" fill="#231F20"/>
<path d="M38.8244 95.9752C38.7792 95.9752 38.7339 95.9752 38.6887 95.9299L26.0187 86.3822C25.9282 86.2917 25.8829 86.1559 25.9734 86.0654C26.0639 85.9749 26.1997 85.9297 26.2902 86.0202L38.9602 95.5679C39.0507 95.6584 39.0959 95.7942 39.0054 95.8847C39.0054 95.9752 38.9149 95.9752 38.8244 95.9752Z" fill="white"/>
<path d="M142.176 98.5093C142.176 98.5093 136.157 86.9253 134.302 84.5723C132.447 82.2193 123.171 56.6983 123.035 56.4268C122.899 56.1553 139.28 57.92 141.225 59.5038C143.171 61.0875 145.026 75.6128 146.655 77.1965C148.284 78.7803 154.303 86.2013 154.303 86.2013L142.176 98.5093Z" fill="white"/>
<path d="M142.175 98.7355C142.085 98.7355 141.994 98.6902 141.994 98.5997C141.949 98.464 135.931 86.9705 134.121 84.708C132.537 82.717 125.75 64.3002 123.487 58.2367C123.125 57.2865 122.899 56.6077 122.854 56.5172C122.808 56.4267 122.854 56.291 122.899 56.2457C123.216 55.9742 130.275 56.8792 131.542 57.0602C135.433 57.6032 140.32 58.4177 141.406 59.3227C142.492 60.2277 143.488 64.5265 144.528 69.0967C145.343 72.6715 146.157 76.3367 146.836 77.0607C148.42 78.6445 154.257 85.7487 154.483 86.0655C154.574 86.156 154.574 86.2917 154.483 86.3822L142.356 98.645C142.311 98.6902 142.266 98.7355 142.175 98.7355ZM123.397 56.653C123.487 56.8792 123.623 57.3317 123.94 58.101C129.913 74.3005 133.487 83.1695 134.483 84.4365C136.202 86.6085 141.27 96.3372 142.221 98.1472L153.986 86.2012C153.081 85.1152 147.967 78.8255 146.519 77.3775C145.705 76.563 144.936 73.1692 144.076 69.1872C143.171 65.1147 142.13 60.454 141.135 59.6847C139.415 58.282 125.569 56.6982 123.397 56.653Z" fill="#231F20"/>
<path d="M143.216 108.917L137.786 93.2603L153.081 83.26L164.212 100.365L143.216 108.917Z" fill="#231F20"/>
<path d="M143.216 109.143C143.171 109.143 143.171 109.143 143.126 109.143C143.08 109.098 143.035 109.052 142.99 109.007L137.56 93.3054C137.515 93.2149 137.56 93.0792 137.65 93.0339L152.99 83.0789C153.081 83.0337 153.216 83.0337 153.307 83.1242L164.438 100.183C164.484 100.229 164.484 100.319 164.484 100.364C164.484 100.41 164.393 100.5 164.348 100.5L143.352 109.098C143.307 109.188 143.261 109.188 143.216 109.143ZM138.058 93.3507L143.397 108.645L163.895 100.274L153.035 83.6219L138.058 93.3507Z" fill="#231F20"/>
<path d="M141.814 96.4731C141.723 96.4731 141.678 96.4279 141.633 96.3826C141.587 96.2921 141.587 96.1564 141.678 96.0659L153.85 88.3281C153.941 88.2376 154.076 88.2829 154.167 88.3734C154.257 88.4639 154.212 88.5996 154.122 88.6901C154.122 88.6901 154.076 88.6901 154.076 88.7354L141.949 96.4731C141.859 96.4731 141.814 96.5184 141.814 96.4731Z" fill="white"/>
<path d="M58.9155 41.7205C58.9155 41.7205 42.7613 84.4365 43.6663 84.9795C44.5713 85.5225 64.5718 79.64 68.78 78.554L90.9073 85.7487L114.799 80.6807L136.61 87.3777L124.935 43.3042L108.193 34.752L91.767 42.7612L76.2463 35.838L58.9155 41.7205Z" fill="white"/>
<path d="M136.61 87.6493H136.565L114.799 80.9975L90.9526 86.0203C90.9073 86.0203 90.8621 86.0203 90.8168 86.0203L68.7801 78.8255C67.6488 79.097 65.4316 79.7305 62.8976 80.4545C50.5896 83.8935 44.2093 85.5678 43.5758 85.2058C43.2591 85.0248 42.8518 84.7985 50.7706 63.1238C54.6621 52.49 58.6893 41.811 58.7346 41.6753C58.7798 41.63 58.8251 41.5395 58.8703 41.5395L76.2011 35.657C76.2463 35.657 76.2916 35.657 76.3821 35.657L91.8123 42.535L108.148 34.571C108.193 34.5258 108.283 34.5258 108.329 34.571L125.071 43.1233C125.116 43.1685 125.162 43.2138 125.162 43.259L136.791 87.2873C136.791 87.3778 136.791 87.4683 136.746 87.5135C136.746 87.604 136.655 87.6493 136.61 87.6493ZM114.799 80.4998H114.845L136.293 87.061L124.754 43.4853L108.193 35.0235L91.8576 42.9875C91.8123 43.0328 91.7218 43.0328 91.6766 42.9875L76.2011 36.1095L59.0513 41.9015C52.9426 58.282 43.9378 82.8075 43.8473 84.7985C45.1143 84.889 56.5626 81.7215 62.7166 80.002C65.3411 79.278 67.6036 78.6445 68.6896 78.373C68.7348 78.373 68.7801 78.373 68.8253 78.373L90.8621 85.5678L114.709 80.4998H114.799Z" fill="#231F20"/>
<path d="M57.7844 56.9244C57.6939 56.9244 57.6034 56.8792 57.5581 56.7887C57.4676 56.5624 57.5129 56.3362 57.6034 56.1099C57.9201 55.6574 58.3726 55.3407 58.8704 55.2502C62.5356 54.2094 66.3366 53.9379 70.1376 54.4809C70.5901 54.5714 71.0879 54.6167 71.5404 54.7072C73.0789 54.9787 74.6626 55.2502 76.2011 55.0692C77.7849 54.7977 79.3234 54.2094 80.6809 53.3044C84.3914 50.9967 86.6086 47.6934 86.5634 44.5259C86.5634 44.3902 86.6539 44.2997 86.7896 44.2997C86.9254 44.2997 87.0159 44.3902 87.0159 44.4807C87.0611 47.8292 84.7986 51.2682 80.9524 53.6664C79.5496 54.6167 77.9659 55.2502 76.3369 55.5217C74.7079 55.7479 73.0789 55.4312 71.5404 55.1597C71.0879 55.0692 70.5901 54.9787 70.1376 54.9334C66.4271 54.3904 62.6714 54.6619 59.0966 55.7027C58.6894 55.7932 58.3274 56.0194 58.1011 56.3362C58.0559 56.4267 58.0559 56.5624 58.0559 56.6529C58.1011 56.7887 58.0106 56.8792 57.9201 56.9244C57.8296 56.9244 57.7844 56.9244 57.7844 56.9244Z" fill="#D1D3D4"/>
<path d="M56.0648 76.8797C56.0195 76.8797 56.0195 76.8797 55.9743 76.8797C55.8385 76.8345 55.7933 76.6987 55.8385 76.6082C57.7843 71.133 59.9563 66.0197 64.4813 63.3952C67.6035 61.5852 71.676 61.178 76.563 62.083C78.4183 62.445 80.2735 62.9427 82.0835 63.4405C84.2102 64.074 86.337 64.5717 88.509 64.9337C91.5408 65.4315 93.758 65.16 95.4322 64.1645C97.1065 63.169 98.1925 61.4042 99.2785 59.5942C99.9572 58.3725 100.727 57.2412 101.632 56.2005C104.528 53.033 109.007 52.0827 113.713 51.3135C117.74 50.68 121.587 50.2727 124.709 52.2637C124.8 52.309 124.845 52.4447 124.799 52.5805C124.754 52.671 124.619 52.7162 124.483 52.671C121.496 50.7705 117.74 51.1777 113.804 51.8112C109.188 52.5352 104.754 53.4855 101.948 56.5625C101.089 57.6032 100.319 58.6892 99.6405 59.8657C98.5545 61.6757 97.4685 63.531 95.6133 64.617C93.758 65.703 91.5408 65.9292 88.3733 65.4315C86.2013 65.0242 84.0293 64.5265 81.9025 63.9382C80.0925 63.4405 78.2825 62.9427 76.4272 62.5807C71.6307 61.6757 67.6488 62.083 64.617 63.8477C60.1825 66.3817 58.101 71.4497 56.1553 76.8345C56.2458 76.7892 56.1553 76.8797 56.0648 76.8797Z" fill="#D1D3D4"/>
<path d="M90.9074 86.0203C90.7717 86.0203 90.6812 85.9298 90.6812 85.7941L91.5862 42.8066C91.5862 42.6708 91.6767 42.5803 91.8124 42.5803C91.9482 42.5803 92.0387 42.6708 92.0387 42.8066L91.1337 85.7941C91.1337 85.9298 90.9979 86.0203 90.9074 86.0203Z" fill="#D1D3D4"/>
<path d="M68.78 78.8255C68.599 78.8255 68.5537 78.6897 68.5537 78.554L76.02 35.838C76.02 35.7022 76.1557 35.657 76.2462 35.657C76.382 35.657 76.4725 35.7927 76.4272 35.9285L68.961 78.6445C68.961 78.735 68.8705 78.8255 68.78 78.8255Z" fill="#D1D3D4"/>
<path d="M114.799 80.9522C114.709 80.9522 114.573 80.8617 114.573 80.7712L108.012 34.8424C108.012 34.7067 108.102 34.6162 108.193 34.5709C108.328 34.5709 108.419 34.6614 108.464 34.7519L115.025 80.6807C115.025 80.8164 114.98 80.9522 114.799 80.9522Z" fill="#D1D3D4"/>
<path d="M130.727 83.079C130.682 83.079 130.682 83.079 130.637 83.079L113.985 76.02L90.3641 81.5405C90.3189 81.5405 90.2736 81.5405 90.2284 81.5405L69.6396 73.5765L49.7749 78.6445C49.6844 78.6445 49.5939 78.6445 49.5486 78.5993C49.5034 78.554 49.4581 78.4635 49.5034 78.373L61.8114 43.8473C61.8114 43.802 61.9019 43.7568 61.9471 43.7115L75.6579 38.372C75.7031 38.3268 75.7936 38.3268 75.8389 38.372L91.7669 46.155L108.419 38.01C108.464 37.9648 108.555 37.9648 108.6 38.01L123.035 45.4763C123.08 45.5215 123.125 45.5668 123.17 45.612L130.999 82.8075C130.999 82.898 130.999 82.9885 130.908 83.0338C130.863 83.079 130.772 83.079 130.727 83.079ZM113.985 75.5223C114.03 75.5223 114.03 75.5223 114.075 75.5223L130.41 82.4908L122.673 45.793L108.464 38.4173L91.8121 46.5623C91.7669 46.6075 91.6764 46.6075 91.6311 46.5623L75.7031 38.7793L62.1734 44.0283L50.0464 78.0563L69.5944 72.9883C69.6396 72.9883 69.6849 72.9883 69.7301 72.9883L90.3189 80.9523L113.939 75.4318L113.985 75.5223Z" fill="#D1D3D4"/>
<path d="M108.419 59.368L106.7 55.8837C104.89 52.1732 103.08 48.508 101.224 44.8427C100.5 43.5305 100.138 42.0825 100.138 40.5892C100.229 36.019 103.985 32.3537 108.555 32.399C112.311 32.4442 115.569 35.0235 116.474 38.6435C116.971 40.5892 116.745 42.6255 115.84 44.3902L111.27 53.6212L108.6 59.0512C108.51 59.187 108.464 59.2322 108.419 59.368ZM108.419 44.8427C110.727 44.8427 112.582 42.9875 112.582 40.725C112.582 38.4172 110.727 36.562 108.464 36.562C106.202 36.562 104.301 38.4172 104.301 40.6797C104.256 42.9875 106.111 44.8427 108.419 44.8427Z" fill="black"/>
<path d="M73.8479 68.2823L72.1284 64.7981C70.3184 61.1328 68.5084 57.4223 66.6531 53.7571C65.9291 52.4448 65.5671 50.9968 65.5671 49.5036C65.6576 44.9333 69.4586 41.2681 74.0289 41.3586C77.7394 41.4491 80.9521 43.9831 81.9024 47.5578C82.4001 49.5036 82.1739 51.5398 81.2689 53.3046L76.6986 62.5356L74.0289 67.9656C73.9836 68.0561 73.9384 68.1466 73.8479 68.2823ZM73.8479 53.7571C76.1556 53.7571 78.0109 51.9018 78.0109 49.6393C78.0109 47.3316 76.1556 45.4763 73.8931 45.4763C71.6306 45.4763 69.7301 47.3316 69.7301 49.5941C69.7301 51.8566 71.5854 53.7118 73.8479 53.7571Z" fill="black"/>
<path d="M140.184 66.2459C136.429 63.6667 132.221 61.8114 127.922 60.2729C126.836 59.9109 125.704 59.5489 124.618 59.7752C123.532 60.0014 122.492 61.0422 122.718 62.1734C122.899 63.0332 123.713 63.6214 124.483 64.0739L134.302 70.2279C133.216 74.4362 134.709 78.8707 138.148 81.5404" fill="white"/>
<path d="M138.148 81.812C138.103 81.812 138.058 81.812 138.013 81.7668C134.528 79.097 132.99 74.6173 134.031 70.3638L124.347 64.3003C123.533 63.8025 122.673 63.2143 122.492 62.264C122.22 60.997 123.397 59.8658 124.573 59.5943C125.75 59.3228 126.836 59.6848 128.012 60.092C133.035 61.8568 136.927 63.8025 140.32 66.065C140.411 66.1555 140.456 66.2913 140.366 66.3818C140.275 66.4723 140.139 66.5175 140.049 66.427C136.7 64.1193 132.854 62.264 127.831 60.4993C126.745 60.092 125.659 59.7753 124.664 60.0015C123.668 60.2278 122.763 61.1328 122.944 62.1283C123.08 62.8975 123.849 63.3953 124.573 63.893L134.393 70.047C134.483 70.0923 134.528 70.1828 134.483 70.3185C133.397 74.4363 134.89 78.7803 138.239 81.4048C138.329 81.4953 138.375 81.631 138.284 81.7215C138.284 81.7668 138.239 81.7668 138.148 81.812Z" fill="#231F20"/>
<path d="M40.363 66.2459C44.1188 63.6667 48.327 61.8114 52.6258 60.2729C53.6665 59.9109 54.843 59.5489 55.929 59.7752C57.015 60.0014 58.0558 61.0422 57.8295 62.1734C57.6485 63.0332 56.834 63.6214 56.11 64.0739L46.2908 70.2279C47.3768 74.4362 45.8835 78.8707 42.4445 81.5404" fill="white"/>
<path d="M42.3992 81.812C42.2635 81.812 42.173 81.7215 42.173 81.5858C42.173 81.4953 42.2182 81.45 42.2635 81.4048C45.612 78.7803 47.1052 74.4363 46.0192 70.3185C45.974 70.228 46.0192 70.1375 46.1097 70.047L55.929 63.893C56.6982 63.4405 57.4222 62.8975 57.558 62.1283C57.739 61.1328 56.7887 60.2278 55.8385 60.0015C54.8882 59.7753 53.757 60.092 52.671 60.4993C47.6935 62.264 43.802 64.1645 40.4535 66.427C40.363 66.5175 40.2272 66.4723 40.1367 66.3818C40.0462 66.2913 40.0915 66.1555 40.182 66.065C43.5305 63.7573 47.4672 61.8568 52.49 60.092C53.6212 59.6848 54.7525 59.3228 55.929 59.5943C57.1055 59.8658 58.2367 60.997 58.0105 62.264C57.8295 63.2143 57.015 63.8025 56.1552 64.3003L46.4717 70.3638C47.5577 74.6173 45.974 79.097 42.535 81.7668C42.4897 81.812 42.4445 81.812 42.3992 81.812Z" fill="#231F20"/>
<path d="M45.0692 46.3812C45.0239 46.3812 44.9787 46.3812 44.9334 46.336L36.9242 40.182C36.8337 40.0915 36.7884 39.9557 36.8789 39.8652C36.9694 39.7747 37.1052 39.7295 37.1957 39.82L45.2049 45.9287C45.2954 46.0192 45.3407 46.155 45.2502 46.2455C45.2049 46.336 45.1597 46.3812 45.0692 46.3812Z" fill="#D1D3D4"/>
<path d="M87.5589 31.6298C87.4231 31.6298 87.3326 31.5393 87.3326 31.4488L86.7444 26.8786C86.7444 26.7428 86.8349 26.6523 86.9254 26.6071C87.0611 26.6071 87.1516 26.6976 87.1969 26.7881L87.7851 31.3583C87.7851 31.4941 87.6946 31.6298 87.5589 31.6298Z" fill="#D1D3D4"/>
<path d="M139.913 50.3181C139.822 50.3181 139.777 50.2728 139.732 50.2276C139.641 50.1371 139.687 50.0013 139.777 49.9108L148.194 43.3043C148.284 43.2138 148.42 43.2591 148.51 43.3496C148.601 43.4401 148.556 43.5758 148.465 43.6663L140.049 50.2728C140.003 50.3181 139.958 50.3633 139.913 50.3181Z" fill="#D1D3D4"/>
<path d="M122.22 34.4353C122.175 34.4353 122.13 34.4353 122.13 34.39C122.039 34.3448 121.994 34.209 122.039 34.0733L124.075 30.4985C124.121 30.408 124.256 30.3628 124.392 30.408C124.483 30.4533 124.528 30.589 124.483 30.7248L122.446 34.2995C122.401 34.39 122.311 34.4353 122.22 34.4353Z" fill="#D1D3D4"/>
<path d="M51.3136 103.125C51.2683 103.125 51.2231 103.125 51.1778 103.079C51.0873 102.989 51.0421 102.853 51.1326 102.763L58.5083 93.0792C58.5988 92.9887 58.7346 92.9887 58.8251 93.0792C58.9156 93.1697 58.9156 93.2602 58.8703 93.396L51.4946 103.079C51.4493 103.079 51.4041 103.125 51.3136 103.125Z" fill="#D1D3D4"/>
<path d="M123.714 101.088C123.668 101.088 123.578 101.043 123.533 100.998L115.388 91.3145C115.297 91.224 115.342 91.0882 115.433 90.9977C115.523 90.9525 115.659 90.9525 115.704 91.043L123.849 100.726C123.94 100.817 123.895 100.953 123.804 101.043C123.804 101.043 123.759 101.088 123.714 101.088Z" fill="#D1D3D4"/>
<path d="M85.4775 100.048C85.3417 100.048 85.2512 99.9119 85.2512 99.7762L86.0205 94.1652C86.0205 94.0294 86.1562 93.9389 86.292 93.9842C86.4277 93.9842 86.5182 94.1199 86.473 94.2557L85.7037 99.8667C85.7037 100.002 85.568 100.048 85.4775 100.048Z" fill="#D1D3D4"/>
</svg>
