<svg width="186" height="186" viewBox="0 0 186 186" fill="none" xmlns="http://www.w3.org/2000/svg">
<path d="M131.896 147.863C131.896 147.863 141.323 147.528 146.947 132.402C152.576 117.28 144.771 93.0521 131.643 86.2556C118.515 79.4555 84.0497 76.0554 72.7967 92.5871C65.0591 103.952 51.9349 140.642 55.4726 147.122C58.988 153.569 72.0304 152.234 73.124 146.951C74.6641 139.5 78.6594 132.443 79.8312 127.987C78.9942 130.661 76.9073 145.385 75.7764 153.61C75.3709 156.571 77.4801 160.838 80.4673 160.901L127.54 162.144C130.609 162.207 133.232 157.616 132.815 154.577L131.9 147.863H131.896Z" fill="black"/>
<path d="M122.265 82.7403C122.265 82.7403 120.859 100.793 108.434 99.1529C93.5579 97.1888 92.7246 81.8028 92.7246 81.8028C92.7246 81.8028 104.915 78.0531 122.265 82.7403Z" fill="#1F1C1D"/>
<path d="M118.464 41.8202C117.82 41.5709 117.139 41.4035 116.458 41.3254C113.739 41.0092 113.691 41.597 111.585 39.8374C108.557 37.3041 104.372 35.8458 100.444 35.5929C92.6244 35.0721 86.9291 39.0041 88.711 47.5787C89.4252 51.0048 91.2443 54.0962 93.2903 56.9308C97.7059 63.0539 103.952 68.6079 111.485 69.1808C113.717 69.3519 117.917 69.1584 119.535 67.3505C124.163 62.2058 125.796 54.5426 123.672 47.9544C123.214 46.5446 122.593 45.1719 121.64 44.041C120.796 43.0478 119.687 42.2889 118.471 41.8164H118.464V41.8202Z" fill="white"/>
<path d="M112.82 69.5082C112.322 69.5082 111.861 69.4896 111.459 69.4598C106.883 69.1101 99.9789 66.6847 93.0597 57.0945C90.4743 53.5122 89.0495 50.5957 88.432 47.6346C87.6582 43.9108 88.2497 40.7972 90.1395 38.6247C92.2599 36.1881 95.9241 35.0126 100.455 35.3139C104.692 35.5892 108.814 37.1628 111.76 39.6254C113.244 40.8642 113.605 40.879 114.799 40.9274C115.231 40.946 115.767 40.9646 116.488 41.0502C117.176 41.1283 117.865 41.2957 118.534 41.5524C118.549 41.5524 118.56 41.5598 118.571 41.5635C119.862 42.0657 120.997 42.8618 121.852 43.8662C122.712 44.8855 123.393 46.1949 123.936 47.8726C126.097 54.5798 124.453 62.2988 119.74 67.5403C118.345 69.0952 115.171 69.5082 112.82 69.5082ZM99.0898 35.8236C95.3549 35.8236 92.3603 36.9284 90.5636 38.9893C88.7928 41.0241 88.2423 43.9741 88.9788 47.5192C89.5778 50.3985 90.9765 53.2518 93.5098 56.7634C100.303 66.1788 107.043 68.5596 111.5 68.8981C113.68 69.0655 117.775 68.8869 119.323 67.1608C123.906 62.0644 125.506 54.5612 123.404 48.0363C122.883 46.4293 122.236 45.1794 121.425 44.2159C120.636 43.2896 119.587 42.5493 118.393 42.0843C118.382 42.0843 118.371 42.0769 118.359 42.0732C117.727 41.8314 117.076 41.6677 116.421 41.5933C115.722 41.5114 115.197 41.4891 114.777 41.4742C113.542 41.4259 113.032 41.4036 111.403 40.042C108.587 37.6873 104.484 36.1249 100.422 35.8608C99.9677 35.831 99.525 35.8161 99.0898 35.8161V35.8236Z" fill="#1F1C1D"/>
<path d="M112.813 69.7611C114.803 69.7611 118.33 69.4896 119.933 67.7077C124.706 62.3993 126.372 54.5798 124.177 47.7871C123.627 46.0759 122.931 44.733 122.038 43.6877C121.157 42.6498 119.985 41.8202 118.653 41.3106C117.965 41.039 117.243 40.8605 116.514 40.7749C115.785 40.6893 115.242 40.667 114.81 40.6521C113.657 40.6075 113.345 40.5889 111.927 39.4059C108.944 36.9098 104.766 35.3139 100.474 35.0349C95.8571 34.7336 92.111 35.9426 89.9423 38.435C87.9967 40.6745 87.3866 43.8662 88.1753 47.6718C88.7965 50.6701 90.2361 53.6163 92.8476 57.2322C96.6978 62.5704 103.052 69.0729 111.444 69.7016C111.615 69.7165 112.117 69.7463 112.824 69.7463L112.809 69.7611H112.813Z" fill="#1F1C1D"/>
<path d="M98.1226 75.8284V87.6283C98.1226 87.6283 100.89 94.1308 108.613 92.1629C116.339 90.1951 117.284 84.6448 117.284 84.6448L116.935 62.7861C116.935 62.7861 111.154 59.7878 112.698 47.296C112.698 47.296 104.134 51.6596 92.5984 50.3353C92.5984 50.3353 90.2362 63.9951 91.0658 70.0103C91.8656 75.8359 98.0147 75.728 98.1263 75.8135V75.8284H98.1226Z" fill="white"/>
<path d="M105.838 92.8102C100.098 92.8102 97.8917 87.7957 97.8657 87.7399C97.8508 87.7064 97.8434 87.6692 97.8434 87.632V76.0628C93.77 75.6871 91.2664 73.5518 90.7865 70.0475C89.9607 64.0621 92.2262 50.8486 92.3229 50.2869C92.3489 50.1418 92.4828 50.0414 92.6316 50.0563C103.944 51.3583 112.489 47.0914 112.575 47.0468C112.668 46.9984 112.775 47.0096 112.861 47.0654C112.947 47.1249 112.991 47.2253 112.976 47.3295C111.477 59.4865 117.009 62.5071 117.068 62.5369C117.158 62.5852 117.217 62.6782 117.217 62.7787L117.567 84.6374C117.567 84.6374 117.567 84.6709 117.563 84.6895C117.552 84.7453 116.495 90.4406 108.687 92.4308C107.657 92.6949 106.708 92.8065 105.841 92.8065L105.838 92.8102ZM98.4014 87.5725C98.6915 88.2049 101.422 93.7067 108.546 91.8951C115.74 90.0611 116.927 85.0094 117.005 84.6262L116.659 62.9535C115.74 62.3843 111.127 58.9396 112.363 47.7647C110.436 48.6241 102.691 51.7079 92.8288 50.644C92.5126 52.5561 90.5894 64.5234 91.3408 69.9732C91.7909 73.2505 94.0713 75.1626 97.9364 75.5122C98.1596 75.5308 98.2191 75.5383 98.2972 75.5978C98.3642 75.6499 98.4051 75.7317 98.4051 75.8173V87.5762L98.4014 87.5725Z" fill="#1F1C1D"/>
<path d="M112.396 62.4699C112.645 61.4097 113.248 60.4388 114.078 59.7432C114.859 59.0922 115.822 58.6979 116.775 58.3482C117.303 58.1547 117.853 57.9762 118.4 58.032C118.795 58.0692 119.159 58.2329 119.509 58.4189C120.324 58.8615 121.075 59.4977 121.399 60.357C121.663 61.0526 121.614 61.8301 121.521 62.5667C121.421 63.3739 121.265 64.1774 120.956 64.9289C120.335 66.4243 119.103 67.6556 117.601 68.2694C116.098 68.8832 114.353 68.8646 112.865 68.2248" fill="white"/>
<path d="M115.29 68.9948C114.424 68.9948 113.561 68.82 112.757 68.4741C112.616 68.4145 112.552 68.2471 112.612 68.1058C112.672 67.9644 112.835 67.8974 112.98 67.9607C114.405 68.5782 116.053 68.5931 117.5 68.0053C118.94 67.4213 120.104 66.2569 120.703 64.8173C120.96 64.1923 121.131 63.4855 121.25 62.5258C121.339 61.8301 121.387 61.0973 121.142 60.45C120.815 59.5832 120.004 58.9992 119.379 58.6607C119.089 58.5044 118.739 58.3408 118.378 58.3073C117.88 58.2552 117.362 58.43 116.875 58.6086C116.016 58.9211 115.034 59.3117 114.26 59.9552C113.468 60.6211 112.906 61.5362 112.672 62.5332C112.638 62.682 112.486 62.775 112.337 62.7415C112.188 62.708 112.095 62.5555 112.128 62.4067C112.389 61.2944 113.017 60.2714 113.903 59.5312C114.747 58.8281 115.781 58.4189 116.682 58.0878C117.229 57.8869 117.82 57.6935 118.434 57.753C118.895 57.7976 119.304 57.9911 119.647 58.1734C120.662 58.7239 121.358 59.4456 121.666 60.2566C121.953 61.0154 121.905 61.8301 121.808 62.6002C121.681 63.6083 121.503 64.3597 121.224 65.0331C120.569 66.6103 119.289 67.8826 117.716 68.5261C116.946 68.8386 116.12 68.9986 115.298 68.9986L115.29 68.9948Z" fill="#1F1C1D"/>
<path d="M98.5727 58.2106C98.5727 58.2106 94.3728 64.1775 95.3103 65.2451C96.2477 66.3239 98.967 65.6878 98.967 65.6878" fill="white"/>
<path d="M97.3077 66.1491C96.4967 66.1491 95.5965 65.9965 95.1018 65.4274C94.0974 64.2816 97.33 59.4902 98.3456 58.0469C98.4349 57.9204 98.6097 57.8907 98.7325 57.9799C98.859 58.0692 98.8887 58.244 98.7994 58.3668C96.839 61.1494 95.0311 64.5011 95.5184 65.0591C96.1991 65.8366 98.1931 65.5799 98.9036 65.4125C99.0524 65.379 99.2049 65.472 99.2384 65.6208C99.2719 65.7696 99.1789 65.9221 99.0301 65.9556C98.9668 65.9705 98.1893 66.1491 97.3077 66.1491Z" fill="#1F1C1D"/>
<path d="M102.416 60.4963C102.967 60.4623 103.376 59.8047 103.328 59.0275C103.28 58.2503 102.794 57.6479 102.242 57.6819C101.691 57.7159 101.282 58.3736 101.33 59.1507C101.378 59.9279 101.864 60.5304 102.416 60.4963Z" fill="#1F1C1D"/>
<path d="M94.2896 58.7955C94.3442 58.0188 93.9415 57.3577 93.3902 57.319C92.8389 57.2802 92.3478 57.8785 92.2932 58.6552C92.2386 59.432 92.6413 60.0931 93.1926 60.1318C93.7439 60.1705 94.235 59.5723 94.2896 58.7955Z" fill="#1F1C1D"/>
<path d="M90.8239 64.6201C87.766 64.6201 85.0467 62.4216 84.5036 59.308C83.8935 55.8261 86.2297 52.4967 89.7116 51.8866C90.0836 51.8233 90.4556 51.7936 90.8201 51.7936H90.8276C93.9524 51.7936 96.6085 54.0256 97.1441 57.102C97.438 58.7872 97.0586 60.4872 96.0728 61.8897C95.087 63.2921 93.6139 64.2295 91.925 64.5234C91.5567 64.5867 91.1884 64.6201 90.8239 64.6201ZM90.8164 52.3553C90.4816 52.3553 90.1431 52.3851 89.8046 52.4409C86.6277 52.9989 84.4924 56.0381 85.0504 59.215C85.6084 62.3919 88.6439 64.5271 91.8283 63.9766C93.3683 63.705 94.7113 62.8531 95.6115 61.5697C96.5117 60.2901 96.8577 58.7351 96.5899 57.1987C96.1025 54.3901 93.6771 52.3516 90.8239 52.3516H90.8164V52.3553Z" fill="#1F1C1D"/>
<path d="M105.421 64.6201C104.045 64.6201 102.713 64.2034 101.575 63.4074C100.109 62.3769 99.1344 60.8406 98.8256 59.081C98.5169 57.3177 98.9149 55.5396 99.9416 54.0776C100.972 52.6119 102.508 51.6373 104.268 51.3285C104.688 51.2578 105.079 51.2244 105.44 51.2244C106.809 51.2244 108.137 51.6484 109.271 52.4445C110.737 53.4712 111.715 55.0076 112.02 56.7709C112.329 58.5342 111.931 60.3123 110.904 61.7743C109.874 63.24 108.338 64.2146 106.578 64.5234C106.191 64.5903 105.804 64.6201 105.421 64.6201ZM105.436 51.7786C105.109 51.7786 104.748 51.8121 104.361 51.8754C102.75 52.1581 101.34 53.0509 100.399 54.3938C99.458 55.7367 99.0935 57.3661 99.3762 58.9806C99.6589 60.595 100.552 62.0012 101.895 62.9461C103.226 63.8835 104.856 64.2444 106.485 63.9691C108.096 63.6864 109.506 62.7936 110.447 61.4506C111.388 60.1077 111.753 58.4784 111.47 56.8639C111.187 55.2494 110.294 53.8432 108.951 52.8984C107.91 52.1655 106.693 51.7786 105.44 51.7786H105.436Z" fill="#1F1C1D"/>
<path d="M98.1226 75.8286C98.1226 75.8286 105.47 77.5249 109.8 75.0548C109.8 75.0548 105.012 84.95 98.1226 83.9196V75.8286Z" fill="#1F1C1D"/>
<path d="M106.124 68.6527C106.124 68.6527 101.988 73.4515 96.5266 71.1339Z" fill="white"/>
<path d="M99.5213 72.0416C98.5503 72.0416 97.5125 71.8556 96.4225 71.3943C96.2811 71.3348 96.2142 71.1711 96.2737 71.0297C96.3332 70.8884 96.4969 70.8214 96.6383 70.8809C101.843 73.0906 105.875 68.5187 105.916 68.4741C106.016 68.3588 106.195 68.3439 106.31 68.4443C106.426 68.5448 106.44 68.7196 106.34 68.8387C106.307 68.8796 103.52 72.0453 99.525 72.0453L99.5213 72.0416Z" fill="#1F1C1D"/>
<path d="M60.9038 91.9734L66.5247 120.829L51.8568 122.396L46.1726 93.4093L60.9038 91.9734Z" fill="white"/>
<path d="M51.8568 122.675C51.7266 122.675 51.6076 122.582 51.5815 122.448L45.8974 93.4614C45.8825 93.3833 45.8974 93.3051 45.9457 93.2419C45.9941 93.1787 46.0648 93.1377 46.1429 93.1303L60.8741 91.6944C61.0155 91.6795 61.1457 91.7762 61.1754 91.9176L66.7963 120.77C66.8112 120.848 66.7963 120.926 66.748 120.989C66.6996 121.053 66.6327 121.094 66.5545 121.101L51.8903 122.671C51.8903 122.671 51.8717 122.671 51.8605 122.671L51.8568 122.675ZM46.5037 93.6585L52.08 122.091L66.19 120.58L60.6769 92.2747L46.5037 93.6548V93.6585Z" fill="#1F1C1D"/>
<path d="M58.9658 93.5918L64.5867 122.444L49.9188 124.014L44.2346 95.0277L58.9658 93.5918Z" fill="white"/>
<path d="M49.9188 124.293C49.7886 124.293 49.6696 124.2 49.6435 124.066L43.9594 95.0795C43.9445 95.0014 43.9594 94.9233 44.0077 94.8601C44.0561 94.7968 44.1268 94.7559 44.2049 94.7485L58.9361 93.3125C59.0812 93.2977 59.2114 93.3944 59.2374 93.5357L64.8583 122.388C64.8732 122.466 64.8583 122.544 64.81 122.608C64.7616 122.671 64.6947 122.712 64.6165 122.719L49.9523 124.289C49.9523 124.289 49.9337 124.289 49.9225 124.289L49.9188 124.293ZM44.5657 95.273L50.142 123.705L64.252 122.195L58.7389 93.8891L44.5657 95.2693V95.273Z" fill="#1F1C1D"/>
<path d="M44.2346 95.0275L46.1727 93.4093L60.9039 91.9734L58.9658 93.5916L44.2346 95.0275Z" fill="white"/>
<path d="M44.2348 95.3064C44.1232 95.3064 44.0227 95.2394 43.9781 95.1353C43.9297 95.0237 43.9632 94.8935 44.0562 94.8116L45.9943 93.1971C46.039 93.1599 46.0911 93.1376 46.1469 93.1339L60.8781 91.698C61.012 91.6868 61.1161 91.7538 61.1645 91.8691C61.2129 91.9807 61.1794 92.1109 61.0864 92.1927L59.1483 93.8072C59.1036 93.8444 59.0515 93.8667 58.9957 93.8705L44.2645 95.3064C44.2645 95.3064 44.2459 95.3064 44.2385 95.3064H44.2348ZM46.2845 93.6807L45.109 94.6628L58.8544 93.3236L60.0299 92.3415L46.2845 93.6807Z" fill="#1F1C1D"/>
<path d="M64.5867 122.444L66.5249 120.83L60.9039 91.9735L58.9658 93.5917L64.5867 122.444Z" fill="white"/>
<path d="M64.5867 122.723C64.5569 122.723 64.5235 122.719 64.4937 122.708C64.4007 122.675 64.3338 122.596 64.3114 122.5L58.6905 93.6474C58.6719 93.547 58.7091 93.4465 58.7872 93.3796L60.7254 91.7651C60.7998 91.7018 60.9039 91.6832 60.9969 91.7167C61.0899 91.7502 61.1569 91.8283 61.1792 91.925L66.8001 120.777C66.8187 120.878 66.7815 120.978 66.7034 121.045L64.7653 122.66C64.7132 122.701 64.6499 122.723 64.5867 122.723ZM59.2708 93.6995L64.769 121.927L66.2161 120.718L60.7179 92.4905L59.2708 93.6995Z" fill="#1F1C1D"/>
<path d="M44.1564 111.12C44.1564 111.12 43.8402 108.282 46.8199 106.437C49.7996 104.592 54.2041 101.608 54.9109 102.888C55.6214 104.164 49.8777 107.571 49.8777 107.571C49.8777 107.571 57.1131 102.672 58.2105 104.625C59.3079 106.578 50.7891 110.555 50.7891 110.555C50.7891 110.555 56.6109 106.556 57.4628 108.553C58.3147 110.551 51.7191 113.534 51.7191 113.534C51.7191 113.534 56.3282 111.548 57.1801 112.824C58.032 114.1 54.2115 115.833 51.574 117.113C48.9366 118.393 49.2118 120.435 49.2118 120.435L49.9149 124.014L56.3431 123.326C56.3431 123.326 58.962 128.299 60.4909 131.245C61.7222 133.619 67.2092 141.126 66.8037 145.527C66.3982 149.927 58.0208 154.328 52.4371 148.034C46.6339 141.494 43.5649 116.801 44.1526 111.12H44.1564Z" fill="white"/>
<path d="M58.9954 151.449C57.0238 151.449 54.5128 150.79 52.2324 148.216C46.3586 141.594 43.2784 117.065 43.8773 111.117C43.8476 110.771 43.7174 108.029 46.6748 106.195C47.0058 105.99 47.3555 105.771 47.7164 105.544C50.3538 103.889 53.3447 102.01 54.6058 102.337C54.8513 102.401 55.041 102.542 55.1564 102.75C55.454 103.282 54.9852 104.022 54.2152 104.778C55.547 104.168 56.8638 103.74 57.686 103.933C58.0394 104.015 58.2998 104.201 58.456 104.484C58.6085 104.755 58.6308 105.06 58.523 105.391C58.2923 106.109 57.407 106.931 56.317 107.713C56.5514 107.702 56.7708 107.72 56.9606 107.776C57.3177 107.88 57.5781 108.107 57.7194 108.438C58.2551 109.692 56.4695 111.161 54.7174 112.247C56.7225 111.86 57.2916 112.489 57.4107 112.664C57.5744 112.91 57.619 113.189 57.5409 113.475C57.2061 114.703 54.5426 115.986 52.1915 117.117L51.693 117.359C49.2862 118.527 49.4759 120.316 49.4834 120.394L50.1344 123.705L56.3058 123.047C56.4212 123.035 56.529 123.091 56.5811 123.195C56.5811 123.195 59.2 128.169 60.7289 131.115C60.9893 131.614 61.4543 132.373 61.9974 133.247C64.0174 136.52 67.3989 141.996 67.0715 145.549C66.8632 147.811 64.7093 150.05 61.83 150.995C61.1976 151.203 60.1895 151.449 58.9842 151.449H58.9954ZM54.2524 102.854C53.0508 102.854 50.1604 104.67 48.014 106.02C47.6531 106.247 47.2997 106.466 46.9686 106.675C44.1824 108.401 44.4242 110.983 44.4353 111.094C44.4353 111.113 44.4353 111.135 44.4353 111.154C43.8476 116.823 46.9761 141.457 52.6491 147.852C56.1087 151.75 60.1077 150.98 61.6701 150.467C64.3001 149.604 66.3424 147.517 66.5284 145.5C66.8372 142.134 63.5189 136.755 61.5362 133.541C60.967 132.618 60.5169 131.889 60.249 131.372C58.8875 128.749 56.6592 124.512 56.1905 123.623L49.9521 124.289C49.807 124.3 49.6768 124.207 49.647 124.066L48.944 120.487C48.9291 120.379 48.6761 118.211 51.4587 116.86L51.9572 116.618C53.9771 115.644 56.7411 114.312 57.0089 113.33C57.0461 113.2 57.0275 113.088 56.9531 112.977C56.4546 112.229 53.6609 113.003 51.8344 113.787C51.693 113.847 51.5294 113.787 51.4698 113.642C51.4066 113.501 51.4698 113.337 51.6112 113.274C54.0664 112.166 57.7566 109.93 57.2135 108.658C57.1391 108.479 57.0089 108.371 56.8118 108.312C56.3802 108.185 55.7255 108.323 55.0001 108.591C53.0769 109.785 51.0681 110.73 50.9156 110.8C50.7854 110.864 50.6291 110.811 50.5547 110.685C50.484 110.558 50.5212 110.399 50.6403 110.317C50.9528 110.101 52.9541 108.751 54.762 108.081C56.3282 107.106 57.738 106.031 57.9984 105.217C58.058 105.034 58.0505 104.885 57.9761 104.752C57.8943 104.606 57.7604 104.513 57.5632 104.469C56.3765 104.19 53.6349 105.592 51.6744 106.76C51.0086 107.207 50.4059 107.575 50.0265 107.802C49.8963 107.88 49.7289 107.839 49.647 107.713C49.5652 107.586 49.6024 107.415 49.7252 107.333C49.7996 107.281 50.4059 106.876 51.269 106.355C53.3075 104.978 54.9443 103.517 54.669 103.014C54.643 102.966 54.5946 102.903 54.4682 102.869C54.4049 102.854 54.3342 102.847 54.2524 102.847V102.854Z" fill="#1F1C1D"/>
<path d="M84.6822 123.139C88.8002 121.834 113.65 143.093 119.844 144.846C126.037 146.598 128.102 136.215 127.414 131.989C126.726 127.763 88.3799 111.886 88.3799 111.886C85.1472 109.595 82.4316 109.617 79.7643 109.669C76.3159 109.736 71.7924 110.577 68.8052 111.135C63.508 112.124 65.5428 114.085 67.4921 113.914C70.9256 113.612 75.5756 113.281 75.5756 113.281C75.5756 113.281 73.1688 113.97 72.5922 115.461C72.0193 116.953 73.6226 120.967 74.7721 123.258C75.9216 125.55 79.3589 125.896 81.6541 126.011C83.9493 126.127 85.4373 124.017 82.6845 123.515C80.3112 123.084 79.6453 122.912 79.6453 122.912C79.6453 122.912 82.3163 123.891 84.6785 123.143L84.6822 123.139Z" fill="white"/>
<path d="M121.201 145.322C120.74 145.322 120.26 145.251 119.765 145.113C116.975 144.325 110.614 139.753 103.881 134.913C95.9314 129.199 86.9179 122.723 84.764 123.407C84.459 123.504 84.1465 123.575 83.8377 123.619C84.4366 123.988 84.4701 124.46 84.4441 124.698C84.3474 125.528 83.1942 126.361 81.6355 126.283C78.931 126.149 75.6798 125.695 74.5191 123.377C73.4106 121.164 71.7031 116.979 72.328 115.353C72.6145 114.606 73.299 114.051 73.9574 113.672C72.2908 113.795 69.6496 113.996 67.5069 114.185C66.4765 114.275 65.2563 113.806 65.1447 112.984C65.0554 112.337 65.6097 111.44 68.7457 110.856C71.7403 110.298 76.2638 109.454 79.7494 109.387C82.2902 109.338 85.1695 109.282 88.5063 111.637C92.5834 113.326 126.986 127.696 127.678 131.941C127.946 133.596 127.793 135.985 127.276 138.179C126.659 140.806 125.584 142.907 124.248 144.098C123.333 144.913 122.31 145.322 121.19 145.322H121.201ZM85.0839 122.805C88.0041 122.805 95.8905 128.474 104.212 134.456C110.904 139.266 117.225 143.811 119.922 144.574C121.417 144.998 122.753 144.697 123.891 143.681C126.633 141.233 127.648 135.148 127.139 132.03C126.595 128.69 98.9 116.54 88.2757 112.139C88.2571 112.132 88.2385 112.121 88.2199 112.11C85.0207 109.84 82.3534 109.892 79.7718 109.941C76.3345 110.008 71.837 110.845 68.861 111.403C66.2756 111.886 65.6655 112.575 65.7102 112.906C65.7622 113.296 66.5844 113.705 67.4734 113.627C70.8698 113.326 75.5161 112.999 75.5644 112.995C75.7058 112.988 75.8323 113.084 75.8583 113.226C75.8844 113.367 75.7988 113.505 75.6612 113.542C75.6388 113.549 73.3808 114.211 72.8637 115.554C72.4024 116.756 73.604 120.275 75.0325 123.128C76.0629 125.189 79.1245 125.598 81.6764 125.729C82.9598 125.792 83.8452 125.122 83.901 124.635C83.9456 124.255 83.4769 123.939 82.6436 123.787C82.4353 123.749 82.2418 123.712 82.0596 123.679C80.6869 123.578 79.6267 123.199 79.556 123.173C79.4146 123.121 79.3402 122.972 79.3849 122.831C79.4295 122.689 79.5746 122.607 79.7197 122.641C79.7271 122.641 80.2851 122.782 82.093 123.117C82.8742 123.177 83.7633 123.139 84.604 122.875C84.7454 122.831 84.9091 122.808 85.0876 122.808L85.0839 122.805Z" fill="#1F1C1D"/>
<path d="M77.5287 115.339C77.5287 115.339 73.3176 116.522 72.8154 118.281Z" fill="white"/>
<path d="M72.8153 118.564C72.7893 118.564 72.7632 118.564 72.7372 118.553C72.5884 118.512 72.5028 118.355 72.5475 118.207C73.0906 116.321 77.2756 115.123 77.4542 115.071C77.6067 115.03 77.7555 115.115 77.7964 115.264C77.8373 115.413 77.7518 115.565 77.603 115.61C76.4721 115.926 73.4589 117.042 73.0832 118.363C73.0497 118.486 72.9381 118.564 72.8153 118.564Z" fill="#1F1C1D"/>
<path d="M75.5754 113.557C75.4452 113.557 75.3262 113.464 75.3001 113.33C75.2704 113.177 75.3708 113.032 75.5233 113.006L77.0709 112.72C77.2197 112.694 77.3685 112.79 77.3945 112.943C77.4243 113.096 77.3238 113.241 77.1713 113.267L75.6238 113.553C75.6238 113.553 75.5903 113.557 75.5717 113.557H75.5754Z" fill="#1F1C1D"/>
<path d="M78.2167 117.865C78.2167 117.865 74.8687 118.646 73.5332 120.435Z" fill="white"/>
<path d="M73.5296 120.71C73.4701 120.71 73.4143 120.692 73.3622 120.655C73.2394 120.562 73.2134 120.387 73.3064 120.264C74.6865 118.415 78.0085 117.623 78.1498 117.589C78.2986 117.556 78.4511 117.649 78.4846 117.798C78.5181 117.946 78.4251 118.099 78.2763 118.132C78.2428 118.14 75.0101 118.91 73.7528 120.595C73.697 120.669 73.6152 120.707 73.5296 120.707V120.71Z" fill="#1F1C1D"/>
<path d="M79.1914 120.041C79.1914 120.041 75.9476 120.602 74.3889 122.444Z" fill="white"/>
<path d="M74.3853 122.723C74.322 122.723 74.2588 122.7 74.203 122.656C74.084 122.555 74.0728 122.38 74.1695 122.261C75.7766 120.364 79.0018 119.788 79.1394 119.765C79.2882 119.739 79.437 119.84 79.4631 119.992C79.4891 120.145 79.3887 120.29 79.2362 120.316C79.2064 120.323 76.0742 120.881 74.5973 122.622C74.5415 122.689 74.4634 122.723 74.3853 122.723Z" fill="#1F1C1D"/>
<path d="M132.983 127.678C132.938 127.678 132.89 127.667 132.849 127.644C129.341 125.714 126.342 125.055 124.185 125.74C122.466 126.283 121.852 127.499 121.849 127.51C121.782 127.648 121.614 127.708 121.477 127.641C121.339 127.574 121.279 127.406 121.346 127.269C121.376 127.209 122.053 125.836 123.995 125.212C126.339 124.46 129.408 125.115 133.116 127.153C133.25 127.228 133.302 127.399 133.228 127.533C133.176 127.626 133.083 127.678 132.983 127.678Z" fill="#1F1C1D"/>
<path d="M125.137 148.142C121.064 148.142 118.668 146.91 117.325 145.776C115.584 144.31 115.186 142.71 115.167 142.643C115.13 142.495 115.223 142.342 115.372 142.309C115.521 142.271 115.673 142.364 115.71 142.513C115.77 142.759 117.303 148.502 127.421 147.465C127.57 147.45 127.711 147.561 127.726 147.714C127.741 147.866 127.629 148.004 127.477 148.019C126.64 148.104 125.862 148.145 125.137 148.145V148.142Z" fill="#1F1C1D"/>
<path d="M123.969 125.796C123.816 125.796 123.69 125.673 123.69 125.517C123.69 124.769 123.958 124.125 124.493 123.604C126.134 122.012 129.731 122.109 129.887 122.116C130.04 122.12 130.163 122.25 130.155 122.403C130.152 122.555 130.029 122.686 129.869 122.671C129.835 122.671 126.353 122.574 124.884 124.002C124.456 124.419 124.248 124.914 124.252 125.513C124.252 125.665 124.129 125.792 123.973 125.792L123.969 125.796Z" fill="#1F1C1D"/>
<path d="M66.0672 130.985C65.9853 130.985 65.9035 130.948 65.8477 130.877C62.2207 126.272 58.9954 128.02 58.8615 128.095C58.7276 128.169 58.5565 128.124 58.4821 127.99C58.404 127.856 58.4523 127.689 58.5862 127.611C58.6234 127.589 59.5571 127.064 60.9819 127.176C62.2765 127.276 64.2481 127.938 66.2904 130.535C66.3871 130.658 66.3648 130.832 66.2457 130.925C66.1936 130.966 66.1341 130.985 66.0746 130.985H66.0672Z" fill="#1F1C1D"/>
<path d="M64.6426 151.579C62.6189 151.579 60.9821 151.3 60.8519 151.278C60.6994 151.251 60.5989 151.106 60.625 150.954C60.651 150.801 60.7961 150.701 60.9486 150.727C61.0081 150.738 66.949 151.75 70.2077 149.894C70.3416 149.816 70.5127 149.864 70.5871 149.998C70.6652 150.132 70.6169 150.303 70.483 150.377C68.8164 151.326 66.5546 151.575 64.6426 151.575V151.579Z" fill="#1F1C1D"/>
<path d="M45.5401 87.6804H28.7629V90.3886H45.5401V87.6804Z" fill="#D1D3D4"/>
<path d="M42.1029 91.2628H28.7629V93.971H42.1029V91.2628Z" fill="#D1D3D4"/>
<path d="M39.67 95.0275H28.7629V97.7356H39.67V95.0275Z" fill="#D1D3D4"/>
<path d="M59.6762 53.8135H31.4042C29.9534 53.8135 28.7778 54.989 28.7778 56.4398V81.4308C28.7778 82.8816 29.9534 84.0571 31.4042 84.0571H49.4276L52.1171 89.1126L52.7309 84.0571H59.6799C61.1307 84.0571 62.3062 82.8816 62.3062 81.4308V56.4398C62.3062 54.989 61.1307 53.8135 59.6799 53.8135H59.6762Z" fill="#1F1C1D"/>
<path d="M52.85 68.18C52.4482 68.18 52.1209 67.8526 52.1209 67.4509C52.1209 65.4012 51.3211 63.4742 49.874 62.0234C49.5876 61.737 49.5876 61.2757 49.874 60.9892C50.1604 60.7028 50.6217 60.7028 50.9082 60.9892C52.6342 62.7153 53.5828 65.0106 53.5828 67.4509C53.5828 67.8526 53.2555 68.18 52.8537 68.18H52.85Z" fill="white"/>
<path d="M38.2306 68.18C37.8288 68.18 37.5015 67.8526 37.5015 67.4509C37.5015 65.0106 38.4501 62.7153 40.1761 60.9892C40.4626 60.7028 40.9239 60.7028 41.2103 60.9892C41.4967 61.2757 41.4967 61.737 41.2103 62.0234C39.7595 63.4742 38.9634 65.4012 38.9634 67.4509C38.9634 67.8526 38.6361 68.18 38.2343 68.18H38.2306Z" fill="white"/>
<path d="M52.3927 72.5882C51.2879 71.6545 50.6555 70.2893 50.6555 68.8422V66.8036C50.6555 64.2331 48.7434 62.1016 46.2696 61.7444V60.9558C46.2696 60.5503 45.9422 60.2267 45.5405 60.2267C45.1387 60.2267 44.8113 60.554 44.8113 60.9558V61.7444C42.3375 62.1016 40.4255 64.2294 40.4255 66.8036V68.8422C40.4255 70.2893 39.7931 71.6545 38.6808 72.5957C38.3981 72.8375 38.2344 73.1946 38.2344 73.5666C38.2344 74.2734 38.8073 74.8463 39.5141 74.8463H51.5743C52.2811 74.8463 52.854 74.2734 52.854 73.5666C52.854 73.1909 52.6903 72.8375 52.4001 72.5882H52.3927Z" fill="white"/>
<path d="M45.5403 77.7702C46.8647 77.7702 47.9695 76.8253 48.2262 75.5791H42.8545C43.1075 76.829 44.216 77.7702 45.5403 77.7702Z" fill="white"/>
</svg>
