<svg width="142" height="142" viewBox="0 0 142 142" fill="none" xmlns="http://www.w3.org/2000/svg">
<path d="M33.2847 117.519C39.4959 117.519 44.5311 116.604 44.5311 115.474C44.5311 114.345 39.4959 113.43 33.2847 113.43C27.0735 113.43 22.0383 114.345 22.0383 115.474C22.0383 116.604 27.0735 117.519 33.2847 117.519Z" fill="#D1D3D4"/>
<path d="M109.397 117.519C115.608 117.519 120.643 116.604 120.643 115.474C120.643 114.345 115.608 113.43 109.397 113.43C103.186 113.43 98.1504 114.345 98.1504 115.474C98.1504 116.604 103.186 117.519 109.397 117.519Z" fill="#D1D3D4"/>
<path d="M43.5655 39.1352C43.4519 39.1352 43.3667 39.05 43.3667 38.9364C43.3667 38.8512 43.4519 38.766 43.5371 38.7376C45.0707 38.5672 46.6327 38.4536 48.1663 38.4536C48.2799 38.4536 48.3651 38.5388 48.3651 38.6524C48.3651 38.766 48.2799 38.8512 48.1663 38.8512C46.6327 38.8512 45.0991 38.9364 43.5655 39.1352Z" fill="#D1D3D4"/>
<path d="M19.8801 41.0379C19.8801 41.0379 18.9145 38.5387 18.9429 37.9423C18.9713 37.3459 19.5393 34.9887 18.9997 34.7331C18.6589 34.5627 18.2897 34.5343 17.9205 34.5627C17.9205 34.5627 16.4437 30.3311 16.0177 30.3595C15.5917 30.3879 16.2733 32.8871 16.6993 34.1935C16.6993 34.1935 13.8593 35.1875 14.1717 35.9543C14.3989 36.5507 16.7845 41.3503 17.7217 42.8839" fill="white"/>
<path d="M17.6648 43.0828C17.608 43.0828 17.5228 43.0544 17.4944 42.9976C16.5572 41.4356 14.2 36.6076 13.9444 36.0396C13.8876 35.8976 13.8876 35.7272 13.9728 35.5852C14.2568 34.932 15.8472 34.2788 16.4152 34.08C16.0176 32.7736 15.4496 30.7288 15.7336 30.3028C15.7904 30.2176 15.8756 30.1608 15.9608 30.1608C16.1028 30.1608 16.5288 30.104 18.0056 34.3356C18.3748 34.3072 18.7156 34.3924 19.0564 34.5344C19.5676 34.79 19.4256 35.8692 19.2268 37.2324C19.17 37.5164 19.1416 37.772 19.1416 37.914C19.1132 38.34 19.6812 39.9588 20.0788 40.9244C20.1072 41.038 20.0504 41.1516 19.9368 41.18C19.8516 41.2084 19.738 41.1516 19.7096 41.0664C19.596 40.8108 18.7156 38.5104 18.744 37.8856C18.744 37.7152 18.8008 37.488 18.8292 37.1472C18.9144 36.6076 19.17 34.9888 18.886 34.8468C18.5736 34.7048 18.2612 34.648 17.9204 34.7048C17.8352 34.7332 17.7216 34.6764 17.6932 34.5912C17.0968 32.9156 16.3868 31.1264 16.046 30.6152C16.046 31.0696 16.3016 32.3476 16.8412 34.08C16.8696 34.1936 16.8128 34.2788 16.7276 34.3356C15.904 34.6196 14.5408 35.2444 14.342 35.6988C14.3136 35.7272 14.3136 35.784 14.342 35.8408C14.5692 36.4372 16.9264 41.2084 17.8636 42.742C17.9204 42.8272 17.892 42.9408 17.8068 43.026C17.8068 43.026 17.8068 43.026 17.7784 43.026C17.75 43.0828 17.7216 43.0828 17.6648 43.0828Z" fill="#231F20"/>
<path d="M16.5288 38.1981C16.4436 38.1981 16.3584 38.1413 16.33 38.0561C16.1596 37.3461 16.5856 36.6361 16.9832 36.1249C16.4436 36.2669 15.904 36.2953 15.336 36.1817C15.0804 36.0965 15.052 35.9545 15.052 35.8693C15.052 35.5001 15.9608 35.0173 17.8068 34.3641C17.9204 34.3357 18.034 34.3925 18.0624 34.4777C18.0908 34.5913 18.034 34.7049 17.9488 34.7333C16.9548 35.0741 15.8188 35.5569 15.5064 35.8125C16.33 36.0113 17.5512 35.5285 17.5512 35.5285C17.6364 35.5001 17.75 35.5285 17.8068 35.6137C17.8636 35.6989 17.8352 35.8125 17.7784 35.8693C17.7784 35.8693 16.472 37.0337 16.6992 37.9709C16.7276 38.0845 16.6708 38.1697 16.5572 38.1981C16.5572 38.1981 16.5572 38.1981 16.5288 38.1981Z" fill="#231F20"/>
<path d="M49.1321 84.9727C49.3593 85.0011 51.2905 85.6543 53.4205 85.7679C53.4205 85.7679 49.6433 92.6123 48.8765 99.7123L51.5745 101.672C51.5745 101.672 61.1453 87.0175 60.7761 84.8591C60.4069 82.7007 52.9661 79.3779 52.9661 79.3779L49.1321 84.9727Z" fill="white"/>
<path d="M51.5745 101.871C51.5461 101.871 51.4893 101.871 51.4609 101.842L48.7629 99.9111C48.7061 99.8827 48.6777 99.7975 48.6777 99.7407C49.3593 93.4927 52.3981 87.3583 53.1081 85.9951C51.8869 85.8815 50.6941 85.6543 49.5297 85.3135C49.3877 85.2851 49.2741 85.2283 49.1321 85.1999C49.0753 85.1999 48.9901 85.1431 48.9617 85.0863C48.9333 85.0295 48.9333 84.9443 48.9901 84.8875L52.8241 79.2643C52.8809 79.1791 52.9945 79.1507 53.0797 79.2075C53.3921 79.3495 60.6057 82.5871 61.0033 84.8307C61.4009 87.0743 52.1709 101.189 51.7733 101.786C51.7449 101.842 51.6881 101.871 51.6313 101.871H51.5745ZM49.0753 99.6271L51.5177 101.388C54.2441 97.2131 60.8613 86.5915 60.5773 84.8875C60.2933 83.1835 55.1813 80.5991 53.0513 79.6335L49.4729 84.8591L49.6433 84.8875C50.8929 85.2567 52.1709 85.4839 53.4489 85.5691C53.5057 85.5691 53.5909 85.5975 53.6193 85.6827C53.6477 85.7395 53.6477 85.8247 53.6193 85.8815C53.5341 85.9383 49.8705 92.6975 49.0753 99.6271Z" fill="#231F20"/>
<path d="M35.3013 91.3912L34.8469 92.584C34.8469 92.584 28.1161 94.4584 22.0385 95.566C22.0385 95.566 20.8173 97.2984 21.8397 98.832C21.8397 98.832 34.7049 99.0024 37.1757 98.1504C39.6465 97.2984 41.5777 93.9472 41.2653 91.306L35.3013 91.3912Z" fill="white"/>
<path d="M24.3672 99.0309C22.9756 99.0309 21.9816 99.0309 21.8396 99.0309C21.7828 99.0309 21.726 99.0025 21.6692 98.9457C20.5616 97.3269 21.8112 95.5377 21.868 95.4525C21.8964 95.4241 21.9532 95.3673 21.9816 95.3673C27.5764 94.3449 33.8244 92.6409 34.6764 92.4137L35.074 91.3345C35.1024 91.2493 35.1876 91.1925 35.2444 91.1925L41.2368 91.0789C41.3504 91.0789 41.4072 91.1641 41.4356 91.2493C41.748 94.0325 39.6748 97.4689 37.204 98.3209C35.4432 98.9457 28.258 99.0309 24.3672 99.0309ZM21.9532 98.6333C23.2028 98.6333 34.8468 98.7469 37.1188 97.9517C39.3908 97.1565 41.2936 94.0609 41.0948 91.4765L35.4148 91.5901L35.0172 92.6409C34.9888 92.6977 34.932 92.7545 34.8752 92.7545C34.8184 92.7829 28.116 94.6289 22.152 95.7365C21.9816 96.0489 21.2148 97.4121 21.9532 98.6333Z" fill="#231F20"/>
<path d="M48.8765 99.7124C48.8765 99.7124 47.3429 102.013 47.2577 102.723C47.1725 103.433 53.6193 109.226 53.9317 108.318C54.2441 107.409 51.5745 101.672 51.5745 101.672L48.8765 99.7124Z" fill="#231F20"/>
<path d="M53.7612 108.602C53.7044 108.602 53.676 108.602 53.6192 108.573C52.3128 108.289 47.002 103.518 47.0872 102.723C47.1724 101.984 48.564 99.8544 48.7344 99.6272C48.7628 99.5988 48.7912 99.5704 48.848 99.542C48.9048 99.542 48.9332 99.542 48.99 99.5704L51.688 101.53C51.7164 101.558 51.7448 101.558 51.7448 101.587C52.0288 102.183 54.4144 107.409 54.102 108.374C54.0452 108.516 53.9032 108.602 53.7612 108.602ZM48.9048 99.968C48.422 100.678 47.4564 102.24 47.3996 102.751C47.428 103.234 50.6656 106.33 52.682 107.721C53.5624 108.318 53.7328 108.261 53.7612 108.261C53.96 107.664 52.4264 104.001 51.4324 101.786L48.9048 99.968Z" fill="#231F20"/>
<path d="M22.0668 95.566C22.0668 95.566 18.3464 95.8784 18.034 95.7932C17.7216 95.708 17.9488 104.285 18.5168 104.313C19.028 104.342 21.868 98.832 21.868 98.832L22.0668 95.566Z" fill="#231F20"/>
<path d="M18.4885 104.484C18.3181 104.484 18.2329 104.285 18.2045 104.228C17.7785 103.206 17.4945 96.1056 17.8637 95.6796C17.9205 95.6228 17.9773 95.5944 18.0625 95.6228C18.2897 95.6796 20.6469 95.5092 22.0669 95.3956C22.1237 95.3956 22.1805 95.3956 22.2089 95.4524C22.2373 95.4808 22.2657 95.5376 22.2657 95.5944L22.0385 98.832C22.0385 98.8604 22.0385 98.8888 22.0101 98.8888C20.9593 100.99 19.0849 104.484 18.4885 104.484ZM18.0909 95.9636C17.7785 97.0428 18.2329 103.433 18.5169 104.114C18.9145 103.83 20.4197 101.246 21.6693 98.7752L21.8397 95.7648C21.0161 95.8216 18.7441 95.992 18.0909 95.9636Z" fill="#231F20"/>
<path d="M59.555 69.9208C59.555 69.9208 63.6446 71.7384 64.9794 73.414C66.2858 75.0896 67.0242 76.8504 66.229 76.7936C65.4338 76.7368 63.3038 74.55 63.3038 74.55C63.3038 74.55 64.6954 77.3616 63.7014 76.8788C62.7074 76.396 62.4518 74.5784 62.1678 74.266C61.8838 73.9536 58.845 72.3916 58.845 72.3916" fill="white"/>
<path d="M63.9002 77.1344C63.7866 77.1344 63.7014 77.106 63.6162 77.0492C62.8778 76.68 62.537 75.7144 62.2814 75.0044C62.2246 74.8056 62.1394 74.5784 62.0258 74.408C61.827 74.2092 59.9242 73.1584 58.7314 72.562C58.6462 72.5052 58.5894 72.3916 58.6462 72.3064C58.703 72.2212 58.8166 72.1644 58.9018 72.2212C59.413 72.4768 61.9974 73.8116 62.2814 74.1524C62.4234 74.3796 62.5654 74.6352 62.6222 74.8908C62.8494 75.544 63.1618 76.4244 63.7582 76.7084L63.815 76.7368C63.8434 76.4812 63.531 75.5724 63.0766 74.6352C63.0198 74.55 63.0482 74.408 63.1618 74.3512C63.247 74.2944 63.3606 74.3228 63.4174 74.408C64.2126 75.2316 65.6894 76.5664 66.2006 76.5948C66.2858 76.5948 66.2858 76.5664 66.2858 76.5664C66.4278 76.3108 65.9734 75.0612 64.7806 73.5276C63.5026 71.9088 59.4698 70.1196 59.4414 70.0912C59.3278 70.0344 59.2994 69.9208 59.3278 69.8356C59.3846 69.722 59.4982 69.6936 59.5834 69.722C59.7538 69.8072 63.7582 71.568 65.093 73.272C66.0586 74.5216 66.9674 76.1404 66.655 76.7368C66.5698 76.9072 66.371 76.9924 66.2006 76.9924C65.661 76.964 64.6102 76.0836 63.9002 75.4304C64.1842 76.1404 64.3546 76.822 64.1274 77.0492C64.0706 77.106 63.9854 77.1628 63.9002 77.1344Z" fill="#231F20"/>
<path d="M32.4045 75.4588L33.2565 92.5556C33.2565 92.5556 40.3565 92.4136 42.7137 90.9652L42.9409 81.9056C42.9409 81.9056 49.4729 86.4212 51.5177 87.0744C51.5177 87.0744 56.0333 82.1044 56.7149 79.8608L45.3265 71.71L32.4045 75.4588Z" fill="#231F20"/>
<path d="M33.228 92.726C33.1428 92.726 33.0576 92.6408 33.0576 92.5556L32.2056 75.4588C32.2056 75.3736 32.2624 75.3168 32.3192 75.2884L45.2696 71.5396C45.3264 71.5112 45.3832 71.5396 45.4116 71.568L56.8 79.7188C56.8568 79.7756 56.8852 79.8324 56.8568 79.9176C56.1468 82.1612 51.8016 86.9892 51.6312 87.188C51.5744 87.2448 51.5176 87.2448 51.4608 87.2448C49.6148 86.6484 44.3608 83.0984 43.0828 82.2464L42.884 90.9936C42.884 91.0504 42.8556 91.1072 42.7988 91.1356C40.4132 92.5556 33.5404 92.726 33.228 92.726ZM32.5748 75.6008L33.3984 92.3852C34.4776 92.3568 40.3564 92.1012 42.5148 90.8516L42.742 81.8772C42.742 81.792 42.8272 81.7068 42.9124 81.7068C42.9408 81.7068 42.9976 81.7068 43.026 81.7352C43.0828 81.7636 49.3308 86.0804 51.4608 86.8472C52.0572 86.194 55.7776 81.9908 56.516 79.9176L45.3264 71.8804L32.5748 75.6008Z" fill="#231F20"/>
<path d="M39.6465 55.4651C39.6465 55.4651 35.1025 55.6071 32.8021 54.2723C30.5017 52.9375 20.3913 39.4475 20.3913 39.4475L15.9609 41.8899L29.5077 64.3827C29.5077 64.3827 32.0637 71.4259 31.8933 76.4811C31.8933 76.4811 42.6853 76.1403 47.8541 73.1015L45.7525 65.1211C45.7525 65.1211 49.6433 69.4663 52.3413 70.5171C55.0393 71.5679 61.0317 73.6979 61.0317 73.6979L61.4577 69.6083C61.4577 69.6083 49.9841 63.2467 47.1441 57.5667C45.1561 53.5339 39.6465 55.4651 39.6465 55.4651Z" fill="black"/>
<path d="M41.2653 50.6656C41.5493 49.7568 41.4641 48.6492 40.8393 47.9392C40.4701 47.5416 39.9305 47.2008 39.8737 46.6612C39.8737 46.434 39.9021 46.2068 39.9305 45.9796C40.0157 44.8436 38.7661 43.8496 37.6869 44.1904C37.3461 44.304 37.0337 44.5028 36.6929 44.5596C36.0681 44.6164 35.5285 44.162 34.9037 44.1904C34.3925 44.2188 33.9665 44.6164 33.6541 45.0424C33.3417 45.4684 33.1145 45.9512 32.7169 46.292C31.7797 47.1156 30.5017 47.57 31.2969 49.132C31.5809 49.6148 31.9501 50.0408 32.3761 50.41C32.4329 50.4668 32.4897 50.5236 32.5181 50.6088C32.5181 50.7224 32.4613 50.836 32.3761 50.9212C32.0637 51.3188 31.9501 51.83 32.0353 52.3412C32.2057 52.9944 32.6601 52.9376 33.1145 53.25C33.5689 53.5624 33.7393 54.0452 34.0517 54.4428C34.7617 55.3232 36.0965 55.4652 37.1757 55.0676C38.9933 54.4144 40.6689 52.54 41.2653 50.6656Z" fill="white"/>
<path d="M35.9828 55.4936C35.1876 55.522 34.3924 55.1812 33.8812 54.5848C33.7676 54.4428 33.654 54.3008 33.5688 54.1304C33.4268 53.8748 33.228 53.6192 32.9724 53.4488C32.8588 53.3636 32.7452 53.3068 32.6032 53.25C32.2056 53.1364 31.9216 52.7956 31.808 52.4264C31.6944 51.8584 31.808 51.2904 32.1772 50.836C32.2056 50.7792 32.2624 50.7224 32.2624 50.6656C32.2624 50.6372 32.2056 50.6088 32.1772 50.5804L32.092 50.4952C31.666 50.126 31.3252 49.7 31.0412 49.2456C30.3312 47.8256 31.1548 47.2008 31.9784 46.576C32.1488 46.434 32.3476 46.292 32.518 46.15C32.7736 45.8944 33.0008 45.6388 33.1712 45.3264C33.2564 45.1844 33.3416 45.0708 33.4268 44.9288C33.8528 44.3324 34.3356 44.02 34.8184 43.9916C35.1592 43.9916 35.4716 44.0484 35.7556 44.1904C36.1816 44.446 36.7212 44.4176 37.1472 44.162C37.2892 44.1052 37.4028 44.0484 37.5448 43.9916C38.624 43.7076 39.7032 44.3608 39.9872 45.44C40.044 45.6104 40.044 45.8092 40.044 45.9796C40.044 46.0648 40.0156 46.1216 40.0156 46.2068C39.9872 46.3488 39.9872 46.4624 39.9872 46.6044C40.0156 46.9168 40.2996 47.1724 40.5552 47.428C40.6688 47.5416 40.7824 47.6552 40.896 47.7688C41.5208 48.4788 41.6912 49.6148 41.3504 50.694C40.754 52.6536 38.9648 54.5848 37.1188 55.238C36.8064 55.4084 36.3804 55.4936 35.9828 55.4936ZM34.9604 44.3892H34.9036C34.4208 44.4176 34.0516 44.8436 33.796 45.156C33.7108 45.2696 33.6256 45.4116 33.5404 45.5252C33.3416 45.866 33.086 46.1784 32.802 46.434C32.6316 46.6044 32.4328 46.718 32.234 46.8884C31.4388 47.4848 30.8424 47.9392 31.4104 49.0468C31.666 49.4728 31.9784 49.8704 32.376 50.2112L32.4612 50.2964C32.5464 50.3816 32.6316 50.4952 32.66 50.6088C32.6884 50.7792 32.6032 50.9496 32.4896 51.0632C32.2056 51.404 32.092 51.8868 32.1772 52.3128C32.2624 52.682 32.4612 52.7672 32.7452 52.8808C32.8872 52.9376 33.0292 53.0228 33.1712 53.108C33.4552 53.3352 33.6824 53.5908 33.8528 53.9032C33.938 54.0452 34.0232 54.1872 34.1368 54.3292C34.8468 55.1812 36.1248 55.238 37.0336 54.8972C38.766 54.2724 40.4416 52.4548 41.038 50.6088C41.2652 49.8704 41.2936 48.7912 40.6404 48.0528C40.5552 47.9392 40.4416 47.8256 40.328 47.7404C40.0156 47.428 39.6748 47.144 39.618 46.6612C39.5896 46.4908 39.618 46.3204 39.6464 46.15C39.6464 46.0932 39.6748 46.008 39.6748 45.9512C39.6748 45.0708 38.9648 44.3324 38.0844 44.3324C37.9424 44.3324 37.8288 44.3608 37.6868 44.3892C37.5732 44.4176 37.4596 44.4744 37.346 44.5312C36.8348 44.8436 36.1816 44.8436 35.6704 44.5596C35.4432 44.446 35.216 44.4176 34.9604 44.3892Z" fill="#231F20"/>
<path d="M39.2773 53.7044L39.9873 55.948C39.9873 55.948 40.0157 57.0556 38.4253 57.1976C36.8349 57.3396 36.2669 56.374 36.2669 56.374L35.0741 52.1424C35.0741 52.1424 35.8125 51.2052 34.6765 48.9048C34.6765 48.9048 37.2041 48.848 39.3341 47.8256C39.3341 47.8256 40.2713 50.5236 40.4701 51.7448C40.6689 52.966 39.2773 53.7044 39.2773 53.7044Z" fill="white"/>
<path d="M38.1129 57.3964C36.6361 57.3964 36.0965 56.516 36.0681 56.4592C36.0681 56.4308 36.0397 56.4308 36.0397 56.4024L34.8469 52.1708C34.8185 52.114 34.8469 52.0572 34.8753 52.0004C34.8753 52.0004 35.5001 51.0916 34.4493 48.9616C34.4209 48.9048 34.4209 48.8196 34.4493 48.7628C34.4777 48.706 34.5345 48.6776 34.6197 48.6776C34.6481 48.6776 37.1473 48.6208 39.1921 47.6268C39.2489 47.5984 39.3057 47.5984 39.3625 47.6268C39.4193 47.6552 39.4477 47.6836 39.4761 47.7404C39.5045 47.854 40.4133 50.4668 40.6121 51.688C40.8109 52.7956 39.8453 53.5056 39.4761 53.7612L40.1577 55.8344C40.1577 55.8628 40.1577 55.8628 40.1577 55.8912C40.1577 55.8912 40.1861 57.1976 38.3969 57.3396C38.3117 57.3964 38.1981 57.4248 38.1129 57.3964ZM36.4373 56.2888C36.5225 56.4024 37.0621 57.1124 38.3969 56.9988C39.7033 56.8852 39.7885 56.1184 39.7885 55.9764L39.0785 53.7612C39.0501 53.676 39.0785 53.5624 39.1637 53.534C39.1637 53.534 40.4133 52.8524 40.2429 51.8016C39.9589 50.552 39.6181 49.3308 39.1921 48.138C37.8573 48.706 36.4089 49.0468 34.9605 49.132C35.7841 50.9496 35.4149 51.9152 35.2729 52.2276L36.4373 56.2888Z" fill="#231F20"/>
<path d="M35.7272 51.8016C35.6136 51.6028 35.4432 51.4608 35.216 51.404C35.0172 51.3472 34.8184 51.3188 34.6196 51.3188C34.506 51.3188 34.3924 51.3188 34.2788 51.3756C34.1936 51.404 34.1368 51.4608 34.08 51.5176C33.938 51.6596 33.8528 51.8301 33.8528 52.0005C33.8528 52.1425 33.9096 52.3129 33.9664 52.4265C34.0232 52.5685 34.1368 52.7105 34.222 52.8525C34.6764 53.3637 35.4716 53.4204 35.9828 52.966" fill="white"/>
<path d="M35.1593 53.4772H35.0741C34.6765 53.4488 34.3357 53.2784 34.0801 52.9944C33.9665 52.8524 33.8813 52.7104 33.7961 52.54C33.7109 52.3696 33.6541 52.1992 33.6541 52.0004C33.6825 51.7732 33.7677 51.546 33.9381 51.3756C33.9949 51.2904 34.0801 51.2336 34.1937 51.1768C34.3357 51.12 34.4777 51.0916 34.6197 51.12C34.8469 51.12 35.0741 51.1484 35.3013 51.2336C35.5569 51.3188 35.7557 51.4892 35.8977 51.7164C35.9545 51.8016 35.9261 51.9436 35.8409 52.0004C35.7557 52.0572 35.6137 52.0288 35.5569 51.9436C35.4717 51.8016 35.3297 51.688 35.1593 51.6028C34.9889 51.546 34.7901 51.5176 34.6197 51.5176C34.5345 51.5176 34.4493 51.5176 34.3641 51.546C34.3073 51.5744 34.2789 51.6028 34.2505 51.6596C34.1369 51.7448 34.0801 51.8868 34.0801 52.0288C34.0801 52.1424 34.1085 52.256 34.1937 52.3696C34.2505 52.5116 34.3357 52.6252 34.4209 52.7388C34.6197 52.9376 34.8753 53.0796 35.1593 53.0796C35.4433 53.0796 35.6989 52.9944 35.9261 52.7956C36.0113 52.7388 36.1533 52.7672 36.2101 52.8524C36.2385 52.9092 36.2385 52.9944 36.2101 53.0796C35.8977 53.3352 35.5285 53.4772 35.1593 53.4772Z" fill="#231F20"/>
<path d="M38.7661 50.0123C38.7661 50.0123 39.9589 50.8643 39.8453 51.1483C39.7317 51.4323 39.1637 51.4607 39.1637 51.4607" fill="white"/>
<path d="M39.1919 51.6595C39.0783 51.6595 38.9931 51.5743 38.9931 51.4607C38.9931 51.3471 39.0783 51.2619 39.1919 51.2619C39.3623 51.2619 39.5327 51.1767 39.6747 51.0915C39.3907 50.7223 39.0499 50.4383 38.6523 50.1827C38.5671 50.1259 38.5387 50.0123 38.5955 49.9271C38.5955 49.9271 38.5955 49.9271 38.5955 49.8987C38.6523 49.8135 38.7659 49.7851 38.8795 49.8419C40.2143 50.8075 40.0723 51.0915 40.0439 51.2051C39.9019 51.5459 39.3339 51.6311 39.1919 51.6595Z" fill="#231F20"/>
<path d="M36.9485 49.7851C37.0337 49.5011 37.3177 49.3307 37.6017 49.4159C37.6869 49.4443 37.7437 49.4727 37.8005 49.5011" fill="white"/>
<path d="M36.9483 49.984C36.9199 49.984 36.8915 49.984 36.8915 49.984C36.7779 49.9556 36.7211 49.842 36.7779 49.7284C36.8631 49.5012 37.0335 49.3024 37.2607 49.2172C37.4879 49.1604 37.7435 49.2172 37.9423 49.3592C38.0275 49.416 38.0559 49.5296 37.9991 49.6432C37.9423 49.7284 37.8287 49.7568 37.7151 49.7C37.6299 49.6148 37.5163 49.5864 37.4027 49.6148C37.2891 49.6716 37.2039 49.7568 37.1471 49.8704C37.0903 49.9272 37.0051 49.984 36.9483 49.984Z" fill="#231F20"/>
<path d="M38.5388 49.3024C38.5388 49.3024 38.624 48.8764 39.2772 49.1604Z" fill="white"/>
<path d="M38.5387 49.5011H38.5103C38.3967 49.4727 38.3399 49.3875 38.3683 49.2739C38.3967 49.1319 38.4819 48.9899 38.6239 48.9331C38.8795 48.8195 39.1635 48.8479 39.3907 48.9899C39.5043 49.0183 39.5327 49.1319 39.5043 49.2455C39.4759 49.3591 39.3623 49.3875 39.2487 49.3591H39.2203C38.9647 49.2455 38.8511 49.2739 38.7943 49.2739C38.7659 49.2739 38.7375 49.3023 38.7375 49.3307C38.7091 49.4159 38.6523 49.5011 38.5387 49.5011Z" fill="#231F20"/>
<path d="M39.2773 53.7043C39.2773 53.7043 38.1129 54.0451 37.4597 53.9031C37.4597 53.9031 38.3117 55.0959 39.6749 55.0675L39.2773 53.7043Z" fill="#231F20"/>
<path d="M39.618 55.2663C38.198 55.2663 37.346 54.0735 37.3176 54.0167C37.2608 53.9315 37.2892 53.7895 37.3744 53.7327C37.4312 53.7043 37.488 53.6759 37.5448 53.7043C38.1128 53.8463 39.2488 53.5339 39.2488 53.5055C39.3624 53.4771 39.4476 53.5339 39.5044 53.6475L39.9304 55.0107C39.9588 55.1243 39.902 55.2379 39.7884 55.2663C39.76 55.2663 39.76 55.2663 39.7316 55.2663H39.618ZM37.9424 54.1303C38.34 54.5279 38.8512 54.7835 39.4192 54.8403L39.1352 53.9315C38.7376 54.0451 38.34 54.1019 37.9424 54.1303Z" fill="#231F20"/>
<path d="M38.8228 52.5968C38.2832 52.5968 37.5448 52.3412 36.8064 51.3756C36.7496 51.2904 36.778 51.1484 36.8632 51.0916C36.9484 51.0348 37.062 51.0632 37.1188 51.12C38.3684 52.7388 39.476 52.0004 39.5044 52.0004C39.5896 51.9436 39.7316 51.972 39.7884 52.0572C39.8452 52.1424 39.8168 52.2844 39.7316 52.3412C39.4476 52.5116 39.1352 52.5968 38.8228 52.5968Z" fill="#231F20"/>
<path d="M47.4564 72.2212C47.3712 72.2212 47.3144 72.1644 47.286 72.0792C47.002 70.8864 45.6672 65.8596 44.7016 62.196C43.9916 59.5548 43.736 58.5324 43.736 58.4756C43.7076 58.3904 43.7928 58.2768 43.878 58.2768C43.9632 58.2484 44.0484 58.3336 44.0768 58.4188C44.1052 58.5324 44.5312 60.1796 45.0424 62.1108C46.008 65.7744 47.3428 70.8012 47.6268 71.994C47.6552 72.0792 47.5984 72.1928 47.5132 72.2212H47.4564Z" fill="#231F20"/>
<path d="M33.5688 79.804C33.512 79.804 33.4552 79.7756 33.3984 79.7188C33.3416 79.6336 33.3416 79.4916 33.4552 79.4348C34.2504 78.8668 34.3924 77.9296 34.4776 77.4752C34.4776 77.39 34.506 77.2764 34.5344 77.1912C34.5912 77.106 34.7048 77.0492 34.79 77.106C34.79 77.106 34.79 77.106 34.8184 77.106C34.9036 77.1628 34.9604 77.2764 34.9036 77.3616C34.9036 77.39 34.9036 77.4468 34.8752 77.532C34.8184 77.9864 34.648 79.0656 33.7108 79.7472C33.6824 79.7756 33.6256 79.804 33.5688 79.804Z" fill="white"/>
<path d="M42.9409 82.1043C42.8273 82.1043 42.7421 81.9907 42.7705 81.9055C42.8841 80.2583 41.7197 77.2195 41.7197 77.1911C41.6913 77.0775 41.7197 76.9639 41.8333 76.9355C41.9469 76.9071 42.0605 76.9355 42.0889 77.0491C42.1457 77.1911 43.3101 80.2015 43.1681 81.9339C43.1397 82.0191 43.0545 82.1043 42.9409 82.1043Z" fill="white"/>
<path d="M48.4504 75.6861C47.5132 75.6861 46.6896 74.9761 46.6328 74.9477C46.5476 74.8909 46.5192 74.7489 46.6044 74.6637C46.6612 74.5785 46.8032 74.5785 46.8884 74.6353C46.8884 74.6353 47.996 75.5441 48.9048 75.2033C48.99 75.1465 49.132 75.2033 49.1604 75.2885C49.2172 75.3737 49.1604 75.5157 49.0752 75.5441H49.0468C48.848 75.6577 48.6492 75.6861 48.4504 75.6861Z" fill="white"/>
<path d="M89.4601 34.1083C89.4601 34.1083 86.3645 28.6271 85.8533 28.0591C85.3421 27.4911 83.9789 24.6227 83.7233 24.6795C83.4677 24.7363 83.8369 26.0711 84.5753 27.8035C84.5753 27.8035 82.8997 28.8259 82.9565 29.5927C83.0133 30.3595 83.9221 32.0919 85.2853 31.5807L87.5005 36.4939" fill="white"/>
<path d="M87.5003 36.6928C87.4151 36.6928 87.3583 36.636 87.3299 36.5792L85.1999 31.808C84.7739 31.9216 84.3195 31.8364 83.9787 31.5808C83.3255 31.098 82.8995 30.388 82.7859 29.5928C82.7291 28.8544 83.9219 28.0024 84.3479 27.7184C84.0639 27.0368 83.2687 25.1056 83.4959 24.6228C83.5243 24.5376 83.6095 24.4808 83.6947 24.4808C83.9503 24.424 84.1207 24.6512 85.0011 26.27C85.3135 26.838 85.6543 27.406 86.0235 27.9456C86.5347 28.5136 89.5451 33.8244 89.6587 34.0232C89.7155 34.1084 89.6871 34.2504 89.6019 34.3072C89.6019 34.3072 89.6019 34.3072 89.5735 34.3072C89.4883 34.364 89.3463 34.3356 89.2895 34.2504C88.4375 32.7168 86.1087 28.684 85.7111 28.2296C85.3135 27.6616 84.9443 27.0936 84.6603 26.4688C84.4047 26.0144 84.0923 25.4464 83.8651 25.134C84.0639 26.0428 84.3763 26.9232 84.7739 27.7468C84.8023 27.832 84.7739 27.9456 84.6887 28.0024C84.0923 28.3716 83.1267 29.1384 83.1551 29.6212C83.2403 30.3028 83.6095 30.9276 84.1491 31.3252C84.4615 31.524 84.8591 31.5808 85.1999 31.4388C85.2851 31.4104 85.3987 31.4388 85.4555 31.5524L87.6707 36.4656C87.7275 36.5792 87.6707 36.6928 87.5571 36.7212C87.5287 36.6928 87.5003 36.6928 87.5003 36.6928Z" fill="#231F20"/>
<path d="M118.968 67.7908C118.968 67.7908 121.808 69.1824 122.603 69.6652C123.398 70.148 125.585 69.7788 125.812 69.4096C126.039 69.0404 123.994 68.7848 123.994 68.7848C123.994 68.7848 128.198 67.024 127.885 66.598C127.573 66.172 123.909 66.9956 123.909 66.9956L120.473 65.1212" fill="white"/>
<path d="M123.767 70.0912C123.341 70.1196 122.887 70.0344 122.489 69.8356C121.722 69.3528 118.911 67.9896 118.882 67.9612C118.797 67.9044 118.74 67.7908 118.797 67.7056C118.854 67.6204 118.968 67.5636 119.053 67.6204C119.166 67.6772 121.921 69.012 122.716 69.4948C123.398 69.9208 125.244 69.6084 125.585 69.3528C125.074 69.154 124.534 69.012 123.966 68.9836C123.852 68.9552 123.767 68.87 123.796 68.7564C123.796 68.6996 123.852 68.6428 123.909 68.6144C125.528 67.9328 127.317 67.0524 127.658 66.7116C127.232 66.598 125.471 66.8536 123.938 67.2228C123.881 67.2228 123.852 67.2228 123.796 67.1944L120.359 65.32C120.274 65.2632 120.217 65.1496 120.274 65.0644C120.274 65.0644 120.274 65.0644 120.274 65.036C120.331 64.9508 120.444 64.894 120.558 64.9508L123.938 66.7684C125.358 66.456 127.686 66.0016 128.056 66.456C128.112 66.5412 128.141 66.6264 128.112 66.7116C127.97 67.1944 126.039 68.1032 124.733 68.6712C125.301 68.7848 125.869 68.9268 126.011 69.1824C126.068 69.2676 126.068 69.3812 126.011 69.4664C125.982 69.5232 125.869 69.722 125.187 69.8924C124.704 70.006 124.25 70.0912 123.767 70.0912Z" fill="#231F20"/>
<path d="M95.7363 73.5276C95.7363 73.5276 93.6915 84.1208 93.8051 85.4272C93.9187 86.7336 104.682 104.256 104.682 104.256L108.147 101.104L100.962 83.7232L104.484 73.556L95.7363 73.5276Z" fill="white"/>
<path d="M104.682 104.455H104.654C104.597 104.455 104.54 104.398 104.512 104.37C103.404 102.581 93.6917 86.7905 93.6065 85.4557C93.5213 84.1209 95.4525 73.9253 95.5377 73.4993C95.5661 73.4141 95.6513 73.3289 95.7365 73.3289H104.484C104.54 73.3289 104.597 73.3573 104.654 73.4141C104.682 73.4709 104.711 73.5277 104.682 73.5845L101.189 83.6949L108.346 101.019C108.374 101.104 108.346 101.189 108.289 101.246L104.824 104.398C104.768 104.455 104.739 104.455 104.682 104.455ZM95.8785 73.7265C95.6229 75.0613 93.8905 84.2344 93.9757 85.4272C94.0325 86.3644 100.394 96.9293 104.711 103.944L107.892 101.047L100.792 83.7801C100.763 83.7233 100.763 83.6949 100.792 83.6381L104.2 73.7265H95.8785Z" fill="#231F20"/>
<path d="M108.147 101.104C108.147 101.104 109.766 102.439 109.567 103.433C109.368 104.427 106.102 113.089 105.506 111.981C104.91 110.874 104.682 104.256 104.682 104.256L108.147 101.104Z" fill="#231F20"/>
<path d="M105.62 112.265C105.506 112.265 105.392 112.18 105.336 112.066C104.711 110.93 104.512 104.54 104.512 104.256C104.512 104.2 104.54 104.143 104.569 104.114L108.034 100.962C108.09 100.905 108.204 100.905 108.261 100.962C108.318 101.019 109.965 102.354 109.738 103.461C109.596 104.171 106.784 112.095 105.676 112.237H105.62V112.265ZM104.853 104.342C104.938 106.642 105.194 111.072 105.648 111.924C106.301 111.811 109.141 104.739 109.397 103.433C109.539 102.751 108.63 101.786 108.147 101.36L104.853 104.342Z" fill="#231F20"/>
<path d="M101.871 73.3288C101.871 73.3288 100.848 84.064 101.104 85.3704C101.36 86.6768 113.742 103.064 113.742 103.064L116.894 99.5988L108.09 82.9564L110.618 72.4768L101.871 73.3288Z" fill="white"/>
<path d="M113.742 103.262C113.685 103.262 113.628 103.234 113.6 103.177C112.322 101.502 101.161 86.7052 100.933 85.3988C100.706 84.0924 101.672 73.7548 101.729 73.3004C101.729 73.2152 101.814 73.13 101.899 73.13L110.618 72.278C110.675 72.278 110.731 72.3064 110.788 72.3348C110.817 72.3916 110.845 72.4484 110.817 72.5052L108.317 82.8996L117.093 99.4568C117.121 99.542 117.121 99.6272 117.065 99.684L113.884 103.206C113.855 103.262 113.799 103.262 113.742 103.262ZM102.069 73.5276C101.956 74.8908 101.104 84.1776 101.303 85.342C101.473 86.2508 108.772 96.1908 113.77 102.751L116.667 99.5704L107.92 83.07C107.891 83.0416 107.891 82.9848 107.891 82.928L110.362 72.7324L102.069 73.5276Z" fill="#231F20"/>
<path d="M116.866 99.5989C116.866 99.5989 118.598 100.763 118.513 101.786C118.428 102.808 115.986 111.726 115.276 110.675C114.566 109.624 113.714 103.064 113.714 103.064L116.866 99.5989Z" fill="#231F20"/>
<path d="M115.418 110.959C115.304 110.959 115.19 110.902 115.134 110.788C114.395 109.709 113.6 103.376 113.543 103.092C113.543 103.035 113.543 102.978 113.6 102.95L116.752 99.4853C116.809 99.4285 116.894 99.4001 116.98 99.4569C117.065 99.5137 118.826 100.678 118.684 101.814C118.598 102.524 116.554 110.675 115.503 110.93C115.474 110.959 115.446 110.959 115.418 110.959ZM113.912 103.149C114.196 105.421 114.878 109.823 115.418 110.618C116.042 110.448 118.201 103.12 118.343 101.814C118.428 101.104 117.434 100.252 116.894 99.8829L113.912 103.149Z" fill="#231F20"/>
<path d="M97.2983 63.4456L93.0383 87.9548C93.0383 87.9548 102.552 86.3644 119.791 86.3644C119.791 86.3644 113.543 72.1076 109.368 64.6952L97.2983 63.4456Z" fill="#231F20"/>
<path d="M93.0383 88.0967C92.9815 88.0967 92.9531 88.0683 92.9247 88.0399C92.8963 88.0115 92.8679 87.9547 92.8679 87.8979L97.1279 63.4171C97.1563 63.3319 97.2131 63.2751 97.3267 63.2751L109.397 64.4963C109.454 64.4963 109.51 64.5247 109.539 64.5815C113.685 71.9371 119.905 86.1371 119.99 86.2791C120.018 86.3359 120.018 86.3927 119.99 86.4495C119.962 86.5063 119.905 86.5347 119.848 86.5347C102.751 86.5347 93.1519 88.0967 93.0383 88.0967ZM97.4403 63.6159L93.2371 87.7275C94.8275 87.5003 104.114 86.1939 119.507 86.1655C118.655 84.2627 113.089 71.6531 109.226 64.8371L97.4403 63.6159Z" fill="#231F20"/>
<path d="M101.36 44.6448C100.905 43.3384 100.962 41.9184 101.502 40.6404C101.928 39.76 102.638 39.05 103.546 38.6808C104.569 38.2264 105.534 38.7376 106.443 39.2488C107.153 39.6464 107.92 40.044 108.46 40.6688C108.857 41.1232 109.113 41.6912 109.482 42.1456C110.022 42.7988 110.703 43.3384 111.442 43.736C112.776 44.5312 114.168 45.1844 115.645 45.6388C116.894 46.0364 118.229 46.3204 119.223 47.1724C120.927 48.5924 121.211 51.2904 120.132 53.25C119.053 55.2096 116.923 56.4024 114.736 56.7432C112.549 57.084 110.306 56.7432 108.147 56.1468C106.386 55.664 104.569 55.0108 103.319 53.7044C102.325 52.6536 101.757 51.2904 101.7 49.8704C101.644 48.6776 102.609 46.8884 102.212 45.7524C102.098 45.44 101.558 45.0708 101.36 44.6448Z" fill="white"/>
<path d="M112.975 57.1125C111.328 57.0841 109.709 56.8285 108.147 56.3741C106.472 55.9197 104.569 55.2665 103.206 53.8749C102.183 52.7957 101.587 51.3757 101.53 49.8989C101.558 49.2741 101.644 48.6777 101.842 48.0813C102.041 47.2577 102.268 46.4057 102.07 45.8377C101.984 45.6389 101.842 45.4685 101.672 45.3265C101.473 45.1561 101.331 44.9289 101.189 44.7301V44.7017C100.706 43.3385 100.763 41.8617 101.36 40.5553C101.786 39.6181 102.552 38.8797 103.518 38.5105C104.626 38.0277 105.676 38.5673 106.585 39.0785C107.295 39.4477 108.062 39.8737 108.63 40.5269C108.857 40.7825 109.056 41.0665 109.226 41.3789C109.368 41.6061 109.51 41.8333 109.681 42.0321C110.22 42.6569 110.845 43.1965 111.584 43.5657C112.89 44.3609 114.282 44.9857 115.73 45.4401C115.929 45.4969 116.156 45.5821 116.355 45.6389C117.406 45.9513 118.513 46.2921 119.365 47.0021C121.069 48.4221 121.495 51.1769 120.331 53.3353C119.308 55.1813 117.235 56.5445 114.793 56.9421C114.196 57.0841 113.6 57.1125 112.975 57.1125ZM101.558 44.5881C101.672 44.7869 101.814 44.9289 101.956 45.0993C102.155 45.2697 102.297 45.4969 102.41 45.7241C102.666 46.4341 102.439 47.3429 102.212 48.2233C102.041 48.7629 101.956 49.3309 101.928 49.8989C101.984 51.2905 102.552 52.5969 103.49 53.6193C104.768 54.9541 106.614 55.5789 108.232 56.0049C109.851 56.4309 112.35 56.9705 114.736 56.5729C117.065 56.1753 119.024 54.9257 119.99 53.1649C121.069 51.1769 120.7 48.6209 119.138 47.3429C118.314 46.6613 117.264 46.3489 116.241 46.0365L115.616 45.8377C114.14 45.3549 112.72 44.7017 111.356 43.9065C110.59 43.4805 109.908 42.9409 109.368 42.2593C109.198 42.0321 109.056 41.8049 108.886 41.5777C108.715 41.2937 108.516 41.0381 108.318 40.7825C107.806 40.1861 107.068 39.7885 106.358 39.4193C105.478 38.9365 104.569 38.4537 103.632 38.8513C102.78 39.1921 102.07 39.8737 101.672 40.6973C101.161 41.9469 101.104 43.3385 101.558 44.5881Z" fill="#231F20"/>
<path d="M106.898 47.712C106.898 47.712 102.411 46.2636 100.053 47.6268C97.6962 48.99 96.617 53.7328 96.7022 55.3232C96.7874 56.9136 97.2986 63.4172 97.2986 63.4172C97.2986 63.4172 103.319 63.8716 109.369 64.6384L110.164 59.498C110.164 59.498 109.795 61.7984 112.464 64.8088C115.134 67.8192 120.445 69.3812 120.445 69.3812L122.66 65.3768C122.66 65.3768 118.258 63.2468 116.781 60.7476C115.304 58.2484 113.799 50.0976 106.898 47.712Z" fill="black"/>
<path d="M104.001 48.0812L89.5453 32.4044L86.1089 34.8184C86.1089 34.8184 94.0609 51.4608 97.7813 56.2604L104.001 48.0812Z" fill="black"/>
<path d="M103.319 48.0528L102.95 50.1828C102.95 50.1828 102.524 51.5176 104.086 51.404C105.023 51.3472 105.875 50.836 106.386 50.0976L107.096 45.8944C107.096 45.866 106.869 45.6388 106.869 45.6104C106.699 45.298 106.614 44.9572 106.585 44.6164C106.585 44.0768 106.614 43.5088 106.699 42.9692C106.216 42.9408 105.733 42.8272 105.279 42.6C104.824 42.3444 104.2 41.2084 104.2 41.2084C103.972 42.0036 102.013 42.9124 102.013 42.9124C102.013 42.9124 101.587 45.7808 101.587 46.6612C101.558 47.8256 103.319 48.0528 103.319 48.0528Z" fill="white"/>
<path d="M103.887 51.5744C103.518 51.6028 103.149 51.4608 102.893 51.1768C102.694 50.8644 102.638 50.4668 102.751 50.0976L103.092 48.1664C102.609 48.0528 101.36 47.6836 101.36 46.6044C101.36 45.7524 101.786 42.9692 101.786 42.8556C101.786 42.7988 101.842 42.742 101.899 42.7136C102.41 42.458 103.802 41.7196 103.972 41.1232C104.001 41.0664 104.058 41.0096 104.114 40.9812C104.2 40.9812 104.256 41.0096 104.285 41.0664C104.455 41.3788 104.938 42.2024 105.279 42.3728C105.705 42.5716 106.159 42.6852 106.642 42.7136C106.699 42.7136 106.727 42.742 106.784 42.7704C106.812 42.7988 106.841 42.8556 106.812 42.9124C106.727 43.452 106.699 43.9916 106.699 44.5028C106.727 44.8152 106.812 45.1276 106.954 45.4116C106.954 45.4116 106.983 45.44 107.011 45.4684C107.182 45.6672 107.21 45.724 107.21 45.8092C107.21 45.8376 106.5 50.0124 106.5 50.0124C106.5 50.0408 106.5 50.0692 106.472 50.0692C105.904 50.8928 105.023 51.404 104.029 51.4892L103.887 51.5744ZM102.155 42.9976C102.07 43.5088 101.729 45.866 101.729 46.6044C101.729 47.6268 103.319 47.8256 103.319 47.8256C103.376 47.8256 103.404 47.854 103.433 47.9108C103.461 47.9392 103.461 47.996 103.461 48.0528L103.064 50.1828C102.978 50.4384 103.007 50.7224 103.149 50.9496C103.291 51.1484 103.575 51.2336 104.001 51.2052C104.853 51.1484 105.648 50.694 106.159 50.0124C106.67 47.0588 106.812 46.1784 106.841 45.9228L106.727 45.8092L106.642 45.6956C106.443 45.3548 106.358 45.014 106.33 44.6164C106.33 44.1052 106.358 43.6224 106.415 43.1112C105.96 43.0544 105.506 42.9408 105.108 42.742C104.768 42.5432 104.342 41.9468 104.114 41.5776C103.717 42.2308 102.524 42.8272 102.155 42.9976Z" fill="#231F20"/>
<path d="M106.244 45.4684C106.386 45.1844 106.67 44.9856 106.983 44.9288C107.153 44.872 107.352 44.9004 107.522 44.9856C107.693 45.0992 107.806 45.2696 107.806 45.4684C107.806 45.724 107.749 45.9512 107.579 46.15C107.267 46.6328 106.613 46.7748 106.131 46.4624C106.131 46.4624 106.131 46.4624 106.102 46.4624" fill="white"/>
<path d="M106.727 46.7747C106.5 46.7747 106.245 46.7179 106.046 46.5759C105.961 46.5191 105.961 46.4339 105.989 46.3487C106.046 46.2635 106.131 46.2635 106.216 46.3203C106.415 46.4623 106.642 46.4907 106.898 46.4623C107.125 46.4055 107.324 46.2635 107.466 46.0647C107.579 45.8943 107.636 45.6955 107.665 45.4967C107.665 45.3547 107.579 45.2127 107.466 45.1275C107.324 45.0707 107.182 45.0423 107.04 45.0991C106.784 45.1559 106.529 45.2979 106.415 45.5535C106.387 45.6387 106.301 45.6671 106.216 45.6387C106.131 45.6103 106.103 45.5251 106.131 45.4399C106.301 45.0991 106.614 44.8719 106.983 44.8151C107.21 44.7583 107.437 44.7867 107.665 44.9003C107.863 45.0423 108.005 45.2695 108.034 45.4967C108.034 45.7807 107.949 46.0363 107.807 46.2635C107.636 46.5475 107.352 46.7179 107.04 46.8031C106.898 46.7747 106.813 46.8031 106.727 46.7747Z" fill="#231F20"/>
<path d="M104.484 43.8779C104.484 43.8779 103.461 44.8719 103.603 45.1275C103.745 45.3831 104.285 45.3547 104.285 45.3547" fill="white"/>
<path d="M104.228 45.5252C104.058 45.5252 103.603 45.4968 103.461 45.2128C103.404 45.1276 103.234 44.8436 104.37 43.7644C104.455 43.7076 104.569 43.7076 104.626 43.7928C104.682 43.8496 104.682 43.9632 104.626 44.02C104.2 44.446 103.802 44.9288 103.802 45.0708C103.972 45.156 104.143 45.1844 104.313 45.156C104.398 45.156 104.484 45.2128 104.484 45.3264C104.484 45.4116 104.427 45.4968 104.313 45.4968L104.228 45.5252Z" fill="#231F20"/>
<path d="M103.49 47.4281C103.319 47.4281 103.149 47.3429 103.035 47.2293C102.552 46.8317 102.382 46.1501 102.609 45.5537C102.638 45.4969 102.723 45.4401 102.78 45.4685L104.711 45.6957C104.768 45.6957 104.824 45.7241 104.853 45.7809C104.881 45.8377 104.881 45.8945 104.853 45.9513C104.796 46.0933 104.285 47.2577 103.603 47.4281C103.575 47.4281 103.546 47.4281 103.49 47.4281ZM102.893 45.8377C102.78 46.2637 102.922 46.6897 103.262 46.9737C103.319 47.0589 103.433 47.0873 103.546 47.0589C103.859 47.0021 104.228 46.4625 104.427 46.0081L102.893 45.8377Z" fill="#231F20"/>
<path d="M103.631 43.9916H103.603C103.518 43.9632 103.433 43.878 103.461 43.7928C103.461 43.7076 103.461 43.6508 103.433 43.594C103.404 43.5656 103.376 43.5656 103.347 43.5656C103.12 43.5372 102.921 43.8212 102.921 43.8212C102.865 43.9064 102.751 43.9348 102.694 43.878C102.609 43.8212 102.581 43.7076 102.637 43.6224C102.808 43.3668 103.092 43.1964 103.376 43.1964C103.489 43.1964 103.631 43.2816 103.688 43.3668C103.773 43.5088 103.802 43.6792 103.802 43.8496C103.773 43.9348 103.717 43.9916 103.631 43.9916Z" fill="#231F20"/>
<path d="M105.932 44.3041C105.847 44.3041 105.762 44.2189 105.762 44.1337C105.762 44.1337 105.762 43.7929 105.534 43.7361C105.449 43.6793 105.336 43.7361 105.307 43.8213C105.307 43.8213 105.307 43.8497 105.279 43.8497C105.25 43.9349 105.137 43.9917 105.052 43.9633C104.966 43.9349 104.91 43.8213 104.938 43.7361C105.023 43.4521 105.336 43.3101 105.62 43.3953C105.62 43.3953 105.62 43.3953 105.648 43.3953C105.96 43.5089 106.131 43.8213 106.102 44.1621C106.102 44.2189 106.017 44.3041 105.932 44.3041Z" fill="#231F20"/>
<path d="M103.319 48.0527C103.319 48.0527 104.029 48.3084 104.966 47.6552C104.654 48.5072 103.944 49.132 103.092 49.3592L103.319 48.0527Z" fill="#231F20"/>
<path d="M103.063 49.5295C103.007 49.5295 102.978 49.5011 102.95 49.4727C102.893 49.4443 102.893 49.3591 102.893 49.3023L103.12 47.9959C103.12 47.9391 103.149 47.9107 103.205 47.8823C103.262 47.8539 103.291 47.8539 103.347 47.8539C103.376 47.8539 104.001 48.0527 104.853 47.4847C104.909 47.4279 104.995 47.4279 105.051 47.4847C105.108 47.5415 105.137 47.6267 105.108 47.6835C104.767 48.5923 104.029 49.2739 103.092 49.5011L103.063 49.5295ZM103.461 48.2515L103.319 49.0751C103.83 48.8763 104.256 48.5355 104.54 48.0811C104.199 48.2515 103.83 48.3083 103.461 48.2515Z" fill="#231F20"/>
<path d="M97.1279 61.2021C97.0427 61.2021 96.9575 61.1453 96.9575 61.0601C96.9007 60.7193 95.7079 52.3413 98.7183 48.2801C98.7751 48.1949 98.8887 48.1665 98.9739 48.2233C99.0591 48.2801 99.0875 48.3937 99.0307 48.4789C99.0307 48.4789 99.0307 48.4789 99.0307 48.5073C96.1055 52.4549 97.3267 60.9465 97.3551 61.0317C97.3551 61.1169 97.2983 61.2021 97.2131 61.2305L97.1279 61.2021Z" fill="#231F20"/>
<path d="M110.277 70.0912H110.249C106.415 69.3528 106.074 67.2512 105.932 66.2572C105.932 66.1152 105.875 65.9732 105.847 65.8596C105.79 65.7744 105.79 65.6608 105.875 65.5756C105.961 65.5188 106.074 65.5188 106.159 65.604C106.159 65.604 106.159 65.604 106.159 65.6324C106.245 65.8028 106.301 66.0016 106.33 66.2288C106.472 67.2228 106.756 69.0688 110.334 69.7504C110.448 69.7788 110.505 69.864 110.505 69.9776C110.448 70.0344 110.363 70.0912 110.277 70.0912Z" fill="white"/>
<path d="M97.2418 70.0912C97.1282 70.0912 97.043 70.006 97.043 69.8924C97.043 69.8356 97.0714 69.7788 97.0998 69.7504C98.2926 68.586 98.6334 65.1212 98.6334 65.0928C98.6334 64.9792 98.747 64.894 98.8606 64.9224C98.9742 64.9224 99.0594 65.036 99.031 65.1496C99.031 65.2916 98.6618 68.7848 97.3554 70.0628C97.327 70.0628 97.2702 70.0912 97.2418 70.0912Z" fill="white"/>
<path d="M111.782 64.1556C111.726 64.1556 111.669 64.1272 111.64 64.0704C109.198 60.2932 109.141 55.4652 109.141 55.4368C109.141 55.3516 109.226 55.2664 109.312 55.2664C109.397 55.2664 109.482 55.3516 109.482 55.4368C109.482 55.4936 109.51 60.208 111.896 63.9C111.953 63.9852 111.953 64.0988 111.868 64.1556C111.868 64.1556 111.839 64.184 111.782 64.1556Z" fill="#231F20"/>
<path d="M65.1497 31.3252C65.0361 31.3252 64.9509 31.24 64.9509 31.1264V26.5256C64.9509 26.412 65.0361 26.3268 65.1497 26.3268C65.2633 26.3268 65.3485 26.412 65.3485 26.5256V31.1264C65.3485 31.24 65.2349 31.3252 65.1497 31.3252Z" fill="#D1D3D4"/>
<path d="M55.6072 50.4384C55.4936 50.4384 55.4084 50.3532 55.4084 50.2396V33.5404C55.4084 33.4268 55.4936 33.3416 55.6072 33.3416C55.7208 33.3416 55.806 33.4268 55.806 33.5404V50.2396C55.806 50.3532 55.6924 50.4384 55.6072 50.4384Z" fill="#D1D3D4"/>
<path d="M59.4127 53.4205C59.2991 53.4205 59.2139 53.3353 59.2139 53.2217V30.5869C59.2139 30.4733 59.2991 30.3881 59.4127 30.3881C59.5263 30.3881 59.6115 30.4733 59.6115 30.5869V53.2217C59.6115 53.3069 59.5263 53.4205 59.4127 53.4205Z" fill="#D1D3D4"/>
<path d="M63.2183 54.6415C63.1047 54.6415 63.0195 54.5563 63.0195 54.4427V29.3655C63.0195 29.2519 63.1047 29.1667 63.2183 29.1667C63.3319 29.1667 63.4171 29.2519 63.4171 29.3655V54.4144C63.4171 54.528 63.3319 54.6415 63.2183 54.6415Z" fill="#D1D3D4"/>
<path d="M67.0526 54.6415C66.939 54.6415 66.8538 54.5563 66.8538 54.4427V29.3655C66.8538 29.2519 66.939 29.1667 67.0526 29.1667C67.1662 29.1667 67.2514 29.2519 67.2514 29.3655V54.4144C67.2514 54.528 67.1662 54.6415 67.0526 54.6415Z" fill="#D1D3D4"/>
<path d="M70.858 53.4205C70.7444 53.4205 70.6592 53.3353 70.6592 53.2217V30.5869C70.6592 30.4733 70.7444 30.3881 70.858 30.3881C70.9716 30.3881 71.0568 30.4733 71.0568 30.5869V53.2217C71.0568 53.3069 70.9716 53.4205 70.858 53.4205Z" fill="#D1D3D4"/>
<path d="M74.692 50.4384C74.5784 50.4384 74.4932 50.3532 74.4932 50.2396V33.5404C74.4932 33.4268 74.5784 33.3416 74.692 33.3416C74.8056 33.3416 74.8908 33.4268 74.8908 33.5404V50.2396C74.8908 50.3532 74.8056 50.4384 74.692 50.4384Z" fill="#D1D3D4"/>
<path d="M73.4709 32.5464H56.8001C56.6865 32.5464 56.6013 32.4612 56.6013 32.3476C56.6013 32.234 56.6865 32.1488 56.8001 32.1488H73.4993C73.6129 32.1488 73.6981 32.234 73.6981 32.3476C73.6981 32.4612 73.6129 32.5464 73.4709 32.5464Z" fill="#D1D3D4"/>
<path d="M76.4527 36.3804H53.8179C53.7043 36.3804 53.6191 36.2952 53.6191 36.1816C53.6191 36.068 53.7043 35.9828 53.8179 35.9828H76.4527C76.5663 35.9828 76.6515 36.068 76.6515 36.1816C76.6515 36.2952 76.5663 36.3804 76.4527 36.3804Z" fill="#D1D3D4"/>
<path d="M77.6741 40.1861H52.6253C52.5117 40.1861 52.4265 40.1009 52.4265 39.9873C52.4265 39.8737 52.5117 39.7885 52.6253 39.7885H77.6741C77.7877 39.7885 77.8729 39.8737 77.8729 39.9873C77.8729 40.1009 77.7877 40.1861 77.6741 40.1861Z" fill="#D1D3D4"/>
<path d="M77.6741 43.9916H52.6253C52.5117 43.9916 52.4265 43.9064 52.4265 43.7928C52.4265 43.6792 52.5117 43.594 52.6253 43.594H77.6741C77.7877 43.594 77.8729 43.6792 77.8729 43.7928C77.8729 43.9064 77.7877 43.9916 77.6741 43.9916Z" fill="#D1D3D4"/>
<path d="M76.4527 47.8256H53.8179C53.7043 47.8256 53.6191 47.7404 53.6191 47.6268C53.6191 47.5132 53.7043 47.428 53.8179 47.428H76.4527C76.5663 47.428 76.6515 47.5132 76.6515 47.6268C76.6515 47.7404 76.5663 47.8256 76.4527 47.8256Z" fill="#D1D3D4"/>
<path d="M73.4709 51.6312H56.8001C56.6865 51.6312 56.6013 51.546 56.6013 51.4324C56.6013 51.3188 56.6865 51.2336 56.8001 51.2336H73.4993C73.6129 51.2336 73.6981 51.3188 73.6981 51.4324C73.6981 51.546 73.6129 51.6312 73.4709 51.6312C73.4993 51.6312 73.4993 51.6312 73.4709 51.6312Z" fill="#D1D3D4"/>
<path d="M77.816 41.89C77.816 42.5148 77.7592 43.168 77.674 43.7928C77.4752 45.1276 77.0776 46.4056 76.4528 47.5984C75.97 48.5356 75.3736 49.416 74.692 50.2112C74.3228 50.6372 73.9252 51.0348 73.4992 51.404C71.6816 52.9944 69.438 54.0452 67.0524 54.386C64.4396 54.7836 61.77 54.3576 59.4128 53.1648C56.9988 51.9436 55.0392 49.984 53.818 47.57C51.4892 42.9692 52.1708 37.4028 55.5788 33.512C56.658 32.2908 57.936 31.2684 59.3844 30.5584C63.9852 28.2296 69.5516 28.9112 73.4424 32.3192C73.8684 32.6884 74.266 33.086 74.6352 33.512C75.3452 34.3072 75.9416 35.1876 76.396 36.1248C76.9924 37.3176 77.4184 38.624 77.6172 39.9304C77.7592 40.612 77.816 41.2652 77.816 41.89Z" fill="white"/>
<path d="M65.1497 54.7836C64.4965 54.7836 63.8433 54.7268 63.2185 54.6416C61.8553 54.4428 60.5489 54.0168 59.3561 53.4204C56.9137 52.1708 54.9257 50.1828 53.6761 47.7404C51.2905 43.0544 52.0005 37.4028 55.4653 33.4552C55.8345 33.0292 56.2605 32.6316 56.6865 32.234C57.4817 31.524 58.3905 30.9276 59.3561 30.4448C60.5773 29.82 61.8837 29.4224 63.2185 29.1952C64.4965 28.9964 65.8029 28.9964 67.0809 29.1952C69.4949 29.5644 71.7669 30.6152 73.6129 32.234C74.0389 32.6032 74.4365 33.0292 74.8341 33.4552C75.5441 34.2788 76.1405 35.1592 76.6233 36.1248C77.5321 37.914 78.0149 39.9304 78.0149 41.9468C78.0149 42.6 77.9581 43.2532 77.8729 43.878C77.6741 45.2412 77.2765 46.5476 76.6517 47.7404C76.1689 48.706 75.5725 49.5864 74.8625 50.41C74.4933 50.836 74.0673 51.2336 73.6413 51.6312C71.2557 53.6476 68.2453 54.7836 65.1497 54.7836ZM65.1497 29.4224C63.1901 29.4224 61.2589 29.8768 59.5265 30.7572C57.1693 31.95 55.2381 33.8812 54.0169 36.2668C53.4205 37.4596 53.0229 38.7092 52.8241 40.0156C52.6253 41.2652 52.6253 42.5148 52.8241 43.7644C53.0229 45.0708 53.4205 46.3488 54.0169 47.5132C54.4997 48.4504 55.0677 49.3024 55.7493 50.0976C56.1185 50.5236 56.5161 50.8928 56.9137 51.262C57.7089 51.9436 58.5609 52.54 59.4981 52.9944C60.6909 53.5908 61.9405 54.0168 63.2469 54.2156C64.4965 54.4144 65.7745 54.4144 67.0241 54.2156C69.3813 53.8464 71.5681 52.824 73.3573 51.262C73.7833 50.8928 74.1809 50.4952 74.5217 50.0976C75.2033 49.3024 75.7997 48.4504 76.2541 47.5132C78.0433 43.9632 78.0433 39.7884 76.2541 36.2384C75.7713 35.3012 75.2033 34.4492 74.5217 33.654C74.1525 33.228 73.7549 32.8304 73.3573 32.4612C71.0853 30.53 68.1601 29.4224 65.1497 29.4224Z" fill="#D1D3D4"/>
<path d="M55.6072 50.4384C55.4936 50.4384 55.4084 50.3532 55.4084 50.2396V33.5404C55.4084 33.4268 55.4936 33.3416 55.6072 33.3416C55.7208 33.3416 55.806 33.4268 55.806 33.5404V50.2396C55.806 50.3532 55.6924 50.4384 55.6072 50.4384Z" fill="#D1D3D4"/>
<path d="M59.4127 53.4205C59.2991 53.4205 59.2139 53.3353 59.2139 53.2217V30.5869C59.2139 30.4733 59.2991 30.3881 59.4127 30.3881C59.5263 30.3881 59.6115 30.4733 59.6115 30.5869V53.2217C59.6115 53.3069 59.5263 53.4205 59.4127 53.4205Z" fill="#D1D3D4"/>
<path d="M63.2183 54.6415C63.1047 54.6415 63.0195 54.5563 63.0195 54.4427V29.3655C63.0195 29.2519 63.1047 29.1667 63.2183 29.1667C63.3319 29.1667 63.4171 29.2519 63.4171 29.3655V54.4144C63.4171 54.528 63.3319 54.6415 63.2183 54.6415Z" fill="#D1D3D4"/>
<path d="M67.0526 54.6415C66.939 54.6415 66.8538 54.5563 66.8538 54.4427V29.3655C66.8538 29.2519 66.939 29.1667 67.0526 29.1667C67.1662 29.1667 67.2514 29.2519 67.2514 29.3655V54.4144C67.2514 54.528 67.1662 54.6415 67.0526 54.6415Z" fill="#D1D3D4"/>
<path d="M70.858 53.4205C70.7444 53.4205 70.6592 53.3353 70.6592 53.2217V30.5869C70.6592 30.4733 70.7444 30.3881 70.858 30.3881C70.9716 30.3881 71.0568 30.4733 71.0568 30.5869V53.2217C71.0568 53.3069 70.9716 53.4205 70.858 53.4205Z" fill="#D1D3D4"/>
<path d="M74.692 50.4384C74.5784 50.4384 74.4932 50.3532 74.4932 50.2396V33.5404C74.4932 33.4268 74.5784 33.3416 74.692 33.3416C74.8056 33.3416 74.8908 33.4268 74.8908 33.5404V50.2396C74.8908 50.3532 74.8056 50.4384 74.692 50.4384Z" fill="#D1D3D4"/>
<path d="M73.4709 32.5464H56.8001C56.6865 32.5464 56.6013 32.4612 56.6013 32.3476C56.6013 32.234 56.6865 32.1488 56.8001 32.1488H73.4993C73.6129 32.1488 73.6981 32.234 73.6981 32.3476C73.6981 32.4612 73.6129 32.5464 73.4709 32.5464Z" fill="#D1D3D4"/>
<path d="M76.4527 36.3804H53.8179C53.7043 36.3804 53.6191 36.2952 53.6191 36.1816C53.6191 36.068 53.7043 35.9828 53.8179 35.9828H76.4527C76.5663 35.9828 76.6515 36.068 76.6515 36.1816C76.6515 36.2952 76.5663 36.3804 76.4527 36.3804Z" fill="#D1D3D4"/>
<path d="M77.6741 40.1861H52.6253C52.5117 40.1861 52.4265 40.1009 52.4265 39.9873C52.4265 39.8737 52.5117 39.7885 52.6253 39.7885H77.6741C77.7877 39.7885 77.8729 39.8737 77.8729 39.9873C77.8729 40.1009 77.7877 40.1861 77.6741 40.1861Z" fill="#D1D3D4"/>
<path d="M77.6741 43.9916H52.6253C52.5117 43.9916 52.4265 43.9064 52.4265 43.7928C52.4265 43.6792 52.5117 43.594 52.6253 43.594H77.6741C77.7877 43.594 77.8729 43.6792 77.8729 43.7928C77.8729 43.9064 77.7877 43.9916 77.6741 43.9916Z" fill="#D1D3D4"/>
<path d="M76.4527 47.8256H53.8179C53.7043 47.8256 53.6191 47.7404 53.6191 47.6268C53.6191 47.5132 53.7043 47.428 53.8179 47.428H76.4527C76.5663 47.428 76.6515 47.5132 76.6515 47.6268C76.6515 47.7404 76.5663 47.8256 76.4527 47.8256Z" fill="#D1D3D4"/>
<path d="M73.4709 51.6312H56.8001C56.6865 51.6312 56.6013 51.546 56.6013 51.4324C56.6013 51.3188 56.6865 51.2336 56.8001 51.2336H73.4993C73.6129 51.2336 73.6981 51.3188 73.6981 51.4324C73.6981 51.546 73.6129 51.6312 73.4709 51.6312C73.4993 51.6312 73.4993 51.6312 73.4709 51.6312Z" fill="#D1D3D4"/>
<path d="M67.0241 39.9872H63.2185V43.7928H67.0241V39.9872Z" fill="#D1D3D4"/>
<path d="M67.0525 43.9916H63.2469C63.1333 43.9916 63.0481 43.9064 63.0481 43.7928V39.9873C63.0481 39.8737 63.1333 39.7885 63.2469 39.7885H67.0525C67.1661 39.7885 67.2513 39.8737 67.2513 39.9873V43.7928C67.2513 43.9064 67.1661 43.9916 67.0525 43.9916ZM63.4173 43.5941H66.8253V40.1861H63.4173V43.5941Z" fill="#D1D3D4"/>
<path d="M70.8581 43.7927H67.0525V47.5983H70.8581V43.7927Z" fill="#D1D3D4"/>
<path d="M70.8582 47.8256H67.0526C66.939 47.8256 66.8538 47.7404 66.8538 47.6268V43.8212C66.8538 43.7076 66.939 43.6224 67.0526 43.6224H70.8582C70.9718 43.6224 71.057 43.7076 71.057 43.8212V47.6268C71.057 47.7404 70.9718 47.8256 70.8582 47.8256ZM67.2514 47.428H70.6594V44.02H67.2514V47.428Z" fill="#D1D3D4"/>
<path d="M59.4128 36.0396H55.6072V39.8452H59.4128V36.0396Z" fill="#D1D3D4"/>
<path d="M59.4128 40.044H55.6072C55.4936 40.044 55.4084 39.9588 55.4084 39.8452V36.0396C55.4084 35.926 55.4936 35.8408 55.6072 35.8408H59.4128C59.5264 35.8408 59.6116 35.926 59.6116 36.0396V39.8452C59.6116 39.9588 59.5264 40.044 59.4128 40.044ZM55.806 39.6464H59.214V36.2384H55.806V39.6464Z" fill="#D1D3D4"/>
<path d="M70.8581 32.3475H67.0525V36.1531H70.8581V32.3475Z" fill="#D1D3D4"/>
<path d="M70.8582 36.3803H67.0526C66.939 36.3803 66.8538 36.2951 66.8538 36.1815V32.3759C66.8538 32.2623 66.939 32.1771 67.0526 32.1771H70.8582C70.9718 32.1771 71.057 32.2623 71.057 32.3759V36.1815C71.057 36.2951 70.9718 36.3803 70.8582 36.3803ZM67.2514 35.9827H70.6594V32.5747H67.2514V35.9827Z" fill="#D1D3D4"/>
<path d="M74.6635 39.9872H70.8579V43.7928H74.6635V39.9872Z" fill="#D1D3D4"/>
<path d="M74.692 43.9916H70.858C70.7444 43.9916 70.6592 43.9064 70.6592 43.7928V39.9873C70.6592 39.8737 70.7444 39.7885 70.858 39.7885H74.692C74.8056 39.7885 74.8908 39.8737 74.8908 39.9873V43.7928C74.8908 43.9064 74.8056 43.9916 74.692 43.9916ZM71.0852 43.5941H74.4932V40.1861H71.0852V43.5941Z" fill="#D1D3D4"/>
<path d="M63.2184 47.6268H59.4128V51.4324H63.2184V47.6268Z" fill="#D1D3D4"/>
<path d="M63.2183 51.6312H59.4127C59.2991 51.6312 59.2139 51.546 59.2139 51.4324V47.6268C59.2139 47.5132 59.2991 47.428 59.4127 47.428H63.2183C63.3319 47.428 63.4171 47.5132 63.4171 47.6268V51.4324C63.4171 51.546 63.3319 51.6312 63.2183 51.6312ZM59.6115 51.2336H63.0195V47.8256H59.6115V51.2336Z" fill="#D1D3D4"/>
<path d="M67.0525 26.7244H63.2469C63.1333 26.7244 63.0481 26.6392 63.0481 26.5256C63.0481 26.412 63.1333 26.3268 63.2469 26.3268H67.0525C67.1661 26.3268 67.2513 26.412 67.2513 26.5256C67.2513 26.6108 67.1661 26.7244 67.0525 26.7244Z" fill="#D1D3D4"/>
<path d="M50.2679 34.2788C50.2395 34.2788 50.1827 34.2788 50.1543 34.2504C48.9615 33.512 47.7403 32.8588 46.4623 32.2908C46.3771 32.234 46.3203 32.1204 46.3487 32.0352C46.4055 31.9216 46.5191 31.8932 46.6043 31.9216C47.8823 32.518 49.1319 33.1712 50.3531 33.9096C50.4383 33.9664 50.4951 34.08 50.4383 34.1652C50.4383 34.1652 50.4383 34.1652 50.4383 34.1936C50.4099 34.2504 50.3247 34.3072 50.2679 34.2788Z" fill="#D1D3D4"/>
<path d="M80.145 54.1587C80.0882 54.1587 80.0314 54.1303 80.003 54.0735L77.6458 51.0631C77.589 50.9779 77.589 50.8643 77.6742 50.7791C77.7594 50.7223 77.873 50.7223 77.9582 50.8075L80.3154 53.8179C80.3722 53.9031 80.3722 54.0167 80.287 54.1019C80.2586 54.1303 80.2018 54.1587 80.145 54.1587Z" fill="#D1D3D4"/>
<path d="M81.1673 41.0096C81.0537 41.0096 80.9685 40.9244 80.9685 40.8108C80.9685 40.7256 81.0253 40.6404 81.1105 40.612L83.8085 39.7884C83.9221 39.76 84.0357 39.8168 84.0641 39.9304C84.0925 40.044 84.0357 40.1576 83.9221 40.186L81.2241 41.0096C81.1957 41.0096 81.1957 41.0096 81.1673 41.0096Z" fill="#D1D3D4"/>
<path d="M54.6415 57.2543C54.5847 57.2543 54.5563 57.2259 54.5279 57.2259C54.4427 57.1691 54.4427 57.0271 54.4995 56.9419L56.6579 54.3007C56.7147 54.2155 56.8283 54.1871 56.9419 54.2439C57.0271 54.3007 57.0555 54.4143 56.9987 54.5279L56.9703 54.5563L54.8119 57.1975C54.7551 57.2259 54.6983 57.2543 54.6415 57.2543Z" fill="#D1D3D4"/>
<path d="M49.2455 47.8823C49.1603 47.8823 49.0751 47.8255 49.0467 47.7687C49.0183 47.6551 49.0751 47.5415 49.1603 47.5131L51.5459 46.6043C51.6595 46.5759 51.7731 46.6327 51.8015 46.7179C51.8299 46.8315 51.7731 46.9451 51.6879 46.9735L49.3023 47.8823C49.2739 47.8823 49.2455 47.8823 49.2455 47.8823Z" fill="#D1D3D4"/>
</svg>
