<svg width="170" height="170" viewBox="0 0 170 170" fill="none" xmlns="http://www.w3.org/2000/svg">
<path d="M146.064 46.8521C146.064 46.8521 145.758 43.1801 138.414 44.2341C138.414 44.2341 137.19 36.7201 128.01 35.8021C121.108 35.1221 117.606 39.7801 117.606 39.7801C117.606 39.7801 114.24 36.4141 110.262 38.5561C106.284 40.6981 106.59 42.7041 106.59 42.7041C106.59 42.7041 100.776 41.4801 99.6881 44.4041C96.0841 43.0441 93.0921 44.4041 87.5841 45.3221C83.3341 46.0361 75.9561 46.2061 75.9561 46.2061L146.064 46.8521Z" fill="white"/>
<path d="M146.064 47.124L75.9219 46.512C75.7859 46.512 75.6499 46.41 75.6499 46.24C75.6499 46.07 75.7519 45.968 75.9219 45.968C75.9899 45.968 83.3339 45.764 87.5159 45.05C88.9099 44.812 90.1679 44.54 91.2559 44.302C94.4859 43.622 96.8319 43.112 99.5179 44.064C100.708 41.616 105.094 42.194 106.318 42.398C106.386 41.718 106.964 40.052 110.126 38.352C113.662 36.448 116.756 38.76 117.572 39.44C118.388 38.522 121.924 34.952 128.044 35.564C136.374 36.38 138.312 42.636 138.618 43.962C141.644 43.554 143.82 43.894 145.18 44.948C145.792 45.39 146.2 46.07 146.336 46.818C146.336 46.886 146.302 46.954 146.268 47.022C146.2 47.09 146.132 47.124 146.064 47.124ZM83.6059 46.036L145.724 46.58C145.554 46.07 145.214 45.662 144.806 45.322C143.956 44.642 142.12 43.928 138.414 44.472C138.278 44.506 138.142 44.404 138.108 44.268C138.074 43.962 136.782 36.958 127.908 36.04C121.21 35.36 117.742 39.882 117.708 39.916C117.674 39.984 117.606 40.018 117.538 40.018C117.47 40.018 117.402 39.984 117.334 39.95C117.198 39.814 114.036 36.754 110.296 38.76C106.556 40.766 106.76 42.602 106.76 42.636C106.794 42.772 106.692 42.908 106.556 42.908C106.522 42.908 106.488 42.908 106.454 42.908C106.386 42.908 100.844 41.752 99.8579 44.438C99.8239 44.506 99.7899 44.54 99.7219 44.574C99.6539 44.608 99.5859 44.608 99.5179 44.574C96.8659 43.554 94.5539 44.064 91.3239 44.778C90.2359 45.016 88.9779 45.288 87.5839 45.526C86.4279 45.764 85.0339 45.934 83.6059 46.036Z" fill="#231F20"/>
<path d="M86.224 63.954C86.224 63.954 85.918 60.282 78.574 61.336C78.574 61.336 77.35 53.822 68.17 52.904C61.268 52.224 57.766 56.882 57.766 56.882C57.766 56.882 54.4 53.516 50.422 55.658C46.444 57.8 46.75 59.806 46.75 59.806C46.75 59.806 40.936 58.582 39.848 61.472C36.21 60.078 33.252 61.472 27.744 62.39C23.494 63.104 16.116 63.308 16.116 63.308L86.224 63.954Z" fill="white"/>
<path d="M86.2242 64.2261L16.0822 63.5801C15.9462 63.5801 15.8442 63.4781 15.8442 63.3421C15.8442 63.2061 15.9462 63.1041 16.0822 63.0701C16.1502 63.0701 23.4942 62.8661 27.6762 62.1521C29.0702 61.9141 30.3282 61.6421 31.4162 61.4041C34.6462 60.7241 36.9922 60.2141 39.6782 61.1661C40.8682 58.7181 45.2542 59.2961 46.4782 59.5001C46.5462 58.8201 47.1242 57.1541 50.2862 55.4541C53.8222 53.5501 56.9162 55.8281 57.7322 56.5421C58.5482 55.6241 62.0842 52.0541 68.2042 52.6661C76.5342 53.4821 78.4722 59.7381 78.7782 61.0641C81.8042 60.6561 83.9802 60.9961 85.3402 62.0501C85.9522 62.4921 86.3602 63.1721 86.4962 63.9201C86.4962 63.9881 86.4962 64.0561 86.4282 64.1241C86.3602 64.1581 86.2922 64.1921 86.2242 64.2261ZM23.7662 63.1381L85.8842 63.6821C85.7142 63.1721 85.3742 62.7301 84.9662 62.4241C84.0822 61.7441 82.2802 61.0301 78.5742 61.5741C78.4382 61.6081 78.3022 61.5061 78.2682 61.3701C78.2342 61.0641 76.9422 54.0601 68.0682 53.1761C61.3702 52.4961 57.9022 57.0181 57.8682 57.0521C57.8342 57.1201 57.7662 57.1541 57.6642 57.1541C57.5962 57.1541 57.5282 57.1201 57.4602 57.0861C57.3242 56.9501 54.1622 53.8901 50.4222 55.8961C46.6822 57.9021 46.9202 59.7721 46.9202 59.7721C46.9202 59.8401 46.8862 59.9421 46.8522 59.9761C46.7842 60.0441 46.7162 60.0441 46.6142 60.0441C46.5462 60.0441 41.0042 58.8881 40.0182 61.5741C39.9842 61.7101 39.8142 61.7781 39.6782 61.7441C37.0602 60.7241 34.7142 61.2341 31.4842 61.9481C30.3962 62.1861 29.1382 62.4581 27.7102 62.6961C26.5882 62.8661 25.1942 63.0361 23.7662 63.1381Z" fill="#231F20"/>
<path d="M136.034 121.448C133.552 121.448 132.294 120.734 131.07 120.054C129.846 119.374 128.724 118.728 126.378 118.728C124.032 118.728 122.876 119.374 121.686 120.054C120.496 120.734 119.204 121.448 116.722 121.448C114.24 121.448 112.982 120.734 111.758 120.054C110.534 119.374 109.412 118.728 107.066 118.728C104.72 118.728 103.564 119.374 102.374 120.054C101.184 120.734 99.8919 121.448 97.4099 121.448C94.9279 121.448 93.6699 120.734 92.4459 120.054C91.2219 119.374 90.0999 118.728 87.7539 118.728C85.4079 118.728 84.2519 119.374 83.0619 120.054C81.8719 120.734 80.5799 121.448 78.0979 121.448C75.6159 121.448 74.3579 120.734 73.1339 120.054C71.9099 119.374 70.7879 118.728 68.4419 118.728C66.0959 118.728 64.9399 119.374 63.7499 120.054C62.5599 120.734 61.2679 121.448 58.7859 121.448C56.3039 121.448 55.0459 120.734 53.8219 120.054C52.5979 119.374 51.4759 118.728 49.1299 118.728C46.7839 118.728 45.6279 119.374 44.4379 120.054C43.2479 120.734 41.9559 121.448 39.4739 121.448C36.9919 121.448 35.7339 120.734 34.5099 120.054C33.2859 119.374 32.1639 118.728 29.8179 118.728C27.4719 118.728 26.3159 119.374 25.1259 120.054C23.9359 120.734 22.6439 121.448 20.1619 121.448C17.6799 121.448 16.4219 120.734 15.1979 120.054C13.9739 119.374 12.8519 118.728 10.5059 118.728C10.3699 118.728 10.2339 118.626 10.2339 118.456C10.2339 118.286 10.3359 118.184 10.5059 118.184C12.9879 118.184 14.2459 118.898 15.4699 119.578C16.6939 120.258 17.8159 120.904 20.1619 120.904C22.5079 120.904 23.6639 120.258 24.8539 119.578C26.0439 118.898 27.3359 118.184 29.8179 118.184C32.2999 118.184 33.5579 118.898 34.7819 119.578C36.0059 120.258 37.1279 120.904 39.4739 120.904C41.8199 120.904 42.9759 120.258 44.1659 119.578C45.3559 118.898 46.6479 118.184 49.1299 118.184C51.6119 118.184 52.8699 118.898 54.0939 119.578C55.3179 120.258 56.4399 120.904 58.7859 120.904C61.1319 120.904 62.2879 120.258 63.4779 119.578C64.6679 118.898 65.9599 118.184 68.4419 118.184C70.9239 118.184 72.1819 118.898 73.4059 119.578C74.6299 120.258 75.7519 120.904 78.0979 120.904C80.4439 120.904 81.5999 120.258 82.7899 119.578C83.9799 118.898 85.2719 118.184 87.7539 118.184C90.2359 118.184 91.4939 118.898 92.7179 119.578C93.9419 120.258 95.0639 120.904 97.4099 120.904C99.7559 120.904 100.912 120.258 102.102 119.578C103.292 118.898 104.584 118.184 107.066 118.184C109.548 118.184 110.806 118.898 112.03 119.578C113.254 120.258 114.376 120.904 116.722 120.904C119.068 120.904 120.224 120.258 121.414 119.578C122.604 118.898 123.896 118.184 126.378 118.184C128.86 118.184 130.118 118.898 131.342 119.578C132.566 120.258 133.688 120.904 136.034 120.904C138.38 120.904 139.536 120.258 140.726 119.578C141.916 118.898 143.208 118.184 145.69 118.184C145.826 118.184 145.962 118.286 145.962 118.456C145.962 118.626 145.86 118.728 145.69 118.728C143.344 118.728 142.188 119.374 140.998 120.054C139.808 120.734 138.516 121.448 136.034 121.448Z" fill="#231F20"/>
<path d="M101.66 102.17C101.66 102.17 102.782 108.698 96.5261 110.704C90.2701 112.71 75.0042 108.222 75.0042 108.222C75.0042 108.222 79.0841 101.082 83.5721 101.184C88.0941 101.32 101.66 102.17 101.66 102.17Z" fill="#231F20"/>
<path d="M92.344 111.486C85.306 111.486 75.446 108.63 74.936 108.46C74.868 108.426 74.8 108.392 74.766 108.324C74.732 108.256 74.732 108.154 74.766 108.086C74.936 107.78 78.982 100.81 83.572 100.946C88.026 101.048 101.524 101.898 101.66 101.932C101.762 101.932 101.864 102.034 101.898 102.136C101.898 102.204 102.952 108.902 96.594 110.942C95.234 111.35 93.772 111.52 92.344 111.486ZM75.412 108.086C77.656 108.698 90.882 112.268 96.492 110.466C101.898 108.732 101.592 103.53 101.456 102.408C99.722 102.306 87.754 101.558 83.606 101.456H83.504C79.73 101.456 76.194 106.76 75.412 108.086Z" fill="#231F20"/>
<path d="M101.796 88.774L104.38 88.23C104.244 87.992 103.054 81.192 101.082 79.934C99.3819 78.54 95.9819 78.37 92.1399 78.234C90.7799 78.098 89.3859 78.2 88.0599 78.506C85.1699 79.322 82.3479 80.376 79.6279 81.634L84.1839 87.584L86.1899 86.7C85.1019 91.63 84.3539 96.628 83.9459 101.694C83.9459 101.694 90.9839 103.292 102.034 102.68C101.966 102.646 101.66 89.93 101.796 88.774Z" fill="black"/>
<path d="M83.7759 86.8361C83.7759 86.8361 79.8659 90.3721 77.3839 90.3721C75.7519 90.3721 73.9159 77.2141 74.8679 75.0721C74.6299 74.8341 76.7039 78.1661 77.8939 79.0841C78.2679 79.3901 78.9479 83.2321 79.5259 83.5721C79.8999 83.3001 80.9199 82.3481 80.9199 82.3481L83.7759 86.8361Z" fill="white"/>
<path d="M77.3839 90.644C77.1119 90.644 76.8739 90.474 76.6359 90.1C75.1399 87.822 73.7459 77.35 74.5619 75.072V75.038C74.5959 74.936 74.6639 74.868 74.7319 74.834C74.8339 74.8 74.9359 74.834 75.0039 74.902C75.0379 74.936 75.0719 75.004 75.0719 75.072C75.3439 75.548 77.0099 78.132 77.9959 78.914C78.1999 79.084 78.3699 79.594 78.7099 80.92C78.9139 81.736 79.1519 82.518 79.4919 83.266C79.9339 82.926 80.6819 82.212 80.6819 82.212C80.7499 82.178 80.8179 82.144 80.8859 82.144C80.9539 82.144 81.0219 82.212 81.0559 82.246L83.9799 86.7C84.0479 86.802 84.0479 86.938 83.9459 87.04C83.7759 87.176 79.9339 90.644 77.3839 90.644ZM74.9359 75.786C74.4939 78.71 75.8199 87.924 77.0779 89.828C77.2819 90.134 77.3839 90.134 77.3839 90.134C79.4579 90.134 82.6879 87.448 83.4359 86.802L80.8519 82.756C80.5119 83.062 79.9339 83.572 79.6619 83.776C79.5599 83.844 79.4579 83.844 79.3899 83.776C79.0159 83.538 78.7099 82.586 78.3019 80.988C78.1659 80.376 77.9959 79.798 77.7239 79.254C77.0779 78.778 75.6159 76.874 74.9359 75.786Z" fill="#231F20"/>
<path d="M95.2339 68.68C94.5199 68.374 93.0579 68.068 92.3099 67.864C91.5619 67.66 88.4339 67.592 88.7059 69.768C88.7739 70.822 89.2499 71.774 90.0659 72.42C90.5419 72.794 91.0179 73.134 91.5619 73.406L92.6499 74.052C93.7719 74.698 95.3019 75.276 96.5939 74.732C98.2939 74.052 98.4639 70.006 95.2339 68.68Z" fill="#231F20"/>
<path d="M95.5061 75.2419C94.4521 75.1739 93.4321 74.8679 92.5141 74.2899L91.4261 73.6439C90.8821 73.3379 90.3721 72.9979 89.8961 72.6239C89.0461 71.9099 88.5021 70.8899 88.4341 69.8019C88.3321 69.1899 88.5701 68.5779 89.0121 68.2039C89.9981 67.3539 91.8341 67.4899 92.3781 67.6259C92.5821 67.6939 92.8541 67.7619 93.1601 67.8299C93.9081 67.9999 94.6221 68.2039 95.3361 68.4419C96.9681 69.0879 98.0561 70.6519 98.0561 72.4199C98.0561 73.6439 97.5461 74.6639 96.7301 75.0039C96.3561 75.1399 95.9481 75.2419 95.5061 75.2419ZM91.3921 68.0339C90.7121 68.0339 89.8621 68.1699 89.3861 68.5779C89.0461 68.8499 88.9101 69.2919 88.9781 69.7339C89.0461 70.7199 89.5221 71.6039 90.2701 72.2499C90.7121 72.6239 91.2221 72.9299 91.7321 73.2019L92.8201 73.8479C93.8401 74.4599 95.3361 75.0379 96.5601 74.5279C97.1721 74.2559 97.5801 73.4059 97.5801 72.4199C97.5801 70.8559 96.6281 69.4619 95.2001 68.9179C94.5201 68.6799 93.8061 68.4759 93.0921 68.3399L92.3101 68.1359C91.9701 68.0679 91.6981 68.0339 91.3921 68.0339Z" fill="#231F20"/>
<path d="M90.8141 77.316L90.7801 80.478C90.7801 80.478 91.2561 82.11 93.1941 81.736C94.3501 81.498 95.3361 80.784 95.8801 79.73L96.1181 74.392C96.1181 74.392 94.7581 73.576 95.3021 70.55C93.7041 71.128 92.0041 71.298 90.3381 70.992C90.3381 70.992 89.3181 74.256 89.4881 75.752C89.6581 77.248 90.8141 77.35 90.8141 77.316Z" fill="white"/>
<path d="M92.6159 82.076C91.6639 82.076 90.8139 81.498 90.5079 80.58C90.5079 80.546 90.5079 80.512 90.5079 80.512L90.5419 77.554C89.7599 77.316 89.2159 76.602 89.1819 75.786C89.0119 74.256 90.0319 71.06 90.0659 70.924C90.0999 70.788 90.2359 70.72 90.3719 70.754C91.9699 71.026 93.6359 70.89 95.1999 70.346C95.3359 70.312 95.4719 70.38 95.5399 70.482C95.5399 70.516 95.5739 70.55 95.5399 70.618C95.0299 73.406 96.2199 74.188 96.2199 74.222C96.2879 74.256 96.3559 74.358 96.3559 74.46L96.1179 79.832C96.1179 79.866 96.1179 79.9 96.0839 79.934C95.5059 81.056 94.4519 81.838 93.2279 82.076C92.9899 82.042 92.8199 82.076 92.6159 82.076ZM91.0179 80.478C91.0859 80.682 91.5959 81.804 93.1259 81.532C94.1799 81.328 95.0639 80.648 95.6079 79.73L95.8459 74.562C95.5059 74.29 94.6559 73.304 94.9959 70.958C93.5679 71.4 92.0379 71.536 90.5419 71.298C90.3379 72.046 89.6239 74.528 89.7599 75.718C89.8959 76.908 90.7119 77.044 90.8479 77.078C90.9159 77.078 90.9499 77.112 91.0179 77.146C91.0859 77.214 91.1199 77.282 91.1199 77.384L91.0179 80.478Z" fill="#231F20"/>
<path d="M94.9958 74.256C95.2338 73.338 96.8319 72.794 97.2399 73.882C97.5119 75.106 96.1859 76.296 95.0299 75.684" fill="white"/>
<path d="M95.6761 76.0921C95.4041 76.0921 95.1321 76.0241 94.8941 75.8881C94.7581 75.8201 94.7241 75.6501 94.7921 75.5481C94.8601 75.4461 94.9961 75.3781 95.1321 75.4461C95.5401 75.6841 96.0501 75.6161 96.4241 75.3101C96.8661 75.0041 97.0701 74.4601 97.0021 73.9161C96.9001 73.6441 96.6281 73.4741 96.3561 73.5081C95.8801 73.5421 95.4381 73.8481 95.2681 74.2901C95.2341 74.4261 95.0981 74.4941 94.9621 74.4601C94.8261 74.4261 94.7581 74.2901 94.7921 74.1541C95.0301 73.4741 95.6421 73.0321 96.3561 72.9981C96.8661 72.9641 97.3421 73.2701 97.5121 73.7461V73.7801C97.6481 74.4941 97.3761 75.2421 96.7641 75.6841C96.3901 75.9561 96.0501 76.0921 95.6761 76.0921Z" fill="#231F20"/>
<path d="M90.7458 79.1519C91.4598 79.0499 92.1059 78.7439 92.6839 78.2679C93.5679 77.5199 93.4999 77.0439 93.4999 77.0439C93.4999 77.0439 92.1058 77.7239 90.8818 77.4179L90.7458 79.1519Z" fill="#231F20"/>
<path d="M90.7461 79.39C90.6101 79.39 90.5081 79.322 90.5081 79.186C90.5081 79.152 90.5081 79.152 90.5081 79.118L90.6441 77.35C90.6441 77.214 90.7801 77.112 90.9161 77.112H90.9501C92.0721 77.384 93.3641 76.772 93.3981 76.772C93.4661 76.738 93.5681 76.738 93.6361 76.772C93.7041 76.806 93.772 76.874 93.772 76.976C93.772 77.078 93.7721 77.622 92.8541 78.438C92.2761 78.948 91.5621 79.254 90.7801 79.39H90.7461ZM91.1201 77.69L91.0181 78.812C91.5621 78.676 92.0721 78.404 92.5141 78.064C92.7181 77.894 92.9221 77.69 93.0581 77.452C92.4121 77.69 91.7661 77.758 91.1201 77.69Z" fill="#231F20"/>
<path d="M91.6298 73.032C91.6298 73.032 90.5078 74.426 90.7118 74.698C90.9158 74.97 91.5958 74.868 91.5958 74.868" fill="white"/>
<path d="M91.2901 75.1401C90.9841 75.1741 90.7121 75.0721 90.5081 74.8341C90.4401 74.7321 90.1681 74.3921 91.4261 72.8621C91.5281 72.7601 91.6641 72.7261 91.7661 72.8281C91.8681 72.9301 91.9021 73.0661 91.8001 73.2021C91.4261 73.6101 91.1541 74.0861 90.9161 74.5961C91.1201 74.6641 91.3241 74.6981 91.5281 74.6301C91.6641 74.5961 91.8001 74.6981 91.8341 74.8341C91.8681 74.9701 91.7661 75.1061 91.6301 75.1401C91.5281 75.1401 91.4261 75.1401 91.2901 75.1401Z" fill="#231F20"/>
<path d="M92.82 73.372C92.9515 73.372 93.058 73.2198 93.058 73.032C93.058 72.8442 92.9515 72.692 92.82 72.692C92.6886 72.692 92.582 72.8442 92.582 73.032C92.582 73.2198 92.6886 73.372 92.82 73.372Z" fill="#231F20"/>
<path d="M90.7247 72.8924C90.78 72.713 90.723 72.5361 90.5974 72.4974C90.4718 72.4587 90.3251 72.5728 90.2698 72.7522C90.2145 72.9317 90.2715 73.1085 90.3971 73.1472C90.5227 73.1859 90.6694 73.0719 90.7247 72.8924Z" fill="#231F20"/>
<path d="M90.678 75.8879C90.678 75.8879 91.12 76.2619 92.106 76.0919Z" fill="white"/>
<path d="M91.6299 76.398C91.2219 76.432 90.8479 76.33 90.5079 76.092C90.4059 75.99 90.3719 75.854 90.4739 75.718C90.5759 75.616 90.7119 75.616 90.8139 75.684C91.1879 75.888 91.6299 75.956 92.0379 75.854C92.1739 75.82 92.3099 75.922 92.3439 76.058C92.3779 76.194 92.2759 76.33 92.1399 76.364C91.9359 76.398 91.7999 76.398 91.6299 76.398Z" fill="#231F20"/>
<path d="M97.1381 89.9641C97.0701 89.9641 97.0021 89.9301 96.9681 89.8961C96.9001 89.8621 96.8661 89.7601 96.9001 89.6921L97.0701 87.0061C97.0701 86.8701 97.2061 86.7681 97.3421 86.7681C97.4781 86.7681 97.5801 86.9041 97.5801 87.0401L97.4441 89.4201L98.2941 89.3181C98.4301 89.2841 98.5661 89.3861 98.6001 89.5221C98.6001 89.6581 98.5321 89.7941 98.3961 89.8281L97.2401 89.9981L97.1381 89.9641Z" fill="#231F20"/>
<path d="M128.282 91.562C128.282 91.562 123.896 96.968 121.38 96.968C119.748 96.968 114.886 91.902 114.138 91.154C113.832 90.814 113.492 90.474 113.118 90.168C112.54 89.794 111.928 89.454 111.282 89.148C110.636 88.808 110.058 88.332 109.616 87.72C109.446 87.482 109.344 87.21 109.344 86.904C109.378 86.156 110.704 85.578 111.316 85.612C112.03 85.646 114.954 87.38 115.702 87.448C117.402 88.842 119.17 90.134 121.006 91.29C122.672 89.692 123.93 89.182 123.93 89.182" fill="white"/>
<path d="M121.38 97.2059C120.292 97.2059 117.946 95.3359 114.172 91.5619L113.934 91.3239C113.832 91.2219 113.73 91.0859 113.594 90.9839C113.39 90.7459 113.186 90.5419 112.948 90.3379C112.608 90.0999 112.234 89.8619 111.826 89.6919C111.588 89.5899 111.384 89.4539 111.146 89.3519C110.466 88.9779 109.854 88.4679 109.412 87.8559C109.208 87.5839 109.106 87.2439 109.106 86.8699C109.174 85.9519 110.636 85.3059 111.35 85.3399C111.758 85.3399 112.506 85.7139 113.73 86.3259C114.546 86.6999 115.43 87.1759 115.736 87.1759C115.77 87.1759 115.838 87.2099 115.872 87.2439C117.504 88.5699 119.204 89.8279 120.972 90.9839C121.788 90.1679 122.774 89.4539 123.828 88.9439C123.964 88.8759 124.1 88.9439 124.168 89.0799C124.236 89.2159 124.168 89.3519 124.032 89.4199C122.978 89.9639 122.026 90.6439 121.21 91.4939C121.142 91.5619 121.006 91.5959 120.904 91.5279C119.068 90.3719 117.3 89.0799 115.634 87.6859C114.886 87.4479 114.206 87.1419 113.526 86.7679C112.71 86.3599 111.656 85.8499 111.35 85.8499C110.772 85.8499 109.65 86.3939 109.616 86.9039C109.616 87.1419 109.684 87.3799 109.854 87.5499C110.262 88.1279 110.806 88.6039 111.418 88.9099C111.622 89.0459 111.826 89.1479 112.064 89.2499C112.472 89.4539 112.88 89.6919 113.288 89.9639C113.56 90.1679 113.798 90.4059 114.002 90.6439C114.104 90.7459 114.206 90.8479 114.308 90.9839L114.546 91.2219C119.034 95.7779 120.734 96.7299 121.38 96.7299C123.726 96.7299 128.01 91.4939 128.044 91.4259C128.146 91.3239 128.282 91.2899 128.418 91.3919C128.52 91.4939 128.554 91.6299 128.452 91.7319C128.282 91.9699 123.964 97.2059 121.38 97.2059Z" fill="#231F20"/>
<path d="M141.78 106.454C141.78 106.454 142.902 112.982 136.68 114.988C130.458 116.994 115.158 112.506 115.158 112.506C115.158 112.506 119.238 105.366 123.726 105.468C128.214 105.57 141.78 106.454 141.78 106.454Z" fill="#231F20"/>
<path d="M132.464 115.77C125.426 115.77 115.566 112.914 115.056 112.744C114.988 112.71 114.92 112.676 114.886 112.608C114.852 112.54 114.852 112.438 114.886 112.37C115.056 112.064 119.034 105.23 123.59 105.23H123.692C128.146 105.332 141.644 106.182 141.78 106.216C141.882 106.216 141.984 106.318 142.018 106.42C142.018 106.488 143.072 113.186 136.714 115.26C135.32 115.668 133.892 115.838 132.464 115.77ZM115.532 112.37C117.742 112.982 131.002 116.552 136.612 114.75C142.018 113.016 141.712 107.814 141.576 106.692C139.842 106.59 127.874 105.842 123.726 105.74C119.884 105.672 116.314 111.078 115.532 112.37Z" fill="#231F20"/>
<path d="M133.96 81.634C136.068 84.218 139.876 83.096 141.236 82.076C142.562 81.328 143.888 78.37 142.12 75.786C139.672 72.08 134.266 71.468 134.266 74.63C132.532 75.956 131.342 78.778 133.96 81.634Z" fill="#231F20"/>
<path d="M137.564 83.47C136.102 83.538 134.708 82.926 133.79 81.804C132.634 80.546 132.09 79.186 132.192 77.826C132.328 76.5 133.008 75.31 134.028 74.494C134.028 73.542 134.674 72.692 135.592 72.488C137.462 71.91 140.624 73.066 142.358 75.65C143.174 76.84 143.412 78.302 143.106 79.662C142.834 80.818 142.154 81.872 141.372 82.314C140.25 83.062 138.924 83.47 137.564 83.47ZM136.68 72.828C136.374 72.828 136.068 72.862 135.762 72.964C135.014 73.134 134.504 73.848 134.538 74.63C134.538 74.698 134.504 74.8 134.436 74.834C133.45 75.548 132.838 76.67 132.702 77.86C132.6 79.084 133.076 80.308 134.164 81.464C136.204 83.946 139.91 82.756 141.1 81.872C141.882 81.328 142.426 80.478 142.596 79.526C142.902 78.268 142.664 76.976 141.916 75.922C140.59 73.916 138.346 72.828 136.68 72.828Z" fill="#231F20"/>
<path d="M148.75 95.4719C148.614 95.1999 144.908 86.3939 143.378 85.3399C141.848 84.2859 133.518 82.9259 131.512 84.0819C129.064 85.6119 121.278 90.4399 121.278 90.4399L125.29 95.5059L128.622 93.8399C128.622 93.8399 128.214 98.0219 126.582 105.91C126.582 105.91 131.274 107.27 142.29 106.658C142.29 106.658 142.086 102.986 141.95 100.878C141.746 97.5459 141.746 96.1179 141.678 95.3359C141.78 95.6419 148.75 95.4719 148.75 95.4719Z" fill="black"/>
<path d="M134.164 81.464L133.756 84.592C133.756 84.592 134.062 86.258 136 86.122C137.156 86.02 138.244 85.408 138.89 84.422L139.74 79.152C139.74 79.152 138.006 79.492 138.89 76.568C138.89 76.568 135.66 76.296 134.402 75.14C134.606 75.276 133.246 78.404 133.008 79.764C133.008 81.226 134.164 81.464 134.164 81.464Z" fill="white"/>
<path d="M135.762 86.394C134.674 86.428 133.722 85.714 133.518 84.66C133.518 84.626 133.518 84.626 133.518 84.592L133.892 81.668C133.144 81.328 132.702 80.58 132.736 79.764V79.73C132.94 78.778 133.246 77.86 133.586 76.942C133.79 76.398 133.994 75.82 134.13 75.242C134.062 75.106 134.13 74.97 134.232 74.902C134.3 74.868 134.402 74.868 134.504 74.936C134.538 74.936 134.538 74.97 134.572 75.004C135.796 76.058 138.856 76.33 138.89 76.33C138.958 76.33 139.026 76.364 139.06 76.432C139.094 76.5 139.128 76.568 139.094 76.636C138.686 78.03 138.89 78.54 139.06 78.744C139.23 78.88 139.434 78.948 139.638 78.914C139.706 78.88 139.808 78.914 139.876 78.982C139.944 79.05 139.978 79.118 139.944 79.22L139.094 84.524C139.094 84.558 139.094 84.592 139.06 84.626C138.346 85.68 137.224 86.326 135.966 86.428L135.762 86.394ZM133.994 84.626C134.062 84.83 134.402 86.02 135.966 85.918C137.02 85.816 138.006 85.272 138.618 84.388L139.4 79.458C139.128 79.424 138.856 79.322 138.686 79.118C138.312 78.676 138.244 77.928 138.516 76.84C137.734 76.738 135.762 76.466 134.538 75.65C134.47 75.956 134.3 76.432 134.028 77.146C133.688 78.03 133.416 78.914 133.178 79.832C133.178 80.988 133.994 81.26 134.13 81.294C134.198 81.294 134.232 81.328 134.3 81.362C134.368 81.43 134.368 81.498 134.368 81.6L133.994 84.626Z" fill="#231F20"/>
<path d="M138.652 78.88C138.992 77.996 140.658 77.622 140.93 78.744C141.066 79.968 139.604 81.022 138.55 80.274" fill="white"/>
<path d="M139.298 80.818C138.958 80.818 138.652 80.7161 138.38 80.5121C138.278 80.4441 138.244 80.2741 138.312 80.1721C138.38 80.0701 138.55 80.0361 138.652 80.1041C139.026 80.3761 139.536 80.376 139.944 80.138C140.42 79.866 140.692 79.3561 140.658 78.8121C140.59 78.5401 140.352 78.336 140.046 78.336C139.57 78.302 139.094 78.5741 138.856 78.9821C138.822 79.1181 138.652 79.186 138.516 79.118C138.38 79.084 138.312 78.914 138.38 78.778C138.686 78.132 139.366 77.7581 140.08 77.7921C140.59 77.7921 141.032 78.166 141.134 78.676V78.7101C141.202 79.4581 140.828 80.1721 140.182 80.5121C139.91 80.7161 139.604 80.784 139.298 80.818Z" fill="#231F20"/>
<path d="M133.892 83.266C134.606 83.232 135.32 82.994 135.898 82.586C136.85 81.94 136.85 81.464 136.85 81.464C136.85 81.464 135.388 81.974 134.198 81.532L133.892 83.266Z" fill="#231F20"/>
<path d="M133.892 83.504C133.756 83.504 133.62 83.402 133.62 83.232V83.198L133.96 81.464C133.96 81.396 134.028 81.328 134.096 81.294C134.164 81.26 134.232 81.26 134.3 81.26C135.388 81.668 136.748 81.192 136.748 81.192C136.816 81.158 136.918 81.158 136.986 81.226C137.054 81.26 137.088 81.362 137.088 81.43C137.088 81.532 137.02 82.076 136.034 82.756C135.422 83.232 134.674 83.504 133.892 83.504ZM134.402 81.872L134.198 82.994C134.742 82.926 135.286 82.722 135.762 82.416C136 82.28 136.204 82.076 136.374 81.872C135.728 82.008 135.048 82.008 134.402 81.872Z" fill="#231F20"/>
<path d="M135.728 77.418C135.728 77.418 134.47 78.676 134.64 78.982C134.81 79.288 135.49 79.254 135.49 79.254" fill="white"/>
<path d="M135.422 79.492C135.184 79.492 134.64 79.458 134.436 79.118C134.368 79.016 134.164 78.642 135.558 77.248C135.66 77.146 135.83 77.146 135.932 77.248C136.034 77.35 136.034 77.52 135.932 77.622C135.524 77.996 135.184 78.438 134.912 78.914C135.116 79.016 135.32 79.05 135.524 79.016C135.66 79.016 135.796 79.118 135.796 79.254C135.796 79.39 135.694 79.526 135.558 79.526L135.422 79.492Z" fill="#231F20"/>
<path d="M137.182 77.5608C137.202 77.3742 137.113 77.211 136.983 77.1964C136.852 77.1818 136.729 77.3212 136.708 77.5078C136.688 77.6944 136.777 77.8576 136.907 77.8722C137.038 77.8868 137.161 77.7474 137.182 77.5608Z" fill="#231F20"/>
<path d="M134.778 77.3441C134.853 77.1719 134.816 76.9898 134.695 76.9373C134.575 76.8849 134.416 76.9819 134.341 77.1541C134.266 77.3262 134.303 77.5084 134.424 77.5608C134.544 77.6133 134.703 77.5163 134.778 77.3441Z" fill="#231F20"/>
<path d="M134.776 80.1379C134.776 80.1379 134.98 80.4099 135.898 80.3419Z" fill="white"/>
<path d="M135.694 80.614C134.878 80.614 134.64 80.376 134.572 80.308C134.504 80.206 134.504 80.036 134.606 79.934C134.708 79.866 134.844 79.866 134.946 79.968C135.218 80.104 135.558 80.172 135.864 80.104C136 80.104 136.136 80.206 136.136 80.342C136.136 80.478 136.034 80.614 135.898 80.614H135.694Z" fill="#231F20"/>
<path d="M148.75 95.7101L141.508 95.6421C141.372 95.6421 141.27 95.5401 141.27 95.4041C141.27 95.2681 141.372 95.1321 141.542 95.1321L148.784 95.2001C148.92 95.2001 149.056 95.3021 149.056 95.4721C149.056 95.6421 148.886 95.7101 148.75 95.7101Z" fill="#231F20"/>
<path d="M67.422 114.172L65.348 100.538L65.892 83.0621L59.092 82.5181L59.16 82.0081L48.552 80.5801C48.552 80.5801 38.42 93.5341 37.128 95.2341C35.836 96.9341 43.928 111.622 43.928 111.622L50.898 111.316C50.898 111.316 45.356 97.1381 46.104 96.1861C46.852 95.2341 55.08 90.9161 55.08 90.9161L61.37 115.906L67.422 114.172Z" fill="#231F20"/>
<path d="M61.4041 116.144C61.3701 116.144 61.3021 116.144 61.2681 116.11C61.2001 116.076 61.1661 116.008 61.1321 115.94L54.9441 91.256C51.6461 92.99 46.8521 95.676 46.3421 96.322C46.0021 97.036 48.5861 104.516 51.1701 111.18C51.2041 111.248 51.2041 111.35 51.1361 111.418C51.1021 111.486 51.0341 111.52 50.9321 111.52L43.9621 111.826C43.8601 111.826 43.7581 111.792 43.7241 111.69C42.3641 109.208 35.6321 96.764 36.9241 95.03C38.1821 93.364 48.2121 80.512 48.3481 80.376C48.4161 80.308 48.4841 80.274 48.5861 80.274L59.1941 81.702C59.2621 81.702 59.3301 81.736 59.3641 81.804C59.3981 81.872 59.4321 81.94 59.3981 82.008L59.3641 82.246L65.8581 82.756C65.9941 82.756 66.0961 82.892 66.0961 83.028L65.5861 100.47L67.6261 114.104C67.6261 114.24 67.5581 114.342 67.4561 114.376L61.4381 116.11L61.4041 116.144ZM55.1141 90.644C55.1481 90.644 55.1821 90.6441 55.2161 90.6781C55.2841 90.7121 55.3521 90.7801 55.3521 90.8481L61.5741 115.6L67.1161 114.002L65.0761 100.572V100.538L65.6201 83.3L59.0921 82.79C59.0241 82.79 58.9561 82.756 58.9221 82.688C58.8881 82.62 58.8541 82.552 58.8881 82.484L58.9221 82.246L48.7221 80.886C47.7021 82.178 38.5901 93.84 37.4001 95.404C36.5501 96.526 41.0721 105.74 44.1661 111.384L50.6261 111.078C49.1981 107.372 45.2541 97.002 46.0021 96.05C46.7501 95.098 54.1961 91.154 55.0461 90.712C55.0461 90.678 55.0801 90.678 55.1141 90.644Z" fill="#231F20"/>
<path d="M22.168 56.406C22.8064 56.406 23.324 55.5688 23.324 54.536C23.324 53.5032 22.8064 52.666 22.168 52.666C21.5295 52.666 21.012 53.5032 21.012 54.536C21.012 55.5688 21.5295 56.406 22.168 56.406Z" fill="#231F20"/>
<path d="M59.976 48.892C59.194 48.824 55.148 47.09 54.638 49.912C54.434 51 54.162 52.088 54.944 52.938C55.352 53.346 55.828 53.754 56.304 54.094L57.324 54.842C58.344 55.624 59.84 56.372 61.166 55.964C62.9 55.454 63.58 52.224 62.458 51C62.832 49.402 60.724 48.96 59.976 48.892Z" fill="white"/>
<path d="M60.3839 56.338C59.1939 56.338 58.0039 55.658 57.1539 55.046L56.1339 54.298C55.6239 53.958 55.1479 53.55 54.7399 53.108C53.9239 52.224 54.1279 51.17 54.3319 50.15L54.3659 49.878C54.4339 49.3 54.7739 48.756 55.2499 48.45C56.4059 47.736 58.2419 48.212 59.3299 48.518C59.6019 48.586 59.8399 48.654 59.9759 48.654C60.2819 48.688 61.8459 48.858 62.4919 49.776C62.7299 50.116 62.8319 50.524 62.7299 50.932C63.2739 51.646 63.4099 52.836 63.0699 54.026C62.7299 55.148 62.0499 55.964 61.2339 56.236C60.9619 56.27 60.6899 56.338 60.3839 56.338ZM56.7799 48.552C56.3379 48.518 55.8959 48.62 55.5219 48.858C55.1479 49.096 54.9099 49.504 54.8419 49.946L54.8079 50.218C54.6379 51.204 54.4679 52.054 55.1139 52.734C55.5219 53.142 55.9639 53.516 56.4399 53.856L57.4599 54.604C58.4119 55.318 59.8059 56.066 61.0979 55.692C61.7439 55.488 62.3219 54.808 62.5939 53.856C62.8999 52.802 62.7639 51.714 62.2879 51.136C62.2199 51.068 62.2199 51 62.2199 50.898C62.3219 50.592 62.2539 50.286 62.0839 50.014C61.5399 49.266 60.1119 49.13 59.9419 49.096C59.7039 49.062 59.4659 48.994 59.2279 48.926C58.4119 48.722 57.5959 48.586 56.7799 48.552Z" fill="#231F20"/>
<path d="M64.974 60.316C63.274 58.922 59.874 58.752 56.032 58.616C54.604 58.616 53.176 58.752 51.782 59.092C48.416 60.214 44.302 62.798 44.302 62.798L47.906 68.442L49.232 67.898C49.232 67.898 48.45 74.052 47.838 82.076C47.838 82.076 54.876 83.674 65.892 83.062C65.892 83.062 65.96 60.928 64.974 60.316Z" fill="#231F20"/>
<path d="M60.894 83.436C52.836 83.436 47.838 82.348 47.77 82.314C47.634 82.28 47.566 82.178 47.566 82.042C48.076 75.31 48.722 69.836 48.892 68.306L47.974 68.68C47.872 68.714 47.736 68.68 47.668 68.578L44.064 62.934C44.03 62.866 44.03 62.798 44.03 62.73C44.064 62.662 44.098 62.594 44.132 62.56C44.166 62.526 48.314 59.942 51.646 58.82C53.074 58.48 54.536 58.31 55.964 58.344C59.908 58.48 63.274 58.616 65.042 60.078C65.28 60.248 65.756 60.758 65.96 71.876C66.062 77.418 66.062 82.96 66.062 83.028C66.062 83.164 65.96 83.266 65.824 83.266C64.124 83.402 62.458 83.436 60.894 83.436ZM48.11 81.872C49.368 82.11 55.998 83.334 65.654 82.824C65.654 74.528 65.45 61.336 64.838 60.52C63.206 59.16 59.738 59.024 56.032 58.888C54.638 58.888 53.244 59.024 51.884 59.33C49.028 60.282 45.594 62.322 44.71 62.866L48.042 68.102L49.164 67.66C49.3 67.626 49.436 67.694 49.504 67.83C49.504 67.864 49.538 67.898 49.504 67.932C49.47 68 48.688 74.052 48.11 81.872Z" fill="#231F20"/>
<path d="M54.7061 60.9959L54.7741 69.6999L54.8421 74.4259L56.6101 69.6319L59.8401 60.8259L54.7061 60.9959Z" fill="white"/>
<path d="M54.842 74.664H54.808C54.672 74.63 54.604 74.528 54.604 74.426L54.468 61.03C54.468 60.894 54.57 60.792 54.706 60.758L59.84 60.588C59.942 60.588 60.01 60.622 60.044 60.69C60.078 60.758 60.112 60.86 60.078 60.928L55.08 74.494C55.046 74.63 54.944 74.664 54.842 74.664ZM54.944 61.268L55.08 73.032L59.466 61.132L54.944 61.268Z" fill="#231F20"/>
<path d="M54.7742 69.7L54.8422 74.426L56.6102 69.632V64.124L57.1542 63.444L56.4742 62.39L55.5222 63.376L56.1342 64.09L54.7742 69.7Z" fill="#231F20"/>
<path d="M54.8421 74.664H54.8081C54.6721 74.63 54.6041 74.528 54.6041 74.426L54.5701 69.7C54.5701 69.666 54.5701 69.666 54.5701 69.632L55.8961 64.124L55.3521 63.512C55.2501 63.41 55.2501 63.274 55.3521 63.172L56.3041 62.22C56.3721 62.152 56.4401 62.152 56.5081 62.152C56.5761 62.152 56.6441 62.186 56.7121 62.254L57.3921 63.274C57.4601 63.376 57.4601 63.478 57.3921 63.58L56.9161 64.192V69.632C56.9161 69.666 56.9161 69.7 56.8821 69.734L55.1141 74.528C55.0461 74.63 54.9441 74.664 54.8421 74.664ZM55.0461 69.734L55.0801 73.032L56.3381 69.598V64.362L55.0461 69.734ZM55.8621 63.376L56.3381 63.92C56.3721 63.954 56.3721 63.954 56.3721 63.988C56.3721 63.988 56.3721 63.954 56.4061 63.954L56.8141 63.41L56.4061 62.798L55.8621 63.376Z" fill="#231F20"/>
<path d="M55.0798 57.868L54.6718 60.996C54.6718 60.996 54.9778 62.662 56.9158 62.526C58.0718 62.424 59.1258 61.812 59.8058 60.826L60.6558 55.522C60.6558 55.522 59.3978 54.57 60.2818 51.612C58.6498 52.02 56.9158 51.986 55.3178 51.51C55.3178 51.51 53.9238 54.638 53.9238 56.134C53.9238 57.63 55.0798 57.868 55.0798 57.868Z" fill="white"/>
<path d="M56.712 62.7981C55.624 62.8321 54.672 62.1181 54.434 61.0641C54.434 61.0301 54.434 60.9961 54.434 60.9961L54.808 58.0721C54.06 57.7321 53.618 56.9841 53.652 56.1681C53.652 54.6381 55.012 51.5781 55.046 51.4421C55.114 51.3401 55.216 51.2721 55.352 51.3061C56.916 51.7821 58.582 51.8161 60.18 51.4081C60.316 51.3741 60.452 51.4421 60.486 51.5781C60.486 51.6121 60.486 51.6801 60.486 51.7141C59.67 54.4341 60.758 55.3521 60.758 55.3521C60.826 55.4201 60.86 55.4881 60.86 55.5901L60.01 60.8941C60.01 60.9281 60.01 60.9621 59.976 60.9961C59.262 62.0501 58.14 62.6961 56.882 62.7981H56.712ZM54.944 60.9961C55.012 61.2341 55.352 62.3901 56.916 62.2881C57.97 62.1861 58.956 61.6421 59.568 60.7581L60.384 55.6581C60.078 55.3521 59.33 54.2641 59.908 51.9861C58.412 52.2581 56.882 52.2241 55.454 51.8161C55.148 52.5301 54.162 54.9101 54.162 56.1341C54.162 57.3581 54.978 57.5621 55.114 57.5961C55.148 57.5961 55.216 57.6301 55.25 57.6641C55.318 57.7321 55.352 57.8341 55.318 57.9021L54.944 60.9961Z" fill="#231F20"/>
<path d="M59.602 55.2841C59.942 54.4001 61.608 54.0261 61.88 55.1481C62.016 56.3721 60.554 57.4261 59.5 56.6781" fill="white"/>
<path d="M60.2479 57.188C59.9079 57.188 59.6019 57.086 59.3299 56.882C59.2279 56.814 59.1939 56.644 59.2619 56.542C59.3299 56.44 59.4999 56.406 59.6019 56.474C59.9759 56.746 60.4859 56.746 60.8939 56.508C61.3699 56.236 61.6419 55.726 61.6079 55.182C61.5399 54.91 61.3019 54.706 60.9959 54.706C60.5199 54.672 60.0439 54.944 59.8059 55.352C59.7719 55.488 59.6019 55.556 59.4999 55.488C59.4999 55.488 59.4999 55.488 59.4659 55.488C59.3299 55.454 59.2619 55.284 59.3299 55.182C59.3299 55.182 59.3299 55.182 59.3299 55.148C59.6359 54.502 60.3159 54.128 61.0299 54.162C61.5399 54.162 61.9819 54.536 62.0839 55.046V55.08C62.1519 55.828 61.7779 56.542 61.1319 56.882C60.8599 57.086 60.5539 57.188 60.2479 57.188Z" fill="#231F20"/>
<path d="M54.842 59.67C55.556 59.636 56.27 59.398 56.848 58.99C57.8 58.344 57.8 57.868 57.8 57.868C57.8 57.868 56.338 58.378 55.148 57.936L54.842 59.67Z" fill="#231F20"/>
<path d="M54.8421 59.9079C54.7061 59.9079 54.5701 59.8059 54.5701 59.6359V59.6019L54.9101 57.8679C54.9101 57.7999 54.9781 57.7319 55.0461 57.6979C55.1141 57.6639 55.1821 57.6639 55.2501 57.6639C56.3381 58.0719 57.6981 57.5959 57.6981 57.5959C57.7661 57.5619 57.8681 57.5619 57.9361 57.6299C58.0041 57.6639 58.0381 57.7659 58.0381 57.8339C58.0381 57.9359 57.9701 58.4799 56.9841 59.1939C56.3381 59.6359 55.5901 59.8739 54.8421 59.9079ZM55.3521 58.2419L55.1481 59.3639C55.6921 59.2959 56.2361 59.0919 56.7121 58.7859C56.9501 58.6499 57.1541 58.4459 57.3241 58.2419C56.6781 58.3779 55.9981 58.4119 55.3521 58.2419Z" fill="#231F20"/>
<path d="M57.1539 53.72C57.1539 53.72 55.8958 54.978 56.0658 55.284C56.2358 55.59 56.9158 55.556 56.9158 55.556" fill="white"/>
<path d="M56.848 55.794C56.61 55.794 56.066 55.76 55.862 55.42C55.794 55.318 55.59 54.944 56.984 53.55C57.086 53.448 57.256 53.448 57.358 53.55C57.46 53.652 57.46 53.822 57.358 53.924C56.95 54.298 56.61 54.74 56.338 55.216C56.542 55.318 56.746 55.352 56.95 55.318C57.086 55.318 57.222 55.42 57.222 55.556C57.222 55.692 57.12 55.828 56.984 55.828L56.848 55.794Z" fill="#231F20"/>
<path d="M58.581 53.8662C58.6019 53.6796 58.5129 53.5165 58.3823 53.5018C58.2516 53.4872 58.1288 53.6266 58.1079 53.8132C58.087 53.9998 58.176 54.163 58.3066 54.1776C58.4372 54.1922 58.5601 54.0528 58.581 53.8662Z" fill="#231F20"/>
<path d="M56.2794 53.475C56.3544 53.3028 56.3175 53.1207 56.197 53.0682C56.0764 53.0157 55.918 53.1128 55.843 53.2849C55.768 53.4571 55.805 53.6392 55.9255 53.6917C56.046 53.7442 56.2045 53.6471 56.2794 53.475Z" fill="#231F20"/>
<path d="M47.5321 67.286C47.5321 67.286 40.6301 70.5161 38.3521 69.4621C36.8561 68.7821 34.6461 62.118 34.2721 61.098C34.1361 60.656 33.9661 60.2141 33.7961 59.7721C33.4221 59.1941 33.0141 58.6161 32.5721 58.0721C32.1301 57.4941 31.8241 56.814 31.6881 56.066C31.6201 55.794 31.6541 55.488 31.7901 55.216C32.1301 54.57 33.5581 54.6041 34.1361 54.9101C34.7821 55.2161 36.6861 58.072 37.2981 58.446C38.2161 60.418 39.2701 62.3221 40.4601 64.1921C42.6361 63.4441 44.7101 62.5941 44.7101 62.5941" fill="white"/>
<path d="M39.5421 69.904C39.1001 69.938 38.6581 69.836 38.2501 69.666C37.2641 69.19 35.9041 66.538 34.1361 61.472L34.0341 61.166C33.9661 61.03 33.9321 60.86 33.8981 60.724C33.7961 60.418 33.6941 60.146 33.5581 59.874C33.3541 59.5 33.0821 59.126 32.8101 58.82C32.6401 58.616 32.5041 58.412 32.3681 58.208C31.8921 57.596 31.5861 56.882 31.4501 56.1C31.3821 55.76 31.4161 55.386 31.5861 55.08C32.0281 54.264 33.6261 54.332 34.2721 54.638C34.6121 54.808 35.1561 55.454 36.0061 56.542C36.5501 57.222 37.1961 58.038 37.4681 58.174C37.5021 58.208 37.5361 58.242 37.5701 58.276C38.4881 60.18 39.4741 62.016 40.5961 63.818C42.6701 63.104 44.6081 62.288 44.6421 62.288C44.7781 62.22 44.9141 62.288 44.9821 62.424C45.0501 62.56 44.9821 62.696 44.8461 62.764C44.8121 62.764 42.7381 63.648 40.5621 64.362C40.4601 64.396 40.3241 64.362 40.2561 64.26C39.1001 62.424 38.0461 60.52 37.1281 58.548C36.7881 58.31 36.3461 57.732 35.5981 56.848C35.0201 56.134 34.3061 55.25 34.0341 55.114C33.5241 54.842 32.2661 54.876 32.0281 55.318C31.9261 55.522 31.8921 55.76 31.9601 55.998C32.0961 56.678 32.3681 57.324 32.8101 57.868C32.9461 58.072 33.0821 58.242 33.2521 58.446C33.5581 58.82 33.8301 59.194 34.0341 59.602C34.1701 59.908 34.2721 60.214 34.3741 60.52C34.4081 60.656 34.4761 60.826 34.5101 60.962L34.6121 61.268C36.7201 67.286 37.8761 68.884 38.4541 69.156C40.5621 70.142 47.3281 67.014 47.3961 66.98C47.5321 66.912 47.6681 66.98 47.7361 67.082C47.8041 67.218 47.7361 67.354 47.6341 67.422C47.3961 67.626 42.4661 69.904 39.5421 69.904Z" fill="#231F20"/>
<path d="M61.1999 61.6421L54.9099 65.3141L58.3439 71.8761L62.5599 69.1901" fill="#231F20"/>
<path d="M58.3442 72.114C58.3102 72.114 58.3102 72.114 58.2762 72.114C58.2082 72.08 58.1402 72.046 58.1062 71.978L54.6722 65.45C54.6042 65.314 54.6382 65.178 54.7742 65.11L61.0642 61.404C61.2002 61.336 61.3362 61.37 61.4042 61.506C61.4722 61.642 61.4382 61.778 61.3022 61.846L55.2162 65.416L58.4122 71.502L62.3902 68.952C62.4922 68.884 62.6622 68.884 62.7302 69.02C62.7982 69.122 62.7982 69.292 62.6622 69.36C62.6622 69.36 62.6622 69.36 62.6282 69.36L58.4802 72.08C58.4462 72.114 58.3782 72.114 58.3442 72.114Z" fill="#231F20"/>
<path d="M51.8501 53.72L22.2021 52.224V56.848L51.8501 55.386V53.72Z" fill="white"/>
<path d="M22.2021 57.12C22.1341 57.12 22.0661 57.086 22.0321 57.052C21.9981 57.018 21.9641 56.95 21.9641 56.882V52.258C21.9641 52.122 22.0661 51.986 22.2021 51.986L51.8501 53.482C51.9861 53.482 52.0881 53.618 52.0881 53.754V55.386C52.0881 55.522 51.9861 55.624 51.8501 55.658L22.2021 57.12ZM22.4401 52.496V56.576L51.5781 55.114V53.958L22.4401 52.496Z" fill="#231F20"/>
<path d="M58.8201 70.652C58.8201 70.652 52.3941 74.528 49.8781 73.678C47.3621 72.828 43.8601 58.242 43.8601 58.242C43.8601 58.242 42.3301 55.284 42.7721 54.468C43.2141 53.652 46.1381 51.34 46.4101 52.054C46.6821 52.768 46.8181 55.794 46.8181 55.794C46.8181 55.794 48.9261 55.454 48.8921 55.488C48.8581 55.522 47.7361 57.596 47.7361 57.596L52.0201 67.422L56.6781 65.382" fill="white"/>
<path d="M50.694 74.0519C50.388 74.0519 50.082 74.0179 49.81 73.9159C47.26 73.0659 43.996 59.9419 43.622 58.3099C43.316 57.7319 42.058 55.1819 42.568 54.3319C42.976 53.5839 45.322 51.6119 46.24 51.6459C46.444 51.6459 46.58 51.7819 46.648 51.9519C46.886 52.5979 47.022 54.7059 47.056 55.4879C49.028 55.1819 49.028 55.1819 49.096 55.3519C49.13 55.4539 49.13 55.5559 49.062 55.6239C48.994 55.7599 48.382 56.8479 47.974 57.5959L52.088 67.0479L56.508 65.1099C56.644 65.0419 56.78 65.1099 56.848 65.2459C56.916 65.3819 56.848 65.5179 56.712 65.5859L52.054 67.6259C51.918 67.6939 51.782 67.6259 51.714 67.4899L47.43 57.6639C47.396 57.5959 47.396 57.5279 47.43 57.4599C47.872 56.6099 48.178 56.0999 48.348 55.7939L46.818 56.0319C46.75 56.0319 46.682 56.0319 46.614 55.9639C46.546 55.9299 46.512 55.8619 46.512 55.7599C46.478 54.9439 46.342 52.6999 46.138 52.1219C45.662 52.0539 43.384 53.7879 42.976 54.5359C42.704 55.0119 43.452 56.8819 44.064 58.0719C44.064 58.1059 44.098 58.1059 44.098 58.1399C45.084 62.1519 48.008 72.7599 49.98 73.4059C52.36 74.1879 58.65 70.4139 58.718 70.3799C58.854 70.3119 58.99 70.3459 59.058 70.4819C59.126 70.6179 59.092 70.7539 58.956 70.8219C58.718 71.0259 53.618 74.0519 50.694 74.0519Z" fill="#231F20"/>
<path d="M59.1941 71.638C59.1601 71.638 59.1261 71.638 59.1261 71.638C59.0581 71.604 58.9901 71.57 58.9561 71.502L57.9361 69.088C57.8681 68.952 57.9361 68.816 58.0381 68.748C58.1741 68.68 58.3101 68.748 58.3781 68.85V68.884L59.2961 71.026L64.3621 68C64.4641 67.932 64.6341 67.966 64.7021 68.068C64.7701 68.17 64.7361 68.34 64.6341 68.408L59.3301 71.604C59.2961 71.638 59.2281 71.638 59.1941 71.638Z" fill="white"/>
<path d="M57.6301 56.95H57.5961L55.7941 56.712C55.6581 56.678 55.5561 56.576 55.5901 56.44C55.6241 56.304 55.7261 56.202 55.8621 56.236L57.6641 56.474C57.8001 56.508 57.9021 56.61 57.8681 56.746C57.8681 56.848 57.7661 56.95 57.6301 56.95Z" fill="#231F20"/>
<path d="M30.7019 56.5419C30.5659 56.5419 30.4299 56.4399 30.4299 56.2699V53.0399C30.4299 52.9039 30.5319 52.7679 30.7019 52.7679C30.8719 52.7679 30.9739 52.8699 30.9739 53.0399V56.2699C30.9739 56.4059 30.8719 56.5419 30.7019 56.5419Z" fill="#231F20"/>
<path d="M38.4539 56.27C38.3179 56.27 38.1819 56.168 38.1819 55.998V53.21C38.1819 53.074 38.2839 52.938 38.4539 52.938C38.6239 52.938 38.7259 53.04 38.7259 53.21V55.998C38.6919 56.168 38.5899 56.27 38.4539 56.27Z" fill="#231F20"/>
<path d="M48.9939 55.726C48.8579 55.726 48.7559 55.624 48.7219 55.454V53.72C48.7219 53.584 48.8239 53.448 48.9939 53.448C49.1639 53.448 49.2659 53.55 49.2659 53.72V55.454C49.2319 55.624 49.1299 55.726 48.9939 55.726Z" fill="#231F20"/>
<path d="M66.198 85.748C57.222 85.51 47.838 82.382 47.736 82.348C47.6 82.314 47.532 82.178 47.566 82.042C47.566 82.042 47.566 82.042 47.566 82.008C47.6 81.872 47.77 81.804 47.872 81.838C47.974 81.872 57.29 85 66.164 85.238C66.3 85.238 66.436 85.34 66.436 85.51C66.436 85.68 66.368 85.748 66.198 85.748Z" fill="white"/>
<path d="M63.512 92.344C63.444 92.344 63.41 92.31 63.342 92.276C61.2 90.576 61.2 87.754 61.2 87.652C61.2 87.516 61.302 87.414 61.472 87.38C61.608 87.38 61.744 87.482 61.744 87.652C61.744 87.686 61.7779 90.338 63.7159 91.902C63.8179 92.004 63.818 92.14 63.75 92.242C63.648 92.276 63.58 92.344 63.512 92.344Z" fill="white"/>
<path d="M16.116 99.756C16.116 99.756 23.392 114.92 30.43 123.318C38.658 133.144 52.598 135.184 52.598 135.184C52.598 135.184 135.694 133.212 138.754 132.362C147.73 129.88 154.87 113.254 154.87 113.254C103.53 104.618 16.116 99.756 16.116 99.756Z" fill="white"/>
<path d="M52.598 135.422H52.564C52.428 135.388 38.454 133.246 30.226 123.488C23.256 115.158 15.946 100.028 15.878 99.892C15.844 99.824 15.844 99.722 15.878 99.654C15.912 99.586 16.014 99.552 16.116 99.552C17 99.586 104.142 104.482 154.904 113.05C154.972 113.05 155.04 113.118 155.074 113.186C155.108 113.254 155.108 113.322 155.074 113.39C154.768 114.07 147.764 130.152 138.788 132.634C135.728 133.45 55.964 135.354 52.598 135.422ZM16.558 100.028C17.748 102.442 24.344 115.6 30.634 123.148C38.556 132.6 52.02 134.81 52.632 134.912C54.366 134.878 135.728 132.94 138.72 132.09C146.812 129.846 153.51 115.668 154.53 113.424C105.57 105.264 23.256 100.436 16.558 100.028Z" fill="#231F20"/>
<path d="M151.776 119.51H151.742C115.498 113.356 23.8682 107.746 19.9922 107.508C19.8562 107.508 19.7542 107.372 19.7542 107.236C19.7542 107.1 19.8902 106.998 20.0262 106.998C23.9022 107.236 115.566 112.846 151.81 119C151.946 119.034 152.048 119.136 152.014 119.272C151.98 119.442 151.878 119.51 151.776 119.51Z" fill="#231F20"/>
<path d="M146.676 126.82H146.642C112.472 121.686 44.8461 117.164 24.9221 115.906C24.7861 115.906 24.6841 115.77 24.6841 115.634C24.6841 115.498 24.8201 115.396 24.9561 115.396C44.8801 116.654 112.54 121.176 146.71 126.31C146.846 126.344 146.948 126.48 146.914 126.616C146.914 126.718 146.812 126.82 146.676 126.82Z" fill="#231F20"/>
<path d="M133.722 133.076C99.4502 129.03 50.5922 125.698 31.1782 124.44C31.0422 124.44 30.9402 124.304 30.9402 124.168C30.9402 124.032 31.0762 123.93 31.2122 123.93C50.6262 125.188 99.4842 128.52 133.756 132.532C133.824 132.532 133.892 132.566 133.926 132.6C134.028 132.702 134.028 132.872 133.926 132.974C133.858 133.042 133.79 133.042 133.722 133.076Z" fill="#231F20"/>
<path d="M154.87 128.69V142.494H19.6521V128.69C24.4801 128.69 24.4801 131.274 29.3081 131.274C34.1361 131.274 34.1361 128.69 38.9641 128.69C43.7921 128.69 43.7921 131.274 48.6201 131.274C53.4481 131.274 53.4481 128.69 58.2761 128.69C63.1041 128.69 63.1041 131.274 67.9321 131.274C72.7601 131.274 72.7601 128.69 77.5881 128.69C82.4161 128.69 82.4161 131.274 87.2441 131.274C92.0721 131.274 92.0721 128.69 96.9001 128.69C101.728 128.69 101.728 131.274 106.556 131.274C111.384 131.274 111.384 128.69 116.212 128.69C121.04 128.69 121.04 131.274 125.868 131.274C130.696 131.274 130.696 128.69 135.524 128.69C140.352 128.69 140.352 131.274 145.18 131.274C150.008 131.274 150.042 128.69 154.87 128.69Z" fill="white"/>
<path d="M145.214 131.58C142.732 131.58 141.474 130.866 140.25 130.186C139.026 129.506 137.904 128.86 135.558 128.86C133.212 128.86 132.056 129.506 130.866 130.186C129.676 130.866 128.384 131.58 125.902 131.58C123.42 131.58 122.162 130.866 120.938 130.186C119.714 129.506 118.592 128.86 116.246 128.86C113.9 128.86 112.744 129.506 111.554 130.186C110.364 130.866 109.072 131.58 106.59 131.58C104.108 131.58 102.85 130.866 101.626 130.186C100.402 129.506 99.2801 128.86 96.9001 128.86C94.5201 128.86 93.3981 129.506 92.2081 130.186C91.0181 130.866 89.7261 131.58 87.2441 131.58C84.7621 131.58 83.5041 130.866 82.2801 130.186C81.0561 129.506 79.9341 128.86 77.5881 128.86C75.2421 128.86 74.0861 129.506 72.8961 130.186C71.7061 130.866 70.4141 131.58 67.9321 131.58C65.4501 131.58 64.1921 130.866 62.9681 130.186C61.7441 129.506 60.6221 128.86 58.2761 128.86C55.9301 128.86 54.7741 129.506 53.5841 130.186C52.3941 130.866 51.1361 131.58 48.6541 131.58C46.1721 131.58 44.9141 130.866 43.6901 130.186C42.4661 129.506 41.3441 128.86 38.9981 128.86C36.6521 128.86 35.4961 129.506 34.3061 130.186C33.1161 130.866 31.8241 131.58 29.3421 131.58C26.8601 131.58 25.6021 130.866 24.3781 130.186C23.1541 129.506 22.0321 128.86 19.6861 128.86C19.5501 128.86 19.4141 128.758 19.4141 128.588C19.4141 128.418 19.5161 128.316 19.6861 128.316C22.1681 128.316 23.4261 129.03 24.6501 129.71C25.8741 130.39 26.9961 131.036 29.3421 131.036C31.6881 131.036 32.8441 130.39 34.0341 129.71C35.2241 129.03 36.5161 128.316 38.9981 128.316C41.4801 128.316 42.7381 129.03 43.9621 129.71C45.1861 130.39 46.3081 131.036 48.6541 131.036C51.0001 131.036 52.1561 130.39 53.3461 129.71C54.5361 129.03 55.8281 128.316 58.3101 128.316C60.7921 128.316 62.0501 129.03 63.2741 129.71C64.4981 130.39 65.6201 131.036 67.9661 131.036C70.3121 131.036 71.4681 130.39 72.6581 129.71C73.8481 129.03 75.1401 128.316 77.6221 128.316C80.1041 128.316 81.3621 129.03 82.5861 129.71C83.8101 130.39 84.9321 131.036 87.2781 131.036C89.6241 131.036 90.7801 130.39 91.9701 129.71C93.1601 129.03 94.4521 128.316 96.9341 128.316C99.4161 128.316 100.674 129.03 101.898 129.71C103.122 130.39 104.244 131.036 106.59 131.036C108.936 131.036 110.092 130.39 111.282 129.71C112.472 129.03 113.764 128.316 116.246 128.316C118.728 128.316 119.986 129.03 121.21 129.71C122.434 130.39 123.556 131.036 125.902 131.036C128.248 131.036 129.404 130.39 130.594 129.71C131.784 129.03 133.076 128.316 135.558 128.316C138.04 128.316 139.298 129.03 140.522 129.71C141.746 130.39 142.868 131.036 145.214 131.036C147.56 131.036 148.716 130.39 149.906 129.71C151.096 129.03 152.388 128.316 154.87 128.316C155.006 128.316 155.142 128.418 155.142 128.588C155.142 128.758 155.04 128.86 154.87 128.86C152.524 128.86 151.368 129.506 150.178 130.186C148.988 130.866 147.696 131.58 145.214 131.58Z" fill="#231F20"/>
<path d="M104.006 80.4101L151.13 123.692L152.252 123.386L105.196 79.1521C104.856 78.8121 104.278 78.8461 103.972 79.1861C103.938 79.2201 103.904 79.2541 103.87 79.3221C103.632 79.6621 103.7 80.1381 104.006 80.4101Z" fill="white"/>
<path d="M151.164 123.964C151.096 123.964 151.028 123.93 150.994 123.896L103.836 80.6141C103.428 80.2401 103.36 79.6281 103.666 79.1861C103.836 78.9141 104.142 78.7101 104.482 78.6761C104.822 78.6421 105.162 78.7441 105.4 78.9821L152.49 123.25C152.558 123.318 152.592 123.42 152.558 123.488C152.524 123.59 152.456 123.658 152.388 123.658L151.232 123.964H151.164ZM104.176 80.2401L151.198 123.42L151.742 123.284L105.026 79.3221C104.788 79.0841 104.38 79.0841 104.142 79.3561C104.108 79.3901 104.108 79.4241 104.074 79.4581C103.904 79.6961 103.972 80.0361 104.176 80.2401Z" fill="#231F20"/>
<path d="M150.008 117.062L146.098 116.212C145.044 115.974 143.99 116.654 143.786 117.708C143.718 118.014 143.718 118.354 143.82 118.66L144.874 122.434C144.976 122.774 145.146 123.08 145.418 123.318L153.34 130.9C154.122 131.648 155.346 131.614 156.094 130.832L158.916 127.874C159.664 127.092 159.63 125.868 158.848 125.12L150.96 117.572C150.688 117.334 150.348 117.164 150.008 117.062Z" fill="white"/>
<path d="M154.7 131.716C154.122 131.716 153.578 131.512 153.17 131.104L145.248 123.556C144.976 123.284 144.772 122.944 144.636 122.57L143.582 118.796C143.242 117.606 143.922 116.382 145.112 116.076C145.452 115.974 145.826 115.974 146.166 116.042L150.076 116.892C150.484 116.994 150.858 117.164 151.13 117.47L159.052 125.018C159.936 125.868 159.97 127.262 159.12 128.146L156.298 131.104C155.89 131.512 155.346 131.784 154.734 131.784L154.7 131.716ZM145.69 116.45C144.738 116.45 143.99 117.198 143.99 118.15C143.99 118.32 144.024 118.456 144.058 118.626L145.112 122.4C145.18 122.706 145.35 122.944 145.588 123.182L153.51 130.73C153.85 131.036 154.258 131.206 154.734 131.206C155.176 131.206 155.618 131.002 155.924 130.696L158.746 127.738C159.392 127.058 159.358 125.97 158.678 125.324L150.756 117.776C150.518 117.572 150.246 117.402 149.94 117.334L146.03 116.484C145.928 116.45 145.792 116.45 145.69 116.45Z" fill="#231F20"/>
<path d="M142.256 95.4041L143.514 100.198L134.81 104.346C134.81 104.346 132.872 103.428 132.838 103.394C132.804 103.36 133.246 104.958 133.246 104.958C133.246 104.958 130.696 104.754 129.948 104.958C129.2 105.162 131.206 108.29 131.954 108.834C132.702 109.378 135.83 108.154 135.83 108.154C135.83 108.154 146.54 105.06 147.628 102.646C148.716 100.232 147.118 95.472 147.118 95.472L142.256 95.4041Z" fill="white"/>
<path d="M132.6 109.174C132.328 109.208 132.056 109.14 131.852 109.004C131.172 108.528 129.438 105.978 129.574 105.094C129.608 104.89 129.744 104.754 129.914 104.686C130.526 104.516 132.192 104.618 132.94 104.652C132.532 103.258 132.566 103.258 132.77 103.156C132.838 103.122 132.94 103.122 133.042 103.19C133.178 103.258 134.198 103.734 134.878 104.04L143.276 100.062L142.052 95.472C142.018 95.336 142.12 95.2 142.256 95.166H142.29H147.152C147.254 95.166 147.356 95.234 147.39 95.336C147.458 95.54 149.022 100.232 147.9 102.714C147.424 103.768 145.248 105.06 141.44 106.522C138.652 107.576 135.966 108.392 135.932 108.392C135.49 108.494 133.722 109.174 132.6 109.174ZM130.05 105.162C129.914 105.638 131.41 108.086 132.124 108.562C132.566 108.868 134.504 108.324 135.762 107.848C138.72 106.998 146.574 104.346 147.424 102.476C148.342 100.436 147.22 96.526 146.948 95.642H142.596L143.786 100.13C143.82 100.232 143.752 100.368 143.65 100.436L134.946 104.55C134.878 104.584 134.81 104.584 134.742 104.55L133.246 103.87C133.314 104.176 133.45 104.584 133.518 104.856C133.552 104.924 133.518 105.026 133.484 105.094C133.416 105.162 133.348 105.196 133.28 105.196C132.566 105.128 130.662 105.026 130.05 105.162Z" fill="#231F20"/>
<path d="M115.022 87.244C114.376 86.36 113.424 85.782 112.336 85.578C112.2 85.544 112.098 85.544 111.962 85.578C111.588 85.714 111.248 85.884 110.908 86.122C110.466 86.462 110.296 87.04 110.432 87.55C110.534 87.788 110.806 87.924 111.078 87.822C111.214 87.788 111.316 87.686 111.35 87.55C111.588 87.074 112.166 87.074 112.642 87.04C112.642 87.04 112.846 88.06 113.39 88.4C114.138 88.876 115.26 88.74 115.43 88.74" fill="white"/>
<path d="M114.988 89.0461C114.41 89.0801 113.798 88.9441 113.288 88.6381C112.88 88.2981 112.608 87.8221 112.472 87.3121C112.03 87.3461 111.758 87.3801 111.622 87.6521C111.486 87.9241 111.18 88.0941 110.874 88.0941C110.568 88.0941 110.33 87.8901 110.262 87.6181C110.092 87.0061 110.296 86.3261 110.806 85.9181C111.18 85.6801 111.554 85.4761 111.962 85.3401C112.132 85.3061 112.268 85.3061 112.438 85.3401C113.56 85.5441 114.58 86.1901 115.294 87.1081C115.362 87.2101 115.362 87.3801 115.226 87.4481C115.124 87.5161 114.954 87.5161 114.886 87.3801C114.274 86.5641 113.39 86.0201 112.37 85.8161C112.268 85.7821 112.2 85.7821 112.098 85.8161C111.758 85.9521 111.452 86.1221 111.146 86.2921C110.772 86.5641 110.636 87.0401 110.772 87.4481C110.806 87.5161 110.874 87.5841 110.942 87.5841C111.044 87.5841 111.146 87.5161 111.214 87.4141C111.52 86.8361 112.132 86.8021 112.642 86.7681H112.744C112.846 86.7681 112.948 86.8361 112.982 86.9041C112.982 86.9381 113.016 86.9721 113.016 87.0061C113.05 87.1421 113.254 87.9241 113.662 88.1621C114.24 88.5361 115.09 88.5021 115.43 88.4681H115.566C115.702 88.4681 115.804 88.6041 115.804 88.7401C115.804 88.8761 115.668 88.9781 115.532 88.9781H115.43C115.26 89.0461 115.124 89.0461 114.988 89.0461Z" fill="#231F20"/>
<path d="M75.4121 69.5981L92.0041 131.41L93.1261 131.75L77.0781 69.1561C76.9421 68.6801 76.4661 68.4081 76.0241 68.5101C75.9561 68.5101 75.9221 68.5441 75.8541 68.5781C75.5141 68.7481 75.3101 69.1901 75.4121 69.5981Z" fill="white"/>
<path d="M93.1601 132.022C93.1261 132.022 93.0921 132.022 93.0921 132.022L91.9701 131.682C91.9021 131.648 91.8341 131.58 91.8001 131.512L75.1742 69.666C75.0042 69.054 75.3782 68.4421 75.9902 68.2721C76.6022 68.1021 77.2142 68.4761 77.3842 69.0881L93.4321 131.682C93.4661 131.784 93.4322 131.852 93.3642 131.92C93.2622 131.988 93.2281 132.022 93.1601 132.022ZM92.2421 131.206L92.7861 131.376L76.8402 69.2241C76.7722 68.8841 76.4322 68.6801 76.0922 68.7821C76.0582 68.7821 76.0242 68.816 75.9902 68.816C75.7182 68.952 75.5822 69.2581 75.6502 69.5301L92.2421 131.206Z" fill="#231F20"/>
<path d="M94.5882 125.188L91.7322 122.4C90.9502 121.652 89.7262 121.652 88.9782 122.434C88.7402 122.672 88.6042 122.944 88.5022 123.25L87.3802 127.024C87.2782 127.364 87.2782 127.704 87.3462 128.044L89.9982 138.686C90.2702 139.74 91.3242 140.386 92.3782 140.114L96.3562 139.128C97.4102 138.856 98.0562 137.802 97.7842 136.748L95.1322 126.174C95.0302 125.766 94.8602 125.46 94.5882 125.188Z" fill="white"/>
<path d="M91.9021 140.42C90.8821 140.42 89.9981 139.706 89.7601 138.72L87.1081 128.078C87.0061 127.704 87.0061 127.296 87.1421 126.922L88.2641 123.148C88.6041 121.992 89.8621 121.312 91.0181 121.652C91.3581 121.754 91.6641 121.924 91.9361 122.196L94.7921 124.984C95.0981 125.256 95.3021 125.63 95.4041 126.038L98.0561 136.68C98.3621 137.87 97.6141 139.06 96.4241 139.366L92.4461 140.352C92.2761 140.386 92.0721 140.42 91.9021 140.42ZM90.3721 122.094C90.2361 122.094 90.0661 122.128 89.9301 122.162C89.3521 122.298 88.9101 122.74 88.7401 123.318L87.6181 127.092C87.5161 127.398 87.5161 127.704 87.5841 127.976L90.2361 138.618C90.4741 139.536 91.3921 140.08 92.2761 139.876L96.2541 138.89C97.1721 138.652 97.7161 137.734 97.5121 136.85L94.8601 126.242C94.7921 125.936 94.6221 125.664 94.3841 125.426L91.5281 122.638C91.2561 122.264 90.8141 122.094 90.3721 122.094Z" fill="#231F20"/>
<path d="M74.6978 78.2341L74.3918 74.4941C74.3918 74.4941 74.5618 71.2301 75.2758 70.1761C75.9898 69.1221 78.7438 73.6441 78.8798 74.6641C79.0158 75.6841 77.3498 77.5541 77.8938 79.0841" fill="white"/>
<path d="M77.8601 79.356C77.7581 79.356 77.6561 79.288 77.6221 79.186C77.2821 78.166 77.758 77.078 78.166 76.126C78.404 75.548 78.642 75.038 78.608 74.698C78.506 73.848 76.466 70.516 75.616 70.278C75.548 70.244 75.5141 70.278 75.4801 70.312C74.9021 71.128 74.6641 73.61 74.6301 74.494L74.936 78.2C74.936 78.336 74.834 78.472 74.698 78.472C74.562 78.472 74.4601 78.37 74.4601 78.268L74.1541 74.528C74.1541 74.358 74.324 71.128 75.106 70.04C75.242 69.802 75.514 69.734 75.786 69.802C76.942 70.108 79.0501 73.678 79.1521 74.664C79.1861 75.14 78.948 75.718 78.676 76.364C78.302 77.248 77.8601 78.234 78.1321 79.05C78.2001 79.186 78.098 79.322 77.996 79.39C77.928 79.356 77.8941 79.356 77.8601 79.356Z" fill="#231F20"/>
<path d="M97.75 89.658L97.274 95.846L85.782 96.186C85.782 96.186 84.15 94.792 84.116 94.758C84.082 94.724 84.116 96.356 84.116 96.356C84.116 96.356 81.702 95.472 80.92 95.472C80.138 95.472 81.26 99.008 81.838 99.722C82.416 100.436 85.748 100.062 85.748 100.062C85.748 100.062 100.64 102.068 102.34 100.028C104.04 97.988 103.326 88.434 103.326 88.434L97.75 89.658Z" fill="white"/>
<path d="M97.1041 101.218C92.5821 101.218 86.8701 100.47 85.7821 100.334C85.1361 100.402 82.3141 100.64 81.6681 99.892C81.1241 99.246 80.1381 96.322 80.5121 95.506C80.5801 95.336 80.7501 95.2 80.9541 95.2C81.6001 95.2 83.1641 95.71 83.8781 95.982C83.8781 94.52 83.8781 94.52 84.0821 94.486C84.1841 94.486 84.2521 94.52 84.3201 94.588C84.4221 94.69 85.3061 95.438 85.8841 95.914L97.0361 95.574L97.4781 89.624C97.4781 89.522 97.58 89.42 97.682 89.386L103.292 88.162C103.428 88.128 103.564 88.23 103.598 88.366V88.4C103.632 88.808 104.312 98.09 102.578 100.198C101.966 100.98 99.7221 101.218 97.1041 101.218ZM85.7821 99.824H85.8161C89.9301 100.368 100.878 101.456 102.17 99.858C103.598 98.124 103.19 90.338 103.088 88.74L97.9541 89.862L97.512 95.88C97.512 96.016 97.4101 96.118 97.2741 96.118L85.7821 96.458C85.7141 96.458 85.6461 96.424 85.6121 96.39C85.0001 95.88 84.6261 95.54 84.3881 95.336C84.3881 95.676 84.3881 96.084 84.3881 96.356C84.3881 96.424 84.3541 96.526 84.2861 96.56C84.2181 96.594 84.1161 96.628 84.0481 96.594C83.4021 96.356 81.6001 95.744 80.9881 95.71C80.7501 96.118 81.5321 98.906 82.0761 99.552C82.4161 99.994 84.4561 99.994 85.7821 99.824Z" fill="#231F20"/>
</svg>
